<?xml version="1.0" encoding="UTF-8" standalone="no"?><!DOCTYPE svg PUBLIC "-//W3C//DTD SVG 1.1//EN" "http://www.w3.org/Graphics/SVG/1.1/DTD/svg11.dtd"><svg width="16667px" height="12500px" version="1.1" xmlns="http://www.w3.org/2000/svg" xmlns:xlink="http://www.w3.org/1999/xlink" xml:space="preserve" xmlns:serif="http://www.serif.com/" style="fill-rule:evenodd;clip-rule:evenodd;stroke-linejoin:round;stroke-miterlimit:2;"><rect id="Page-1" serif:id="Page 1" x="0" y="0" width="16666.7" height="12500" style="fill:none;"/><g id="Page-11" serif:id="Page 1"><rect x="0" y="0" width="16666.7" height="12500" style="fill:#fffaea;"/><path d="M12598.5,10759.4c-0,-0 -97.774,73.458 -198.391,56.178c-100.654,-17.244 -276.042,140.901 -583.69,158.144c-307.685,17.28 -414.063,25.884 -658.461,-83.374c-0,0 -27.087,-121.907 -11.01,-249.502c62.194,42.216 180.747,106.195 341.662,118.554c244.398,18.811 350.812,-2.844 563.567,-78.27c212.791,-75.427 333.532,-45.205 385.299,-38.753c44.986,5.615 87.748,-104.299 166.091,-110.642c4.776,94.675 -5.067,227.665 -5.067,227.665" style="fill:#dfd3c3;fill-rule:nonzero;"/><path d="M11731.7,10761.7c-69.302,6.27 -145.093,5.25 -243.013,-2.297c-160.915,-12.358 -279.468,-76.338 -341.662,-118.553c13.598,-107.544 57.855,-219.135 174.914,-265.178c17.499,-6.89 34.633,-13.489 51.439,-19.978l0.037,0c40.538,3.464 80.967,12.906 118.152,31.498c144.291,72.146 221.832,217.457 240.133,374.508" style="fill:#dfd3c3;fill-rule:nonzero;"/><path d="M12254.9,9912.84c-49.069,173.018 -204.662,588.101 -581.211,655.982c-40.284,-76.521 -100.545,-140.755 -182.169,-181.586c-37.185,-18.592 -77.614,-28.034 -118.152,-31.497c228.795,-87.931 389.71,-144.073 415.229,-377.206c18.555,-48.34 269.917,-62.266 466.303,-65.693" style="fill:#4a4948;fill-rule:nonzero;"/><path d="M12603.6,10531.8c-78.343,6.343 -121.105,116.257 -166.092,110.642c-51.767,-6.452 -172.507,-36.674 -385.299,38.753c-127.521,45.205 -216.837,71.088 -320.553,80.567c-7.948,-68.209 -27.05,-134.193 -57.965,-192.923c376.55,-67.881 532.142,-482.964 581.211,-655.982c129.053,-2.297 234.373,-0.036 234.373,-0.036c0,-0 14.364,51.767 23.004,209.911c8.603,158.108 71.854,270.245 86.254,356.535c2.479,14.838 4.083,32.847 5.067,52.533" style="fill:#353431;fill-rule:nonzero;"/><path d="M14449.7,10141.6c-38.06,190.335 -118.007,214.104 -118.007,214.104c0,-0 19.03,33.357 -29.456,224.092c-48.486,190.736 -149.468,311.805 -172.325,338.454c-22.821,26.649 -175.133,68.536 -369.295,65.839c-194.163,-2.698 -274.11,-54.429 -300.759,-84.869c-18.082,-20.707 -32.664,-85.233 -42.543,-151.947c52.787,29.238 128.87,56.543 236.706,68.172c263.172,28.472 429.993,-39.408 494.264,-169.518c4.557,-9.151 8.604,-18.666 12.104,-28.436c53.298,-148.483 87.566,-158.144 106.596,-311.294c16.295,-131.058 91.066,-141.63 140.973,-273.089c25.191,47.575 45.898,89.827 41.742,108.492" style="fill:#dfd3c3;fill-rule:nonzero;"/><path d="M14148.3,10646c-64.272,130.11 -231.092,197.99 -494.265,169.518c-107.836,-11.629 -183.918,-38.934 -236.706,-68.172l-0.037,0c-4.666,-31.57 -8.275,-63.615 -10.717,-91.722c-4.63,-53.079 38.314,-128.506 88.003,-198.099l0.037,-0.037c61.719,-31.096 135.651,-55.558 208.927,-49.324c169.445,14.436 345.744,11.775 444.758,237.836" style="fill:#dfd3c3;fill-rule:nonzero;"/><path d="M14408,10033.1c-49.908,131.459 -124.678,142.031 -140.974,273.089c-19.03,153.15 -53.298,162.811 -106.596,311.294c-3.5,9.77 -7.546,19.285 -12.103,28.436c-42.69,-97.446 -99.706,-152.385 -164.379,-184.539c152.421,-244.398 106.633,-547.817 81.442,-661.887c112.867,-38.06 200.761,-85.962 202.329,-145.348c15.092,60.808 54.501,201.344 79.254,259.235c15.603,36.492 39.882,79.947 61.027,119.72" style="fill:#353431;fill-rule:nonzero;"/><path d="M13984,10461.4c-85.342,-42.397 -183.955,-45.095 -280.38,-53.298c-73.275,-6.234 -147.207,18.228 -208.927,49.325c32.3,-45.278 67.48,-88.077 94.347,-120.668c68.209,-82.754 0,-424.963 0,-424.963c66.022,-17.827 301.269,-53.188 476.402,-112.283c25.191,114.07 70.979,417.489 -81.442,661.887" style="fill:#4a4948;fill-rule:nonzero;"/><path d="M13421.8,9656.59c0,0 49.492,210.91 64.72,229.948c15.231,19.033 152.286,49.492 369.295,-0c217.005,-49.492 409.352,-137.059 431.2,-171.323c21.851,-34.265 -91.07,-298.936 -91.07,-298.936l-774.145,240.311Z" style="fill:#d0b8a8;fill-rule:nonzero;"/><path d="M12262.1,10004.8c-10.791,1.641 -21.473,3.136 -32.045,4.412c-266.162,32.882 -468.272,-38.935 -468.272,-38.935l14.4,-133.063c14.364,-133.099 106.378,-160.186 106.378,-160.186c-0,0 577.93,-46.007 586.533,0c8.64,45.971 60.407,172.508 71.891,215.635c11.52,43.127 2.88,69.01 -278.885,112.137" style="fill:#d0b8a8;fill-rule:nonzero;"/><path d="M6216.11,5168.73c-50.673,101.383 -152.056,437.212 -215.452,640.014c-63.36,202.766 -76.01,299.702 -196.423,333.605c-34.049,9.588 -57.964,27.087 -76.739,47.028c-74.26,-131.933 -153.879,-200.579 -359.051,-248.846c-84.978,-20.014 -168.242,-25.446 -240.57,-24.024c-18.009,-23.332 -39.7,-62.23 -39.7,-114.106c-0,-88.733 152.093,-297.842 171.086,-418.218c19.03,-120.413 -50.673,-316.872 31.68,-354.859c78.671,-36.31 -154.681,-181.767 -175.862,-327.553c-1.057,-6.89 -1.567,-13.744 -1.567,-20.634c-0,-0 -107.727,462.22 -228.103,607.97c-25.045,81.295 24.024,156.43 0.948,188.839c-157.124,47.283 -409.032,96.462 -799.507,112.976c-364.264,15.421 -597.653,-12.358 -744.751,-48.267c6.525,-4.119 13.999,-6.416 22.493,-6.416c-0,-0 -95.076,-31.68 -95.076,-171.086c-0,-139.406 44.366,-171.086 -38.023,-285.156c-82.353,-114.069 -177.43,-690.687 -38.024,-1134.28c12.687,-31.68 -893.453,595.647 -1292.68,367.545c-272.505,-209.109 -145.749,-399.225 -101.383,-557.661c44.33,-158.4 354.859,-716.024 361.166,-836.437c6.343,-120.413 6.343,-196.459 158.436,-228.139c69.63,-14.509 106.049,-19.759 125.079,-32.773c29.565,30.914 69.703,66.604 122.454,101.784c140.901,93.909 101.748,39.116 285.739,109.585c23.878,9.15 46.007,18.483 66.495,27.816l0.036,0.036c16.624,14.838 77.359,72.073 71.891,110.388c-6.344,44.366 -88.697,234.482 -88.697,234.482c0,-0 392.882,-240.789 563.968,-329.522c171.086,-88.696 378.336,98.977 482.745,126.756c104.445,27.743 703.774,25.191 703.774,25.191c0,-0 82.171,61.756 298.207,61.756c216.036,-0 447.747,212.098 514.534,404.583c66.787,192.449 510.086,1105.33 643.149,1244.74c133.099,139.406 158.436,291.462 107.726,392.881" style="fill:#dfd3c3;fill-rule:nonzero;"/><path d="M12534.8,1368.03c0,-0 -600.197,-297.347 -914.061,247.788c-236.779,418.488 71.58,1112.03 -187.218,1632.52c-258.802,520.487 -280.828,970.302 -55.066,1078.54c225.762,108.229 1481.22,-211.144 1481.22,-211.144l363.425,-867.391c0,0 -55.066,24.91 -143.168,-399.083c-88.102,-423.993 -110.129,-781.91 -154.178,-1018.69c-44.053,-236.775 -126.65,-490.069 -390.957,-462.537" style="fill:#4a4948;fill-rule:nonzero;"/><path d="M10777.1,6036.09c0,-0 -58.23,42.667 -145.574,77.136c-87.344,34.469 -198.949,89.411 -276.589,76.499c-77.639,-12.913 -29.113,84.135 48.526,88.988c77.64,4.852 142.892,-22.191 142.892,-22.191c-0,0 -99.221,133.11 -133.187,218.373c-33.966,85.258 -9.705,77.956 43.67,101.018c53.378,23.058 97.048,-49.725 111.609,-49.725c14.556,-0 67.931,29.113 160.127,19.409c92.196,-9.705 145.575,28.428 208.657,-70.702c63.083,-99.134 106.753,-254.413 106.753,-254.413l-266.884,-184.392Z" style="fill:#feca6d;fill-rule:nonzero;"/><path d="M11284,6256.53c-82.718,72.474 -158.218,130.11 -178.122,131.642c-38.315,2.952 -344.578,-314.029 -387.669,-352.307c-43.054,-38.279 -52.642,-52.642 90.957,-220.155c5.614,-6.526 11.483,-13.635 17.644,-21.181c41.341,95.659 107.143,215.379 198.756,286.723c82.39,64.198 179.762,127.23 258.434,175.278" style="fill:#b17458;fill-rule:nonzero;"/><path d="M11866.8,3238.66l-33.466,1237.08c0,-0 -234.482,1450.02 -339.766,1574.48c-50.564,59.751 -133.136,139.37 -209.51,206.302c-78.671,-48.048 -176.044,-111.08 -258.434,-175.278c-91.613,-71.344 -157.415,-191.064 -198.755,-286.723l-0,-0.037c150.962,-186.178 453.762,-669.688 513.549,-830.603c62.193,-167.514 44.804,-912.301 57.418,-1124.65c12.65,-212.317 38.278,-435.462 138.786,-483.328c100.508,-47.866 330.178,-117.241 330.178,-117.241" style="fill:#935b46;fill-rule:nonzero;"/><path d="M10826.8,5794.52l-0,-0.036" style="fill:none;fill-rule:nonzero;"/><path d="M3729.99,2259.83c0,-0 -162.486,-137.489 -206.232,-21.873c-43.747,115.615 20.429,282.753 282.067,311.677c111.653,28.923 -75.835,-289.804 -75.835,-289.804" style="fill:#c78870;fill-rule:nonzero;"/><path d="M4642.42,2093.51c-0,0 12.5,-158.661 143.741,-127.415c131.24,31.249 63.895,298.512 -133.665,405.484c-85.069,31.982 -10.076,-278.069 -10.076,-278.069" style="fill:#c78870;fill-rule:nonzero;"/><path d="M3948.73,2634.8l31.25,324.976c-0,-0 43.746,162.486 274.977,193.735c231.234,31.247 331.224,-106.242 331.224,-106.242l-68.744,-537.461c-0,0 -331.225,-156.238 -568.707,124.992" style="fill:#995e47;fill-rule:nonzero;"/><path d="M4611.19,2547.32c-74.99,162.483 -306.227,287.452 -349.974,287.452c-43.747,0 -237.508,0 -368.748,-143.707c-84.322,-92.379 -127.376,-244.07 -147.39,-340.714c-11.119,-53.772 -15.093,-90.519 -15.093,-90.519l246.44,-353.583l184.793,-265.105l200.105,168.498l274.839,231.456c-0,0 4.484,30.732 8.712,78.161c10.026,111.189 18.884,314.174 -33.684,428.061" style="fill:#b17458;fill-rule:nonzero;"/><path d="M3444.86,2658.25c-29.712,55.011 -153.588,-49.033 -247.716,-24.243c-94.165,24.753 -222.962,79.254 -252.71,138.713l-29.711,59.459l-366.634,-252.673c0,-0 39.627,-253.293 34.669,-411.547c-0.546,-17.681 0.693,-33.94 3.5,-48.887c21.436,123.074 66.677,276.807 160.004,297.113c127.776,27.779 336.011,30.222 453.507,-8.895c-10.353,32.117 0.219,55.485 56.834,69.156c118.918,28.727 218.005,126.792 188.257,181.804" style="fill:#b17458;fill-rule:nonzero;"/><path d="M2586.26,2119.07c-0,0 1.622,269.294 86.257,309.69c84.636,40.393 365.252,86.356 427.019,37.768c61.767,-48.595 100.235,-59.24 100.235,-59.24l-175.25,-230.508l-438.261,-57.71Z" style="fill:#995e47;fill-rule:nonzero;"/><path d="M3276.4,2270.58c-28.545,55.413 -65.256,101.383 -76.63,136.709c-117.496,39.116 -325.731,36.674 -453.507,8.895c-93.327,-20.306 -138.568,-174.039 -160.004,-297.113c22.384,-119.028 144.656,-155.41 259.09,-157.051c128.834,-1.859 327.006,3.099 366.634,52.642c39.663,49.543 118.918,150.197 64.417,255.918" style="fill:#b17458;fill-rule:nonzero;"/><path d="M4330.52,11090.4c-13.926,60.298 -231.821,69.557 -306.008,69.557c-74.187,0 -69.557,-55.631 -199.375,-37.075c-129.819,18.519 -788.17,171.523 -885.506,171.523c-97.373,0 -301.379,-64.891 -310.638,-153.004c-0.766,-43.601 0.583,-81.988 4.557,-116.111c62.922,52.606 166.456,117.314 301.414,125.408c231.821,13.889 635.202,-102.003 885.543,-162.264c250.377,-60.298 377.497,55.157 445.086,18.519c20.962,-11.338 44.549,-30.841 67.078,-52.314c2.333,68.318 1.641,119.356 -2.151,135.761" style="fill:#dfd3c3;fill-rule:nonzero;"/><path d="M4332.67,10954.6c-22.529,21.472 -46.116,40.976 -67.078,52.313c-67.589,36.638 -194.709,-78.817 -445.086,-18.519c-250.34,60.261 -653.721,176.153 -885.542,162.264c-134.959,-8.094 -238.493,-72.802 -301.415,-125.408c19.176,-164.195 100.071,-230.362 308.742,-310.893c15.384,-5.905 31.498,-11.957 48.304,-18.082c55.85,-20.378 109.257,-43.236 159.165,-66.823c54.72,-25.883 105.211,-52.678 149.978,-78.233c53.189,-30.295 98.321,-58.767 132.881,-81.734c48.559,-32.19 76.265,-53.48 76.265,-53.48c277.208,-335.902 743.803,-52.824 740.631,-48.522c49.069,98.138 76.958,404.438 83.155,587.117" style="fill:#d0b8a8;fill-rule:nonzero;"/><path d="M3287.34,10867.8c0,0 -180.819,125.189 -176.19,51.002c5.177,-93.327 -86.8,-162.046 -168.862,-204.48c15.384,-5.906 31.498,-11.957 48.304,-18.082c55.85,-20.378 109.257,-43.236 159.165,-66.823c137.583,79.182 137.583,238.383 137.583,238.383" style="fill:#dfd3c3;fill-rule:nonzero;"/><path d="M6872.16,11064.2c-0.182,59.896 -8.093,106.013 -19.504,118.881c-37.112,41.742 -426.567,83.447 -593.46,83.447c-166.894,0 -533.163,-162.264 -593.46,-142.067c-60.261,20.196 -236.451,-24.826 -301.014,-52.642c-64.563,-27.816 -60.589,-162.264 -46.7,-267.985c0.365,-2.734 0.729,-5.724 1.094,-8.932c75.682,62.23 184.283,139.552 295.618,178.232c204.006,70.869 598.09,180.783 876.283,151.327c199.558,-21.144 306.081,-31.899 381.143,-60.261" style="fill:#dfd3c3;fill-rule:nonzero;"/><path d="M6872.16,11064.2c-75.062,28.362 -181.585,39.117 -381.143,60.261c-278.193,29.456 -672.277,-80.458 -876.283,-151.327c-111.335,-38.68 -219.936,-116.002 -295.618,-178.232c13.343,-120.449 22.457,-559.046 22.457,-559.046c338.781,-312.023 606.985,-77.395 699.728,38.497c14.145,36.055 39.044,69.667 71.489,101.019c45.424,43.892 105.612,83.337 171.414,118.663c52.97,28.435 109.622,54.209 165.144,77.577c62.74,26.321 124.095,49.58 177.32,69.995c30.513,11.702 58.365,22.493 82.244,32.409c125.115,51.949 163.649,255.736 163.248,390.184" style="fill:#d0b8a8;fill-rule:nonzero;"/><path d="M6284.21,10494c-233.206,32.008 -234.591,167.295 -266.089,179.398c-37.112,14.217 -125.188,-23.514 -115.929,-125.517c23.915,-114.252 126.975,-156.941 210.604,-172.544c45.424,43.893 105.612,83.337 171.414,118.663" style="fill:#dfd3c3;fill-rule:nonzero;"/><path d="M6626.67,10641.6c-212.208,37.841 -308.998,203.021 -321.101,203.021c-13.926,0 -125.188,-4.63 -115.892,-58.766c57.016,-135.506 168.388,-191.501 259.673,-214.25c62.74,26.321 124.095,49.58 177.32,69.995" style="fill:#dfd3c3;fill-rule:nonzero;"/><path d="M3644.31,10763.3c-0,-0 -176.153,76.739 -190.736,19.139c-13.051,-128.141 -88.441,-195.985 -153.842,-231.201c53.189,-30.295 98.321,-58.767 132.88,-81.734c152.968,67.589 211.698,293.796 211.698,293.796" style="fill:#dfd3c3;fill-rule:nonzero;"/><path d="M3379.94,5681.26c-0,0 -170.645,216.703 -170.645,425.645c0,208.945 -57.191,1938.58 92.225,2612.64c149.417,674.049 178.556,713.454 119.921,850.271c-58.635,136.818 58.635,416.968 169.394,514.695c110.756,97.726 -201.971,84.697 -130.303,299.694c58.635,78.182 384.391,71.668 592.877,58.638c208.482,-13.029 214.997,-117.274 214.997,-117.274c-0,0 -104.241,-299.694 -91.212,-358.332c13.033,-58.635 -6.139,-134.944 -45.606,-332.271c-6.514,-32.577 65.154,-2853.63 65.154,-2853.63c-0,0 716.661,2397.57 762.267,2579.99c45.606,182.423 -45.606,280.15 58.639,377.88c104.241,97.726 234.544,136.814 221.512,241.059c-13.03,104.241 -32.573,195.452 91.211,201.967c123.789,6.515 -104.241,39.091 39.092,58.635c143.332,19.548 592.877,26.062 625.453,-39.087c32.573,-65.154 -130.303,-280.151 -130.303,-280.151c0,0 130.303,-130.306 -52.12,-377.88c-123.789,-345.3 -740.883,-3589.45 -801.359,-3713.62c-60.48,-124.164 -130.304,-175.906 -130.304,-175.906l-1500.89,27.039Z" style="fill:#4a4948;fill-rule:nonzero;"/><path d="M3890.16,3008.69c0,0 -49.401,-105.75 58.566,-157.116c59.269,-27.495 29.39,164.192 287.088,216.036c257.693,51.839 298.516,-144.087 392.787,-109.36c94.266,34.728 23.564,160.419 -0,172.205c-23.569,11.783 -251.384,180.681 -408.5,145.33c-157.116,-35.35 -302.446,-208.175 -329.941,-267.095" style="fill:#d0b8a8;fill-rule:nonzero;"/><path d="M4904.4,5745.35c-139.406,57.053 -1089.91,278.848 -1590.52,6.343c-16.879,-28.144 -23.769,-176.299 28.217,-209.036c147.098,35.908 380.487,63.688 744.751,48.267c390.475,-16.515 642.383,-65.693 799.507,-112.976c-0.292,0.438 -0.62,0.839 -0.948,1.276c-25.373,31.68 158.4,209.109 18.993,266.126" style="fill:#d0b8a8;fill-rule:nonzero;"/><path d="M2978.01,2834.77c-25.336,21.035 -63.359,59.058 -63.359,59.058c-0,-0 1.494,1.276 4.119,3.609c-20.488,-9.333 -42.616,-18.665 -66.495,-27.816c-183.991,-70.468 -144.838,-15.676 -285.739,-109.585c-52.751,-35.18 -92.888,-70.87 -122.454,-101.784c22.53,-15.348 20.67,-41.559 20.67,-106.778c12.687,-94.894 405.532,126.901 462.585,164.925c57.017,38.023 76.047,97.372 50.673,118.371" style="fill:#d0b8a8;fill-rule:nonzero;"/><path d="M5727.49,6189.37c-47.684,50.491 -62.412,116.402 -126.027,107.289c-88.732,-12.687 -475.271,-190.116 -481.614,-240.79c-6.343,-50.709 31.68,-114.069 31.68,-114.069c-0,0 -10.9,-8.749 -23.66,-25.3c72.328,-1.422 155.592,4.01 240.57,24.024c205.172,48.267 284.791,116.913 359.051,248.846" style="fill:#d0b8a8;fill-rule:nonzero;"/><path d="M5172.35,6042.32c-0,-0 -85.029,153.055 -174.313,229.582c-89.279,76.528 -127.543,212.577 -148.801,323.114c-21.257,110.54 8.502,174.312 216.824,242.338c208.325,68.022 335.872,-38.267 382.637,-85.033c46.766,-46.765 144.55,-442.155 148.801,-493.174c4.254,-51.02 -372.649,-230.381 -425.148,-216.827" style="fill:#b17458;fill-rule:nonzero;"/><path d="M4129.35,3240.75c-0.736,25.771 -95.783,534.814 -23.262,731.656c25.902,82.882 56.98,67.341 56.98,67.341l77.701,-88.062c0,0 26.828,-545.926 77.702,-671.041c50.874,-125.116 -186.959,-115.579 -189.121,-39.894" style="fill:#d0b8a8;fill-rule:nonzero;"/><path d="M8331.08,10775.6c-87.129,-3.281 -150.015,27.998 -230.618,108.601c-61.975,61.975 -127.485,114.033 -171.633,146.88c-2.151,-11.411 -4.411,-21.873 -6.671,-30.951c-22.311,-89.17 -80.239,-169.409 -259.528,-205.208c-68.645,-13.708 -123.803,0.109 -165.763,22.383c26.357,-38.715 63.578,-79.217 103.133,-117.678c27.341,-26.576 55.813,-52.168 82.608,-75.427c22.238,-19.358 43.346,-37.075 61.683,-52.532c0.036,-0 0.036,-0.037 0.073,-0.037c23.076,-19.43 41.814,-35.179 52.97,-45.751c9.114,-8.64 17.644,-21.655 25.555,-37.294c38.424,-76.047 61.61,-214.213 61.61,-214.213c22.639,-103.388 398.751,-116.804 449.388,-0c25.336,101.528 11.957,358.358 -2.807,501.227" style="fill:#abb498;fill-rule:nonzero;"/><path d="M4515.31,3612.93c0,-0 124.321,136.73 492.107,43.488c10.36,5.18 -56.98,409.228 -82.882,466.208c-25.898,56.98 -222.744,129.501 -222.744,129.501l-186.481,-186.481c-25.901,-25.902 0,-452.716 0,-452.716" style="fill:#d0b8a8;fill-rule:nonzero;"/><path d="M7698.84,7137.81c0,0 -159.887,-125.903 -138.626,-242.83c21.261,-116.932 230.312,-109.845 230.312,-109.845c0,0 92.127,127.562 85.04,138.192c-7.087,10.627 -176.726,214.483 -176.726,214.483" style="fill:#e7c19e;fill-rule:nonzero;"/><path d="M9500.67,7137.81c0,0 159.887,-125.903 138.626,-242.83c-21.261,-116.932 -230.315,-109.845 -230.315,-109.845c-0,0 -92.123,127.562 -85.037,138.192c7.087,10.627 176.726,214.483 176.726,214.483" style="fill:#e7c19e;fill-rule:nonzero;"/><path d="M7962,7032.01c0,0 -135.323,124.934 -166.565,130.11c-31.243,5.213 -150.963,-25.993 -130.147,-83.264c20.816,-57.272 15.603,-275.896 0,-364.41c-15.603,-88.478 -62.485,-124.933 -119.72,-187.418c-437.284,-510.123 -577.857,-812.085 -593.46,-895.349c-15.603,-83.301 406.042,-619.49 406.042,-619.49c229.05,-72.874 359.197,197.808 327.954,255.08c-4.484,8.202 -13.306,20.306 -25.154,35.07c-71.015,88.514 -250.741,272.068 -250.741,272.068c-0,0.037 0.036,0.073 0.036,0.109c2.078,4.302 68.427,143.089 119.684,310.055c52.058,169.628 275.896,538.376 348.807,621.641c72.874,83.301 83.264,525.798 83.264,525.798" style="fill:#fedbb6;fill-rule:nonzero;"/><path d="M10247.4,5631.68c-15.64,83.265 -156.176,385.226 -593.46,895.349c-57.272,62.485 -104.118,98.941 -119.721,187.418c-15.603,88.515 -20.816,307.139 0,364.41c20.817,57.272 -98.904,88.478 -130.146,83.265c-31.242,-5.177 -166.565,-130.11 -166.565,-130.11c-0,-0 7.837,-333.751 57.636,-476.11l0.036,-0.036c7.51,-21.546 16.004,-38.68 25.592,-49.653c72.875,-83.264 296.748,-452.012 348.807,-621.64c52.059,-169.628 119.72,-310.164 119.72,-310.164c0,-0 -69.12,-70.578 -138.568,-145.312c-61.208,-65.875 -122.673,-134.995 -137.328,-161.826c-31.242,-57.272 98.904,-327.955 327.955,-255.08c-0,-0 421.645,536.188 406.042,619.489" style="fill:#fedbb6;fill-rule:nonzero;"/><path d="M10489,10776.2c-35.727,2.042 -73.531,6.234 -113.122,13.197c-122.345,21.509 -189.824,122.783 -226.972,231.202c-17.244,-8.349 -32.883,-16.187 -45.278,-22.712c-64.053,-33.831 -236.232,-102.295 -236.232,-102.295c-108.784,-17.717 -241.482,-96.242 -324.491,-151.655c0.546,-95.368 -27.998,-274.729 -27.998,-274.729c64.599,-169.117 400.136,-242.612 453.07,-124.97c19.029,42.289 68.427,104.336 132.151,168.425c19.577,19.723 40.502,39.627 62.303,59.204c22.201,19.941 45.277,39.518 68.791,58.256c23.66,18.847 47.721,36.82 71.745,53.334l0.036,0c64.709,44.622 128.834,78.817 182.606,91.868c1.13,0.292 2.297,0.584 3.391,0.875" style="fill:#abb498;fill-rule:nonzero;"/><path d="M7900.1,6586.37c-0,-0 -67.983,117.514 -57.509,194.322c10.474,76.809 21.042,332.585 -20.947,357.127c-41.99,24.538 163.179,-116.232 163.179,-116.232l-84.723,-435.217Z" style="fill:#e7c19e;fill-rule:nonzero;"/><path d="M10010.7,10375.4c-0,-0 -61.829,61.063 -177.758,94.092c-115.928,33.029 -309.106,21.071 -355.478,-18.665c-46.371,-39.737 7.729,-253.95 -23.186,-370.498c-20.816,-66.969 -248.189,-878.799 -459.23,-1598.5l-0,-0.037c-180.492,-615.589 -349.026,-1163.81 -366.16,-1121.05c-10.864,27.086 -46.517,261.933 -91.54,582.013l-0,0.036c-109.075,775.52 -273.162,2051.28 -273.162,2084.09c0,46.371 77.25,185.449 77.25,225.003c-0,39.555 -100.435,130.475 -247.279,123.512c-146.843,-6.963 -193.214,-47.137 -218.223,-123.512c52.241,-138.166 0,-3521.64 0,-3521.64c177.102,-407.574 1388.78,-264.485 1465.44,-5.76c76.702,258.725 669.324,3650.92 669.324,3650.92" style="fill:#b17458;fill-rule:nonzero;"/><path d="M7920.37,6521.85c-0,0 -54.315,156.409 -44.418,208.395c9.902,23.102 200.513,74.975 726.134,72.142c525.623,-2.829 739.337,-77.92 739.337,-77.92c-0,-0 -36.875,-144.146 -57.177,-202.617c-0,0 -549.593,-300.813 -1363.88,0" style="fill:#dfd3c3;fill-rule:nonzero;"/><path d="M8331.08,10775.6c-6.198,59.86 -12.65,99.706 -16.624,99.706c-13.379,0 -35.69,0 -66.896,22.275c-29.091,20.816 -236.451,212.098 -300.467,259.527c-5.176,-44.002 -11.41,-89.9 -18.264,-126.027c44.148,-32.847 109.658,-84.905 171.633,-146.88c80.603,-80.603 143.489,-111.882 230.618,-108.601" style="fill:#dfd3c3;fill-rule:nonzero;"/><path d="M7984.57,10604.8c-0,-0 -128.251,-96.133 -240.206,-33.211c23.076,-19.431 41.815,-35.18 52.97,-45.752c9.114,-8.64 17.645,-21.654 25.555,-37.294c2.735,-1.458 113.669,-61.282 197.334,37.294c17.827,41.815 -35.653,78.963 -35.653,78.963" style="fill:#dfd3c3;fill-rule:nonzero;"/><path d="M7922.15,10699.1c0,-0 -53.517,82.608 -129.308,38.023c-45.606,-26.831 -131.604,-35.143 -192.85,-37.476c27.342,-26.576 55.814,-52.168 82.609,-75.427c190.626,-3.645 239.549,74.88 239.549,74.88" style="fill:#dfd3c3;fill-rule:nonzero;"/><path d="M7947.09,11157.1c-4.667,3.463 -8.531,6.124 -11.557,7.947c-44.585,26.758 -115.929,31.206 -231.821,40.137c-115.929,8.896 -271.958,-31.206 -276.406,-75.791c-4.448,-44.621 -8.895,-133.755 40.138,-258.579c6.744,-17.134 16.842,-35.107 29.419,-53.517c41.961,-22.274 97.118,-36.091 165.764,-22.384c179.288,35.8 237.216,116.038 259.527,205.209c2.26,9.077 4.52,19.54 6.671,30.951c6.854,36.127 13.088,82.025 18.265,126.027" style="fill:#dfd3c3;fill-rule:nonzero;"/><path d="M10609.2,11129.4c0,-0 -205.901,97.227 -323.543,77.031c-62.485,-13.708 -118.845,-33.394 -168.571,-55.304c6.708,-41.413 16.806,-86.545 31.863,-130.474c37.148,-108.419 104.627,-209.693 226.972,-231.201c39.591,-6.963 77.395,-11.156 113.122,-13.197c172.398,45.97 120.157,353.145 120.157,353.145" style="fill:#dfd3c3;fill-rule:nonzero;"/><path d="M10148.9,11020.6c-15.057,43.929 -25.155,89.061 -31.863,130.474c-151.655,-66.677 -241.664,-153.733 -254.933,-153.186c-17.645,0.729 -47.065,5.176 -176.482,-31.717c-129.417,-36.856 -164.706,-116.038 -147.062,-176.773c2.953,-10.244 4.266,-26.102 4.339,-45.46c83.009,55.413 215.707,133.938 324.491,151.655c-0,0 172.179,68.464 236.232,102.295c12.395,6.525 28.034,14.363 45.278,22.712" style="fill:#dfd3c3;fill-rule:nonzero;"/><path d="M10162.5,10571.9c-129.089,0.656 -157.561,85.488 -214.942,68.172c-64.089,-19.322 -61.865,-35.253 -61.865,-35.253c37.112,-91.649 142.031,-99.123 214.505,-92.123c19.576,19.722 40.502,39.627 62.302,59.204" style="fill:#dfd3c3;fill-rule:nonzero;"/><path d="M10303,10683.5c-95.186,3.172 -135.834,79.474 -167.332,75.828c-36.018,-4.156 -100.07,-27.852 -60.042,-72.146c47.21,-45.423 107.034,-56.98 155.629,-57.016c23.66,18.847 47.72,36.82 71.745,53.334" style="fill:#dfd3c3;fill-rule:nonzero;"/><path d="M12795.8,2150.3c-0,-0 53.528,-116.563 137.452,-102.575c83.924,13.988 18.837,293.737 -137.452,363.677c-156.289,69.936 -0,-261.102 -0,-261.102" style="fill:#feca6d;fill-rule:nonzero;"/><path d="M12813.5,2178.5c0,-0 35.457,-77.213 91.052,-67.946c55.591,9.263 12.475,194.574 -91.052,240.902c-103.526,46.328 0,-172.956 0,-172.956" style="fill:#efb85f;fill-rule:nonzero;"/><path d="M11829.9,2293.11c0,-0 -113.632,-128.82 -164.917,-35.57c-51.29,93.25 107.266,300.952 235.47,278.696c128.207,-22.257 -70.553,-243.126 -70.553,-243.126" style="fill:#feca6d;fill-rule:nonzero;"/><path d="M12992.7,3150.18c-261.35,71.781 -657.002,293.577 -711.977,317.164c-66.787,28.618 -124.022,42.908 -248.008,-100.144c-62.083,-71.671 -138.567,-103.789 -199.412,-117.97c105.466,-33.247 261.642,-82.28 269.99,-121.105c9.333,-66.532 -32.627,-450.956 -32.627,-450.956l540.854,-46.626c0,-0 -27.961,307.721 -9.332,405.641c16.186,84.868 242.466,106.669 390.512,113.996" style="fill:#efb85f;fill-rule:nonzero;"/><path d="M11838.1,2311.86c0,0 -101.241,-77.989 -125.487,-2.617c-24.25,75.372 120.97,204.607 211.457,170.193c90.479,-34.415 -85.97,-167.576 -85.97,-167.576" style="fill:#efb85f;fill-rule:nonzero;"/><path d="M11829.9,2293.11c0,-0 38.545,256.549 148.673,362.295c110.129,105.751 346.904,221.384 435.007,215.879c88.102,-5.508 335.89,-297.346 357.917,-357.917c22.026,-60.571 49.557,-357.917 49.557,-357.917c-223.399,-40.123 -310.838,-190.532 -396.461,-418.488c-62.394,291.287 -304.142,470.532 -594.693,556.148" style="fill:#feca6d;fill-rule:nonzero;"/><path d="M14286,9581.31c-11.01,76.958 -241.883,21.983 -527.731,76.958c-285.848,54.975 -263.866,120.923 -362.843,87.967c-98.94,-32.992 -120.923,-329.85 -76.957,-461.782c44.002,-131.933 -98.941,-153.916 -237.107,-362.806c-138.167,-208.891 -59.751,-703.666 -250.013,-1033.48c-190.261,-329.85 -381.434,-1055.5 -403.417,-1198.4c-21.983,-142.943 -98.94,-241.883 -113.304,-94.42c-14.327,147.426 102.294,413.26 102.294,853.024c0,51.511 -0.437,111.809 -1.057,178.632c-4.703,503.634 -19.066,1379.84 78.015,1690.44c109.95,351.833 32.992,417.781 -98.94,439.764c-384.789,120.959 -593.716,11.009 -626.672,-0c-32.992,-10.974 98.467,-153.916 98.467,-153.916c-0,0 -164.451,-32.992 -296.202,-186.908c-131.75,-153.915 70.907,-483.765 70.907,-483.765c-0,-0 -257.997,-1264.35 -357.447,-2073.16c-99.451,-808.803 152.42,-1247.58 152.42,-1247.58c338.818,-319.242 1613.34,-109.221 1753.18,-31.17c200.943,155.337 337.761,845.186 480.704,1493.84c142.942,648.691 219.9,1000.52 384.825,1759.13c164.888,758.605 241.846,670.674 230.873,747.631" style="fill:#dfd3c3;fill-rule:nonzero;"/><path d="M14533.6,3918.92c-86.436,103.789 -233.134,265.47 -388.106,452.742c-132.844,160.551 -235.284,290.442 -332.548,354.312c-0.036,-0 -0.036,0.036 -0.073,0.036c-73.421,48.231 -143.89,58.84 -222.233,16.661c-181.84,-97.92 -377.643,-643.441 -382.31,-573.483c-1.093,16.369 -12.431,51.658 -29.128,97.628l0,0.036c-54.61,150.307 -166.711,414.537 -166.711,503.78c0,116.585 69.958,452.268 107.252,545.521c13.051,32.628 16.405,60.115 12.395,83.848c-7.327,44.148 -39.919,75.39 -82.353,102.659c-65.255,41.96 -568.816,181.84 -974.457,135.214c-405.642,-46.627 -578.149,-125.881 -601.481,-195.84c-23.295,-69.921 83.921,-386.976 55.959,-499.332c-27.961,-112.356 -181.913,-633.561 -153.842,-843.472c24.826,-185.924 258.032,-675.267 381.69,-807.382c15.967,-17.061 30.076,-28.144 41.705,-31.862c10.426,-3.354 21.837,-6.963 33.94,-10.754c60.844,14.181 137.328,46.298 199.412,117.97c123.985,143.052 181.221,128.761 248.007,100.143c54.975,-23.586 450.628,-245.382 711.978,-317.163c22.784,1.13 43.746,1.932 61.755,2.552c38.935,1.349 81.734,10.426 124.751,25.92c106.305,38.242 213.776,115.6 266.892,211.879c74.624,135.214 181.84,610.777 256.465,550.188c54.391,-44.221 252.6,-336.376 370.425,-498.567c26.466,134.157 86.326,260.694 226.352,354.021c109.586,73.057 188.694,107.179 234.264,122.745" style="fill:#b17458;fill-rule:nonzero;"/><path d="M13189.6,5580.71c-14.108,10.681 -32.117,22.201 -53.662,34.158c-69.63,38.643 -175.935,82.098 -304.587,118.991c-38.57,11.083 -79.218,21.582 -121.47,31.133c-132.115,30.003 -280.161,51.221 -432.253,54.21c-43.893,0.911 -88.15,0.255 -132.443,-2.115c-1.896,-0.109 -3.828,-0.218 -5.724,-0.328c-186.689,-10.681 -336.448,-41.741 -448.987,-76.775c-46.298,-14.4 -86.254,-29.456 -119.939,-44.075c-87.384,-37.877 -132.187,-72.546 -134.12,-84.03c-4.447,-26.722 37.404,-169.846 37.404,-169.846c9.405,28.216 43.017,57.891 106.377,86.363c34.779,15.639 78.525,30.878 132.152,45.314c91.029,24.498 210.531,46.627 362.951,64.162c23.004,2.661 46.335,4.703 69.886,6.161c43.6,2.807 87.967,3.682 132.443,3.026c136.416,-2.005 274,-18.629 394.814,-40.32c44.33,-7.984 86.399,-16.624 125.334,-25.446c130.802,-29.784 226.024,-61.938 251.981,-78.635c11.337,-7.291 21.946,-14.837 31.607,-22.857c26.43,-22.02 45.387,-47.466 50.746,-79.802c62.703,32.847 66.385,171.815 57.49,180.711" style="fill:#d0b8a8;fill-rule:nonzero;"/><path d="M11712.4,5573.71l-21.874,166.274c-46.298,-14.4 -86.254,-29.456 -119.939,-44.074c-0.109,-54.72 4.63,-117.096 9.661,-167.514c34.779,15.64 78.525,30.878 132.152,45.314" style="fill:#935b46;fill-rule:nonzero;"/><path d="M12277.6,5647.06l-0,172.144c-43.893,0.911 -88.15,0.255 -132.443,-2.115l-0,-173.054c43.601,2.807 87.967,3.682 132.443,3.025" style="fill:#935b46;fill-rule:nonzero;"/><path d="M12831.4,5733.86c-38.57,11.082 -79.218,21.581 -121.47,31.133c-11.848,-48.96 -26.685,-111.044 -37.44,-158.254c44.33,-7.984 86.4,-16.624 125.334,-25.446l33.576,152.567Z" style="fill:#935b46;fill-rule:nonzero;"/><path d="M13189.6,5580.71c-14.108,10.681 -32.117,22.201 -53.662,34.158c-8.823,-43.127 -31.425,-92.524 -54.574,-135.067c26.43,-22.02 45.387,-47.466 50.746,-79.802c62.703,32.847 66.385,171.815 57.49,180.711" style="fill:#935b46;fill-rule:nonzero;"/><path d="M14611.8,3809.95c-138.641,-46.116 -237.873,-134.375 -354.421,-246.913c-64.527,-62.303 -88.697,-152.202 -96.352,-229.16c38.46,-17.17 135.687,11.666 282.858,131.24c149.031,121.106 186.398,288.692 167.915,344.833" style="fill:#935b46;fill-rule:nonzero;"/><path d="M14180.7,3433.21c0,0 121.966,-144.313 136.326,-220.884c14.356,-76.571 -62.215,-287.139 -90.928,-368.493c-28.716,-81.358 84.191,-76.571 116.272,-14.356c32.081,62.211 70.366,153.139 118.222,153.139c47.859,-0 220.14,-224.924 411.565,-224.924c28.712,19.143 -4.787,90.928 -9.573,129.214c-4.783,38.281 -5.706,33.495 45.004,100.497c50.71,66.998 21.075,229.71 0,248.853c-21.075,19.142 -314.178,138.753 -374.009,196.954c-59.827,58.198 -145.005,286.395 -145.005,286.395c-0,0 -229.339,-36.798 -207.874,-286.395" style="fill:#feca6d;fill-rule:nonzero;"/><path d="M14611.8,3809.95c-0.037,0.073 -0.037,0.146 -0.073,0.219c-6.234,18.738 -34.524,56.397 -78.124,108.747c-45.57,-15.566 -124.679,-49.689 -234.264,-122.746c-140.029,-93.326 -199.89,-219.863 -226.353,-354.02c43.747,-60.224 76.375,-102.513 86.469,-107.58c0.514,-0.255 1.025,-0.511 1.572,-0.693c7.655,76.958 31.825,166.857 96.352,229.16c116.548,112.538 215.78,200.797 354.421,246.913" style="fill:#c58870;fill-rule:nonzero;"/><path d="M13179.2,3178.65c-52.86,22.967 -137.838,54.793 -216.509,98.175c-181.221,99.888 -649.383,304.987 -739.611,324.054c-90.227,19.066 -85.452,28.617 -190.371,-109.695c-67.552,-89.061 -164.743,-162.264 -275.057,-199.339c15.967,-17.061 30.076,-28.144 41.705,-31.862c10.426,-3.354 21.837,-6.963 33.94,-10.755c60.844,14.181 137.328,46.299 199.412,117.97c123.985,143.052 181.221,128.762 248.007,100.144c54.975,-23.587 450.628,-245.383 711.978,-317.164c22.784,1.131 43.746,1.933 61.755,2.552c38.935,1.349 81.734,10.427 124.751,25.92" style="fill:#c58870;fill-rule:nonzero;"/><path d="M2902,3242.34c0,0 -73.327,436.95 -136.191,528.832c-62.867,91.879 -91.882,72.536 -116.059,43.521c-24.178,-29.015 200.811,-447.973 252.25,-572.353" style="fill:#b59e8d;fill-rule:nonzero;"/><path d="M5423.31,4999.83c-2.661,81.843 2.188,106.013 -41.34,154.39c-43.528,48.34 -122.71,229.961 -122.71,229.961c19.03,-120.412 -50.673,-316.872 31.68,-354.858c78.671,-36.31 -154.681,-181.768 -175.862,-327.554l-1.567,-20.633c-0,-0 32.956,-305.498 5.614,-503.744c11.374,0 142.979,362.661 140.062,517.414c-2.953,154.754 166.785,223.181 164.123,305.024" style="fill:#b59e8d;fill-rule:nonzero;"/><path d="M4170.05,7853.31c-0,0 -74.796,-1094.64 -40.699,-1216.25c34.097,-121.608 233.88,356.142 364.176,790.459c130.296,434.313 151.823,860.33 151.823,860.33l-448.608,-1506.51l-26.692,1071.97Z" style="fill:#353431;fill-rule:nonzero;"/><path d="M4699.7,2119.07c-0,0 -22.712,4.083 -54.829,0.183c-22.749,-2.771 -50.236,-9.552 -77.724,-24.681c-66.312,-36.455 -76.228,-119.319 -116.001,-96.133c-39.773,23.222 -245.273,112.721 -319.278,92.816c-74.042,-19.868 -257.522,-4.849 -290.551,108.054c-33.029,112.903 -95.076,156.358 -96.206,150.999l-0.037,0.037c-11.119,-53.772 -15.092,-90.52 -15.092,-90.52l246.439,-353.582l384.898,-96.608l224.858,-56.433l113.523,365.868Z" style="fill:#995e47;fill-rule:nonzero;"/><path d="M3729.99,2347.32c10.835,40.4 45.012,-344.082 324.976,-312.475c316.227,35.697 394.074,-187.804 506.211,-17.269c171.724,261.153 168.739,-182.715 324.976,-101.474c156.238,81.245 168.739,-318.724 312.476,-374.971c143.74,-56.244 174.986,-287.478 -318.724,-137.489c-256.232,37.499 -349.974,-324.976 -824.939,-149.989c-224.982,106.243 -213.651,137.489 -213.651,137.489c-0,-0 -455.05,-98.004 -461.298,385.342c-6.249,433.348 349.973,570.836 349.973,570.836" style="fill:#4a4948;fill-rule:nonzero;"/><path d="M9867.86,4922.36c-16.368,83.811 -56.105,189.533 -150.999,259.892c-106.45,78.963 -198.573,139.552 -255.808,187.855c-48.304,-50.308 -91.467,-102.148 -88.296,-76.811c3.938,31.388 -21.727,186.944 -54.683,346.364c-10.754,52.131 -22.274,104.627 -33.831,153.369c-2.187,9.259 -4.374,18.227 -6.525,26.904c-15.713,63.396 -30.076,111.226 -42.544,150.707c-20.67,65.474 -35.982,107.909 -43.127,159.821c-0.547,3.901 -1.057,7.838 -1.495,11.885c-10.426,94.238 93.691,379.502 93.691,379.502c0,0 -41.632,46.846 -640.634,62.449c-599.001,15.639 -723.242,-62.449 -723.242,-62.449c0,0 41.633,-140.572 31.243,-224.347c-5.797,-46.627 19.066,-113.778 33.211,-202.766c6.744,-42.106 11.082,-89.098 8.64,-141.12c-1.641,-35.544 -6.453,-73.458 -15.822,-113.741c-15.749,-34.122 -29.164,-70.542 -40.611,-108.164c-17.827,-58.511 -30.842,-119.939 -40.32,-179.981c-32.737,-207.614 -23.186,-398.97 -23.186,-398.97c-0,0 -66.604,31.06 -101.347,89.098c-76.848,-61.063 -206.557,-212.974 -290.66,-325.293c-38.497,-51.476 -68.682,-115.783 -91.576,-177.174c210.786,-143.125 463.86,-375.967 582.487,-367.509c130.146,26.029 260.803,43.455 260.803,43.455c0,0 645.847,44.403 759.078,50.272c154.207,-25.774 375.237,-57.271 448.112,-20.852c72.875,36.455 124.933,229.05 275.896,369.623c51.22,47.684 104.263,82.207 151.545,107.981" style="fill:#abb498;fill-rule:nonzero;"/><path d="M8408.14,4048.68l0,487.75l244.063,181.644l226.866,-195.1l0,-585.298l-470.929,111.004Z" style="fill:#e7c19e;fill-rule:nonzero;"/><path d="M9029.9,3880.19c-0,0 289.821,-74.533 273.004,-279.312c-6.959,-148.479 -232.101,-27.323 -232.101,0c-0,27.324 -40.903,279.312 -40.903,279.312" style="fill:#fedbb6;fill-rule:nonzero;"/><path d="M8017.94,3528.39c0,-0 -84.095,173.82 87.457,278.097c171.557,104.278 242.193,0 242.193,0l-131.185,-326.288c-0,-0 -117.734,-31.443 -198.465,48.191" style="fill:#fedbb6;fill-rule:nonzero;"/><path d="M8198.02,3771.71c0,-0 -140.427,-38.494 -116.202,-153.445c24.225,-114.956 151.414,-40.955 151.414,-40.955c0,0 99.575,214.509 -35.212,194.4" style="fill:#e7c19e;fill-rule:nonzero;"/><path d="M9075.18,3795.28c0,-0 140.427,-38.494 116.203,-153.446c-24.225,-114.955 -151.419,-40.954 -151.419,-40.954c0,0 -99.571,214.508 35.216,194.4" style="fill:#e7c19e;fill-rule:nonzero;"/><path d="M8157.08,3536.89c-0,0 -0,601.543 460.758,669.802c191.982,25.599 494.885,-302.902 529.014,-712.465c25.599,-388.23 -989.772,-200.513 -989.772,-200.513l-0,243.176Z" style="fill:#fedbb6;fill-rule:nonzero;"/><path d="M9602.1,6169.32c-68.719,114.507 -303.237,382.346 -306.919,386.539c7.509,-21.546 16.003,-38.68 25.591,-49.653c72.875,-83.264 296.749,-452.012 348.807,-621.64c52.059,-169.628 119.72,-310.164 119.72,-310.164c0,-0 -69.119,-70.578 -138.567,-145.312l6.197,-12.067l59.933,0c0,0 81.442,88.405 116.075,134.703c28.836,46.299 -161.608,502.176 -230.837,617.594" style="fill:#e7c19e;fill-rule:nonzero;"/><path d="M8652.22,4637.35l-119.756,92.415c-158.764,-116.841 -299.228,-314.43 -299.228,-314.43c37.003,-67.297 84.103,-94.201 141.266,-87.457c57.199,6.708 277.718,309.472 277.718,309.472" style="fill:#dfd3c3;fill-rule:nonzero;"/><path d="M7660.95,5302.34c-71.016,88.514 -250.742,272.067 -250.742,272.067c-24.352,-53.881 178.305,-223.764 147.5,-248.335c-99.998,-50.199 -189.825,-216.072 -189.825,-216.072l284.718,138.057l8.349,54.283Z" style="fill:#e7c19e;fill-rule:nonzero;"/><path d="M9074.15,4472.5c-198.464,222.014 -390.184,346.473 -450.737,312.861c-30.44,-14.4 -61.026,-33.575 -90.956,-55.594l119.756,-92.415c0,-0 267.22,-211.916 287.416,-222.015c43.71,-33.648 151.364,43.711 134.521,57.163" style="fill:#dfd3c3;fill-rule:nonzero;"/><path d="M7772.18,5241.86c-2.917,4.812 -5.578,9.807 -7.984,14.983c-31.243,67.698 -62.485,93.728 -161.389,41.669c-364.373,-203.021 -353.984,-468.527 -348.77,-478.917c41.668,-19.394 87.675,-47.428 135.906,-80.202c22.894,61.391 53.079,125.699 91.576,177.174c84.103,112.32 213.812,264.23 290.661,325.293" style="fill:#dfd3c3;fill-rule:nonzero;"/><path d="M9638.23,5479c-15.603,13.962 -26.029,-8.713 -88.478,-34.742c-24.425,-10.171 -57.636,-41.851 -88.696,-74.151c57.235,-48.304 149.358,-108.893 255.808,-187.855c94.894,-70.36 134.631,-176.081 150.999,-259.892c92.087,50.236 162.483,67.406 155.593,84.613c20.816,176.992 -369.587,458.101 -385.226,472.027" style="fill:#dfd3c3;fill-rule:nonzero;"/><path d="M8699.71,5013.5c0,39.106 -31.701,70.804 -70.804,70.804c-39.106,0 -70.804,-31.698 -70.804,-70.804c0,-39.106 31.698,-70.804 70.804,-70.804c39.103,0 70.804,31.698 70.804,70.804" style="fill:#dfd3c3;fill-rule:nonzero;"/><path d="M8699.71,5412.45c0,39.106 -31.701,70.804 -70.804,70.804c-39.106,0 -70.804,-31.698 -70.804,-70.804c0,-39.105 31.698,-70.804 70.804,-70.804c39.103,0 70.804,31.699 70.804,70.804" style="fill:#dfd3c3;fill-rule:nonzero;"/><path d="M9318.08,5639.66c-10.754,52.132 -22.274,104.628 -33.831,153.369c-2.187,9.26 -4.374,18.228 -6.525,26.904c-235.686,21.618 -810.408,63.542 -1092.79,-10.426c-105.466,-27.597 -186.288,-54.1 -247.897,-77.796c-17.827,-58.512 -30.842,-119.939 -40.32,-179.982c82.499,41.232 192.704,88.405 288.217,102.477c180.2,26.576 630.791,48.048 780.988,30.878c93.472,-10.682 248.445,-31.352 352.161,-45.424" style="fill:#dfd3c3;fill-rule:nonzero;"/><path d="M9235.18,5970.64c-20.67,65.475 -35.982,107.909 -43.127,159.822c-132.625,29.711 -290.405,57.964 -414.937,58.912c-219.937,1.713 -568.853,0.984 -792.289,-94.639c6.744,-42.106 11.082,-89.097 8.64,-141.119c102.075,45.314 237.143,90.665 393.137,100.508c339,21.436 606.219,-12.869 689.338,-42.909c31.279,-11.301 93.654,-26.284 159.238,-40.575" style="fill:#dfd3c3;fill-rule:nonzero;"/><path d="M8995.08,8481.77c-180.492,-615.588 -349.026,-1163.81 -366.16,-1121.05c-10.864,27.087 -46.517,261.933 -91.54,582.013c0,0 12.833,-599.621 72.62,-699.072c59.787,-99.487 435.352,966.547 385.08,1238.1" style="fill:#9b5f47;fill-rule:nonzero;"/><path d="M8157.08,3536.89c-0,0 281.553,148.145 495.139,39.825c213.583,-108.325 347.794,-188.279 359.215,-108.325c11.422,79.955 106.717,208.078 147.587,85.478c40.874,-122.6 -178.997,-373.881 -178.997,-373.881c0,-0 -726.413,68.463 -822.944,356.903" style="fill:#e7c19e;fill-rule:nonzero;"/><path d="M7790.18,3003.6c0,-0 204.782,76.793 366.9,-72.529c162.118,-149.318 273.042,-298.206 520.484,-272.822c247.442,25.38 405.295,153.368 430.894,332.551c4.265,12.8 119.454,-12.796 230.377,179.183c72.525,127.988 -63.043,383.965 -208.57,430.894c-43.141,-8.531 -73.006,-34.13 -94.336,-204.782c-17.065,-140.788 -358.365,179.183 -695.401,157.853c-337.035,-21.331 -349.835,-72.529 -349.835,-72.529l115.193,-42.66c-0,-0 -140.788,-29.864 -162.122,-85.328c0,-4.262 81.063,-29.861 81.063,-29.861l-98.128,-75.233c0,-0 68.263,11.239 98.128,-57.02c12.796,-8.535 -183.452,-29.865 -234.647,-187.717" style="fill:#b17458;fill-rule:nonzero;"/><path d="M12831.4,7888.17c-190.262,-329.85 -381.435,-1055.5 -403.417,-1198.4c-21.983,-142.943 -98.941,-241.883 -113.304,-94.42c-14.327,147.426 102.294,413.26 102.294,853.024c0,51.511 -0.437,111.809 -1.057,178.632c-0,0 -42.106,-304.878 -101.237,-625.979c-59.131,-321.1 -109.513,-504.508 22.712,-526.126c132.224,-21.619 239.258,249.101 302.216,570.201c62.959,321.064 219.9,584.347 191.793,843.072" style="fill:#d0b8a8;fill-rule:nonzero;"/><path d="M13812.9,4726.01c-73.421,48.227 -143.89,58.839 -222.233,16.66c-181.84,-97.92 -377.643,-643.441 -382.309,-573.483c-1.094,16.369 -12.432,51.658 -29.128,97.628l43.856,-241.117c-0,0 145.931,303.092 215.233,437.321c69.266,134.23 147.317,348.406 374.581,262.991" style="fill:#935b46;fill-rule:nonzero;"/></g></svg>