<?xml version="1.0" encoding="UTF-8"?>
<svg id="Layer_0_xA0_Image" xmlns="http://www.w3.org/2000/svg" version="1.1" viewBox="0 0 4000 3000">
  <!-- Generator: Adobe Illustrator 29.5.1, SVG Export Plug-In . SVG Version: 2.1.0 Build 141)  -->
  <defs>
    <style>
      .st0 {
        fill: #805535;
      }

      .st1 {
        fill: #342831;
      }

      .st2 {
        fill: #080605;
      }

      .st3 {
        fill: #825636;
      }

      .st4 {
        fill: #b3dbdf;
      }

      .st5 {
        fill: #fff6ea;
      }

      .st6 {
        fill: #dc8d62;
      }

      .st7 {
        fill: #d59869;
      }

      .st8 {
        fill: #dd9546;
      }

      .st9 {
        fill: #de9546;
      }

      .st10 {
        fill: #cbbfb0;
      }

      .st11 {
        fill: #e3f3f6;
      }

      .st12 {
        fill: #f6b889;
      }

      .st13 {
        fill: #c2895a;
      }

      .st14 {
        fill: #080706;
      }

      .st15 {
        fill: #b2dbdf;
      }
    </style>
  </defs>
  <rect class="st5" width="4000" height="3000"/>
  <g>
    <path class="st9" d="M0,2318.5c4.7.3,8.4-9.1,10.3-12.6,47.9-87.4,65.8-182.2,123.1-266.6,70.7-104.2,219.2-210.1,326.4-277.2,46.6-29.2,99.8-50.4,144.4-79.5,26.4-17.2,58.9-54,90.5-57.4,21.3-2.3,53.8,8.1,76.1,11.4,48,7.1,87.6,12.6,135,24.9,132,34.1,365.1,118.7,452.4,225.3,1.5,1.8,8.6,10.4,7,12-38.4-17-74.3-42.7-114-56.9-6.4-2.3-32.2-11.4-22.1,2.1,75.4,40,146.5,77.8,215.8,128,99.5,72.1,248.4,175.5,290.1,293.6,42.2,119.5,56.7,271.1,80.6,397.1,21.3,112.4,48.8,223.7,63.3,337.4h-733.6c-5-18.8-8.8-38-11.7-57.3-34.7-237.9,38.1-494.9,224.6-652.2,95.7-80.7,208.4-114.2,330.8-72,3.4-3-17.2-14.8-19.2-15.7-101-47.9-233,4.7-313.5,69.8-181.5,146.5-264.8,396.1-242.9,625.5-11.2-14.5-20.5-31.8-29-47.9-32.7-62.3-61.1-135-70.7-205.1-1.7-12.1,1.8-24-3.8-36.2s-6.1,2.4-6.5,6.4c-1.5,15.9,2.1,35.6,4.3,51.7,12.8,91.2,50.5,185.9,108.6,257.2l13,75.9h-561.7c-25.5-65.4-41.5-138.1-53.3-207.5-10.8-63.2-15.9-127.3-18.7-191.2-.7-15,1.3-31.2,0-46-1.8-22.3-9.9-27.5-12-2.1-7,82.8,5.5,189.4,20.7,271.3,11,59.1,24.3,120,47.3,175.5H0v-103.9c6,1.1,3.9-3.1,4-6.9,7.5-222,30.3-418.5,86.5-633.1,2.5-9.6,17.9-55.9,17.5-60.6-.5-5.3-2.9-5.7-5.8-1.7-21.9,30.8-45.8,135.9-55.3,176.6-16.5,70.8-28.2,142.8-36.7,215.1-3.1,26.7-3,55-10.2,80.7v-347.8ZM1203.4,1834.8c5.9-5-22.3-12.2-24.3-12.7-72.1-18-148.8-26.3-221.6-42.3-106.2-23.2-209.1-56.7-313.8-84-2.6-.7-15.4-3.6-16-3s-.6,4.6,1.2,6.1c2.1,1.7,16.5,6.9,20.8,8.8,115,49.8,272.2,78.8,396.1,101.6,52.2,9.6,104.4,23.1,157.5,25.3ZM495.7,2874.1c-44.8-165-66.4-340.7-31.4-510,6.8-32.8,20.9-71.3,24.8-103.1.5-4.4,1.7-10.4-.4-14.4-10.9,14.8-16.5,36.1-22,54-47.7,153.7-39.5,320-6.4,476.1,5.2,24.3,15.6,73.3,29,92.9,1.7,2.6,2.3,5.5,6.4,4.6Z"/>
    <path class="st2" d="M0,2284.5c7.6-8.7,13.5-21.9,18.3-32.6,37.3-82.4,53.7-155.1,108-231.8,71.9-101.7,226.5-212.5,333.6-278,43.7-26.7,93.8-47,135.6-74.3,40.9-26.7,71.5-71,128.1-57.7,36.7-41.3,76.7-90,85.4-146.6,17-109.3-88.8-253.9-133.7-352.9-46-101.4-71.3-211.2-55.6-323.1-22.6-1.2-31.1,24.6-43.8,33.1-30.6,20.3-23.6-46.2-21.8-59.8,7.2-56.2,29.6-100.7,70.7-139.2,25-23.5,57.1-46.3,91-53.9-7.8-27.8-2.6-60.3,5-87.9,11.5-41.8,35.8-81.1,68.9-109,9.9-8.3,51-37.3,52.1-9.9.5,13.9-13.8,34.9-19,49-8.9,23.9-14.6,48.6-8,73.9,51.3-69.1,122.7-119.9,206.9-140.9,88.9-22.2,181.8-9.3,272.3-23.6,95.6-15,227.5-85.7,320-52.9,67.2,23.8,109.7,105.4,83.4,173.4,26.8-12.8,57.7-19.9,82.9,0,59.2,47-6.2,182.2-40.5,231.2-17.4,24.8-38.4,47.5-64.4,63.5l-2,3.9c17.4,44.3,32.6,90.1,38.4,137.6,23.3,12.7,29.7,40.3,16,62.7-3.8,6.3-14.3,13.3-15.9,18.1-3.6,10.5-12.1,72.7-12.5,85.4,0,1.7,0,3.4,0,5,54.7-5.3,41.8,36.8-5.8,30.2-2.1,20.2-9.4,49.1-4.1,68.6,3.5,12.5,23.8,46.1,31.8,58.2,23.2,35.2,63.2,60.5,27.1,104.9-11.8,14.5-27.6,21.1-42.7,31.3-3.8,57.4-9.9,116.8-25.8,172.1-6.6,23.2-16.8,45.3-23.5,68.4-10.2,34.9-15.7,92.1-38.2,119.7-38,46.7-153.6,6.8-207.7,12.2-23.3,2.3-34.9,17.8-44.8,37.2-13.8,27.3-21.6,60.1-29.8,89.5,15.9,18.2,34.7,31.6,46.6,53.2,3.1,5.7,7.1,19.3,9.8,22.1,2.7,2.9,14.9,8.7,19.7,12.2,124.7,91,299.6,200.6,345.7,353.9,36.1,119.9,50.7,252.2,74.1,375.7,15.4,81.1,34.8,161.7,48.7,243.1,5.6,33.1,12,66.7,12.6,100.3h-14c-14.6-113.7-42-225-63.3-337.4-23.9-126-38.4-277.7-80.6-397.1-41.7-118.1-190.6-221.5-290.1-293.6s-140.4-88-215.8-128c-10.1-13.5,15.7-4.4,22.1-2.1,39.6,14.2,75.6,39.9,114,56.9,1.6-1.6-5.5-10.2-7-12-87.3-106.6-320.4-191.1-452.4-225.3-47.5-12.3-87-17.8-135-24.9-22.3-3.3-54.8-13.7-76.1-11.4-31.6,3.4-64.2,40.2-90.5,57.4-44.5,29.1-97.8,50.3-144.4,79.5-107.2,67.1-255.7,173-326.4,277.2-57.3,84.5-75.3,179.3-123.1,266.6-1.9,3.5-5.7,13-10.3,12.6v-34ZM1665.4,479.4c-6.8-4.2,11.3-32.1,13.8-38.7,14-36.4,11.5-68.6-7-103-64.8-120.1-229.6-35.5-326-12.1-158.2,38.5-314-13-451.6,98.1-13.3,10.8-28.5,25.2-40.1,37.9-11,12.1-23.1,33.4-33,43-20.2,19.6-24.9-18.4-26-32-2.9-38,10-68.6,25.9-101.9-6.8,1.2-13.6,6.7-18.9,11.1-38.6,31.9-68.1,84.8-72.8,135.1-1.6,17,3.8,44.7-5.4,58.5-5.1,7.6-37.4,20.2-48.6,27.3-69,43.8-111.6,115.2-106.1,198.7l18.1-18.8c8.1-9.3,48-18.7,51.5-3.8-21.9,110.6,6.1,225.1,52,325.7,29.5,64.6,68.7,125.6,98,189.8,25.5,55.8,48,118.6,34.3,180.6,45.9.7,86.1-20.8,127.1-38,28.1,6.9,2.4,28.3-5.2,42,60.1-6.2,116.2-30.2,171-53.8,24.7-3,19.2,8.7,13.9,25.8,38-24.2,75.9-50.2,109-80.9,15.2-14.1,70.4-73.2,69.9-92.1-.2-7-22-5.3-14.9-20.8s23.3-16.3,30-22,27.2-28.4,29.9-36.1c4.1-12,.2-43.8,1.1-58.9,2.9-45.7,23.7-136.2,83-135.1,49.8,1,58.5,72.1,62.9,109.1,3.4,28.6-6.8,78,39.6,67.5,15.2-3.4,21-9.9,20.5-25.6-1.8-62.8-28.3-132.8-8.2-195.9,6.7-20.9,25.1-41.7,33-64.9,12.2-36.1,11.1-73.1,2.1-109.8-2.6-10.5-20.1-44.6-3.6-49.6,7.6-2.3,24.2.3,33.6-.4,87.9-7.2,161.7-144.7,168.7-223.1,6-67.1-39.5-87-92.4-50.4-6.3,4.4-21.3,22.2-29.1,17.4ZM1583.2,1702.9c42.1-12.9,44.2-82.1,55-119.9,6.6-23.2,16.7-45.4,23.5-68.4,20.6-69.1,31.7-164.4,27.4-236.4-3.1-51.9-20.6-107.7-18.1-160,2.5-51.2,18.9-101.6,22.1-152.8-14.2,3.3-34.7,47.7-48.8,23.8-14.5-24.5,11.3-70.7,27.8-89.8,5.4-6.2,18-14.6,21.2-18.8,1.7-2.3,1.7-3.1,1.7-5.8,0-11.4-7.3-37.5-10.5-49.7-7.1-27.6-18.1-54.1-25.4-81.5-1.1-1-24.6,8-29,8h-35c18.2,51,23.8,107.2,3.5,158.4-10.7,26.9-29.3,44.2-33.5,74.4-3.2,23-1.8,50.6,0,73.9,2.4,31.1,16.1,84,11.8,111.8-2.4,15.4-22.4,27.5-36.8,29.1-63.9,7-52-52.4-57-94.9-3.6-30.2-15-96-59.3-79.3-44.4,16.7-54.5,114.7-52.7,155.3,2.2,49.6,22.3,124.7,74.7,143.2,7.6,2.7,27.2,3.4,29.2,11,4.4,16.9-34.7,5.8-41.8,2.6-39.3-17.5-67.2-73-72-113.9-2.9-.8-3.3.7-5,1.9-5.7,4.2-14.5,17.6-22,24s-10.9,9-16.9,10.1c-1.7,5.2,2.7,3.2,4,5.4,3.3,5.3,4.3,10.4,4,16.6-1.8,42.6-104.6,128.7-139.3,153.5-13.1,9.3-53.8,38.7-67.6,38.5-8.5,0-11-2.8-11.1-11.1s4.2-11,3.2-17c-45.7,20.7-100.1,43.6-150.2,49.7-13.5,1.6-38.4,4.8-34.3-16.2,1.2-6.2,6.9-10,8.5-15.5-37,15.8-73.9,29.9-115,28.9-15.8,46.6-44.9,87.2-77.9,123,38,6.6,76.2,9.1,114,17,85.7,18,169.2,47.4,250.4,79.5,75.5,29.9,151.5,65.6,214.4,117.4,6.3-17.4,10.6-35.6,16.9-53,4.4-12.1,11.6-32.4,18-42.9,3.9-6.5,15.9-20.2,22.2-24.8,42.3-31.4,148.1,12.6,205.7-5.2ZM1705.2,1321.1c20.9-9.5,43-27.5,40-53-1.3-11.1-20.4-30.3-27.7-40.3-7.7-10.6-13.7-22.7-22.3-32.6,3.8,42,13,83.4,10,125.9Z"/>
    <path class="st14" d="M1129.4,3000l-13-75.9c-58-71.3-95.7-166-108.6-257.2-2.3-16-5.8-35.7-4.3-51.7.4-4,2.8-14.5,6.5-6.4,5.5,12.2,2.1,24.1,3.8,36.2,9.6,70.2,38,142.8,70.7,205.1,8.5,16.2,17.9,33.5,29,47.9-21.8-229.5,61.4-479,242.9-625.5,80.5-65,212.6-117.7,313.5-69.8,2,1,22.6,12.7,19.2,15.7-122.4-42.2-235.1-8.7-330.8,72-186.5,157.3-259.3,414.3-224.6,652.2,2.8,19.3,6.6,38.5,11.7,57.3h-16Z"/>
    <path class="st14" d="M0,2666.2c7.2-25.7,7.1-54,10.2-80.7,8.5-72.3,20.2-144.3,36.7-215.1,9.5-40.7,33.4-145.7,55.3-176.6,2.9-4.1,5.3-3.6,5.8,1.7.4,4.7-15,50.9-17.5,60.6-56.3,214.6-79.1,411.1-86.5,633.1-.1,3.8,2,8-4,6.9v-229.8Z"/>
    <path class="st2" d="M567.7,3000h-16c-23.1-55.5-36.4-116.4-47.3-175.5-15.2-81.9-27.6-188.4-20.7-271.3,2.1-25.4,10.2-20.2,12,2.1,1.2,14.8-.7,31,0,46,2.8,63.9,7.9,128,18.7,191.2,11.8,69.4,27.9,142.1,53.3,207.5Z"/>
    <path class="st10" d="M3642.2,219.9c10.1.8,29.7-.7,38.7,2.2,4.2,1.4,4.7,12.4,5.3,16.7.8,715.2-6.2,1430.1-12.1,2144.6-.5,63.5,5.8,140.6.2,202-.4,4.9-.5,6.5-3.2,10.8-10.1,16-38.7,34.7-50.9,51l-18.9,1c-498.1-63.4-995.4-132.9-1493.6-195.6-10.1-1.3-50.6-3-55.5-6.4s-8.8-35.8-11-45c-.8-3.4-.2-5-4.2-6.8l1528.3,201.8c23.2,3.6,33.6-15.2,46.9-29,12.7-13.2,18.3-8.5,20.1-31.8,7.1-92.2-.7-201.6-.2-296,3.4-599.3,7.2-1199.3,10.2-1798.6.4-73.3,1.7-147.8,0-220.9Z"/>
    <path class="st2" d="M3642.2,219.9c1.8,73.2.4,147.7,0,220.9-3,599.3-6.7,1199.3-10.2,1798.6-.5,94.4,7.3,203.7.2,296-1.8,23.3-7.5,18.7-20.1,31.8-13.3,13.8-23.7,32.7-46.9,29l-1528.3-201.8c-10.4-1.7-22.7.5-28.9-10-3.2-51.3-1.8-103.4-3-154.9-14-604.7-29.3-1209.8-38-1814.8-.3-24.3-5.4-51.5-2.2-76,.7-5.7,3.4-9.4,9.2-10.7l1611.1-170.1c8.4-.2,16.2,4.4,22.7,9.2s31.2,27.8,32.3,29.7c3.5,6.1,1.7,15.7,1.9,23.1ZM3580.2,175.9l-1599.1,168,42,2032.4,1545.1,204,12-2404.4ZM3584.2,2572.3l30.1-28.9c4.3-282.8,2.5-566.4,3.8-849.6,2-450.1,4.5-900.9,8.2-1350.9.3-39.5,3.8-92.2,0-130.1-1.3-13-21.6-22.7-30.1-32.9l-12,2392.4Z"/>
    <path class="st14" d="M495.7,2874.1c-4.1.9-4.6-2-6.4-4.6-13.3-19.7-23.8-68.6-29-92.9-33.1-156.1-41.3-322.3,6.4-476.1,5.5-17.8,11-39.2,22-54,2.2,4,1,10,.4,14.4-3.9,31.8-18,70.3-24.8,103.1-35.1,169.3-13.5,345,31.4,510Z"/>
    <path class="st14" d="M1203.4,1834.8c-53.2-2.3-105.3-15.7-157.5-25.3-123.9-22.8-281.1-51.8-396.1-101.6-4.3-1.9-18.7-7.1-20.8-8.8-1.9-1.5-1.7-5.7-1.2-6.1s13.4,2.3,16,3c104.7,27.3,207.6,60.8,313.8,84,72.8,15.9,149.5,24.3,221.6,42.3,2,.5,30.2,7.7,24.3,12.7Z"/>
    <path class="st12" d="M1433.3,1337.1c7.1,3.2,46.2,14.3,41.8-2.6-2-7.6-21.5-8.3-29.2-11-52.3-18.5-72.5-93.6-74.7-143.2-1.8-40.6,8.2-138.6,52.7-155.3,44.3-16.7,55.8,49.1,59.3,79.3,5,42.5-6.9,101.9,57,94.9,14.5-1.6,34.5-13.8,36.8-29.1,4.3-27.8-9.4-80.8-11.8-111.8-1.8-23.3-3.2-50.9,0-73.9,4.1-30.2,22.8-47.6,33.5-74.4,20.3-51.2,14.6-107.4-3.5-158.4h35c4.4,0,27.9-9,29-8,7.3,27.5,18.4,54,25.4,81.5s10.4,38.3,10.5,49.7c0,2.7,0,3.5-1.7,5.8-3.2,4.2-15.8,12.6-21.2,18.8-16.5,19.1-42.3,65.3-27.8,89.8,14.1,23.9,34.6-20.5,48.8-23.8-3.2,51.2-19.6,101.7-22.1,152.8-2.5,52.3,15,108.1,18.1,160,4.3,72-6.9,167.3-27.4,236.4-6.9,23.1-16.9,45.2-23.5,68.4-10.8,37.8-12.9,107-55,119.9-58.6-46.3-118.3-117.2-135-191.9-6.1-27.4-7.2-55.1-9.1-83l4.2-45.8c-1-6.9-9.8-7.1-13.9-1.8-4.4,5.7-13.7,27-17.1,34.8-19,43.7-30.7,97.4-35,144.9-2.7,29.3.3,61.2-4.2,89.7s-10.6,35.7-14.8,53.2c-2,8.3-6.4,22.3-3,30-6.4,10.6-13.6,30.8-18,42.9-6.4,17.4-10.7,35.6-16.9,53-62.9-51.8-138.9-87.6-214.4-117.4-81.1-32.1-164.7-61.5-250.4-79.5-37.7-7.9-75.9-10.4-114-17,33-35.8,62.1-76.4,77.9-123,41.1,1,78-13.2,115-28.9-1.7,5.4-7.3,9.3-8.5,15.5-4.2,21,20.7,17.9,34.3,16.2,50.2-6.1,104.6-29,150.2-49.7,1,6-3.3,10.6-3.2,17s2.7,11.1,11.1,11.1c13.8.2,54.5-29.2,67.6-38.5,34.7-24.8,137.5-110.9,139.3-153.5,4.3-.9,4.3,2.3,6,4.9,18.9,29.7,20.2,69.1,48.9,93.1,38.4,32.1,47.8-10.6,53-42ZM1430.8,1077.7c-29.1,5.1-33.6,53.1-31.2,76.2.7,6.2,5.8,32.9,16,20.3,2.2-2.8-4.5-30.5-4.4-38.1.2-7.8,4-25.6,7.7-32.4,7.3-13.5,22.8-20.7,28.9-2.1,15.5,47.5-26.7,94.7-10.5,142.4,2,6.1,12.4,27,19.1,27,15,0-4.3-24.7-6.6-31.5-11.5-34,10.2-64.4,13.3-97.7,2.1-22.6,1.8-70.2-32.3-64.2Z"/>
    <path class="st6" d="M1583.2,1702.9c-57.7,17.7-163.4-26.2-205.7,5.2-6.2,4.6-18.2,18.3-22.2,24.8-3.5-7.7,1-21.7,3-30,4.2-17.4,12-35.6,14.8-53.2,4.5-28.5,1.6-60.4,4.2-89.7,4.3-47.5,16-101.2,35-144.9,3.4-7.8,12.7-29.2,17.1-34.8,4.1-5.3,12.9-5,13.9,1.8l-4.2,45.8c1.8,27.9,3,55.7,9.1,83,16.6,74.6,76.3,145.6,135,191.9Z"/>
    <path class="st6" d="M1325.3,1281.1c.3-6.2-.6-11.3-4-16.6-1.3-2.1-5.7-.1-4-5.4,6.1-1.1,12.2-6.1,16.9-10.1,7.5-6.4,16.3-19.8,22-24,1.7-1.3,2.1-2.7,5-1.9,4.8,40.9,32.7,96.4,72,113.9-5.2,31.5-14.6,74.1-53,42-28.7-24-30.1-63.4-48.9-93.1-1.7-2.6-1.7-5.8-6-4.9Z"/>
    <path class="st12" d="M1705.2,1321.1c3-42.5-6.2-83.9-10-125.9,8.6,9.9,14.7,22,22.3,32.6,7.2,10,26.4,29.2,27.7,40.3,3,25.5-19.1,43.5-40,53Z"/>
    <path class="st1" d="M1665.4,479.4c7.8,4.8,22.7-13,29.1-17.4,52.8-36.6,98.4-16.8,92.4,50.4-7,78.4-80.7,215.9-168.7,223.1-9.3.8-26-1.9-33.6.4-16.5,5,1,39.1,3.6,49.6,9.1,36.7,10.1,73.7-2.1,109.8-7.9,23.3-26.3,44-33,64.9-20.1,63.1,6.5,133.2,8.2,195.9.4,15.7-5.4,22.2-20.5,25.6-46.4,10.4-36.2-38.9-39.6-67.5-4.4-37-13.2-108.1-62.9-109.1-59.3-1.2-80.1,89.4-83,135.1-1,15.1,3,46.8-1.1,58.9-2.6,7.8-22.9,30.2-29.9,36.1s-27.5,16.5-30,22c-7.1,15.5,14.7,13.8,14.9,20.8.5,18.9-54.7,78-69.9,92.1-33.1,30.7-71,56.7-109,80.9,5.3-17.1,10.8-28.8-13.9-25.8-54.8,23.6-110.9,47.6-171,53.8,7.6-13.6,33.2-35.1,5.2-42-41,17.1-81.2,38.7-127.1,38,13.7-62-8.8-124.8-34.3-180.6-29.4-64.2-68.5-125.2-98-189.8-45.9-100.6-73.9-215.1-52-325.7-3.4-15-43.3-5.5-51.5,3.8l-18.1,18.8c-5.5-83.5,37.1-154.9,106.1-198.7,11.2-7.1,43.6-19.7,48.6-27.3,9.2-13.8,3.9-41.5,5.4-58.5,4.6-50.3,34.2-103.3,72.8-135.1,5.3-4.3,12.1-9.9,18.9-11.1-15.9,33.3-28.8,63.9-25.9,101.9,1,13.6,5.8,51.6,26,32,9.9-9.6,22-30.9,33-43,11.5-12.7,26.7-27.1,40.1-37.9,137.5-111.2,293.3-59.7,451.6-98.1,96.4-23.4,261.2-108,326,12.1,18.5,34.4,21,66.6,7,103-2.5,6.5-20.6,34.5-13.8,38.7ZM1025.5,481.7c-3.6-12.2-24.4-6.9-34-5.1-49.1,9.4-109.9,52.6-121.9,103,3.4,3.7,18.9-21.6,21-24,35-39.9,81.6-67.9,134.9-73.9ZM839.6,817.4c.5-.5-1.8-6.7-2-9-2.1-28.3,3.7-54.5,16.2-79.7s21.3-30.4,17.7-35.2c-14.4,5.7-21.4,18-27.7,31.3-10.6,22.4-16.8,52.9-14.3,77.7s3.9,20.2,10,15ZM817.6,711.5c-10.3,1-15.6,11.5-19,20-11.2,28.6-16.7,83.4,8,105.9,1.5-10.3-4.1-20.6-5-31-1.7-18.9-.4-43.1,4.5-61.4,3.2-12.1,10.3-21.7,11.4-33.5ZM887.5,729.5c-1.8-2.1-8.8,5.5-10,7-14.1,18.3-13.1,66-2.1,86,3,5.5,9.1,13.8,16,12.9-8.6-24.4-14.5-44.1-11.7-70.7,1.3-12.2,7.9-22.9,7.7-35.2Z"/>
    <path class="st13" d="M3580.2,175.9l-12,2404.4-1545.1-204-42-2032.4,1599.1-168ZM3550.2,209.8c2.4,2.5,17.7-13.3,16-18-2.8,1.5-18.3,15.5-16,18ZM3538.2,221.9c-2.8-2.8-21.8,19.8-25,21.9l-32.9,44c7.2,6.3,39.2-35.2,43.6-41.3,2.2-3,16.1-22.8,14.4-24.6ZM3318.3,245.8c-26-.2-53.2,0-79,4-11.8,1.8-11.8,5.2,0,6.1,12.6.9,31.3.7,44-.1,5.9-.4,27.2-2.7,31.6-4.4,2.7-1,4-2.6,3.4-5.6ZM3212.4,251.8h-53c-4.2,0-24.3,3.6-29.1,4.9-2.9.8-5.9,1.5-7.9,4.1,25.2,2,53.4.9,78.3-3.6,3.8-.7,13.3.2,11.6-5.4ZM2049.2,411.9l40.6,1894.6c2,2.8,23.3,5,28.4,5.6,446.3,56.9,894.8,97.5,1341.2,154.2,7.1-.7,19.2-2.2,19-11,.8-716.4-1.3-1432.5-2-2148.8.1-3.9-2.4-12.6-5.1-14.9-5-4.4-40.6-.6-50,0-451.4,32.2-901.8,83.8-1353.3,115.9l-18.8,4.2ZM2336.8,341.8c.2-8.9-16.3-6.3-23-6-25,1.3-54.6,8.6-80.2,11.7-27.8,3.3-58.6,3.3-85.7,8.3-3.3.6-3.5-1.3-3,3.9,64.3-1.2,128.6-7.5,191.9-18ZM2041,403.7c3.2-4-19.9-25.6-23.9-29-3.7-3.1-9.2-8-14-9-6.2,6.9,30.9,35.8,38,38ZM3542.2,629.6c-2.6-3.2-3.6.2-4,3-3.2,25.1,1.3,57.5,3,83,4.5,0,4.7-3.5,5.1-6.9,3-24.4-1.8-54.6-4.1-79.1ZM2021,768.5c2.9-11.3,0-52.9,0-68s-1.7-9.2-2-12c-.5-3.5,1-3.4-3.9-3l-2.1,35.1,4.1,50.9c1.3,0,3.8-2.3,4-3ZM3538.2,790.5c-3,42.8,2.2,88.8,0,131.9l4,2c10.5-50,5.4-103.6,4-154.9h-6c1.9,7.2-1.6,15.4-2,21ZM2025,943.4c-.4-26.9,1.2-54.1-2-80.9-.3-2.3-2.5-29.2-8-23-1.7,33.2,2.8,65.9,4,98.9l6,5ZM2023,1347.1c2-2.1,4.2-49.9,4.1-57.1-.1-7.3-1.2-20.5-2-28-.3-3-.4-6.2-4.1-6.9-5.6,29.5-4.2,59.2-2,89-1.5,3.4,3.1,3.9,4,3ZM2039,1365.1v76.9c0,.6,1.8,3.4,2.1,5.9.5,5.6-.5,11.5,0,17.1h4s0-80.9,0-80.9c0-3.7-4.2-13.1-2-19h-4ZM3550.2,1866.8c-4.5-1.2-4.7,1.8-5.4,5.5-1.4,6.9-2.5,25.6-2.6,33.4-.2,9.6,2.9,73.7,6.1,77,2.8,3,3.6-.2,4-3,4.5-35.4-4.8-76.9-2-112.9ZM3534.2,2028.6c.9-18.5,2.1-36.4,0-54.9-.3-2.3-2.5-29.2-8-23,1.1,23.6-2.7,50.7,3.4,73.6,1,3.6-.6,5.2,4.6,4.3ZM2049,1974.7c-3.9,39.8-5,79.2-2.1,119,1.4,19.5,6.7,1.2,7.8-8.3,3.3-27.8,2.1-54.1.3-81.7-.5-8.3,4-27.8-6-29ZM3544.2,2130.6c-5.7-.9-3.3,1.2-4.3,4.6-5.7,20.7-2.2,47.4-1.6,68.2.8,31.4-.5,64.9,6.9,95,4.5,0,3.2-52.6,3.1-59.1,0-5.7-2.1-10.6-2.2-15.8-.6-31.1.9-62-1.9-93ZM2080.9,2322.5c-2.7-2.4-14.4,7.9-16.9,10-5.3,4.5-34.3,32-29,37.9,3.8.9,4.7-2.1,7-4,8-6.5,20.1-19.1,27-26.9,1.6-1.8,13.5-15.6,11.9-17ZM2544.7,2402.4c-2.1-4.9-9.7-5.4-14.3-6.6-38.6-10.1-86.1-12.5-126.3-17.6-36.4-4.7-72.3-14.1-109.2-11.7,6.7,6.4,20.7,7.2,29.9,9,26.1,5.1,52.9,9,79.3,12.7,46.6,6.4,93.8,11.5,140.6,14.3ZM3214.4,2484.4c-1.9-1.9-41-7.4-47-8-19.5-1.9-39.4-2.1-58.9-2-1.7,5.6,9.6,4.9,13.4,5.6,22.4,4,53.4,9.6,75.6,10.4,2.1,0,22.7-.3,17-6ZM3532.2,2536.3c3.6-8.9-45.7-56.9-47.9-54-.5,5.6,3.7,10,7,14,11,13.7,28.5,27.2,41,40Z"/>
    <path class="st3" d="M3584.2,2572.3l12-2392.4c8.4,10.2,28.8,19.9,30.1,32.9,3.7,37.9.3,90.6,0,130.1-3.7,450.1-6.2,900.8-8.2,1350.9-1.3,283.3.5,566.8-3.8,849.6l-30.1,28.9Z"/>
    <path class="st2" d="M1025.5,481.7c-53.4,6-100,34.1-134.9,73.9-2.1,2.4-17.6,27.7-21,24,12-50.4,72.8-93.6,121.9-103,9.7-1.8,30.4-7.2,34,5.1Z"/>
    <path class="st2" d="M817.6,711.5c-1.1,11.9-8.2,21.5-11.4,33.5-4.9,18.3-6.2,42.4-4.5,61.4.9,10.4,6.5,20.7,5,31-24.6-22.5-19.2-77.3-8-105.9,3.3-8.5,8.7-19,19-20Z"/>
    <path class="st2" d="M887.5,729.5c.2,12.3-6.5,23-7.7,35.2-2.8,26.6,3.2,46.3,11.7,70.7-6.9.9-13.1-7.5-16-12.9-11-20-12-67.7,2.1-86,1.2-1.5,8.1-9.1,10-7Z"/>
    <path class="st2" d="M839.6,817.4c-6.1,5.2-9.6-10.9-10-15-2.5-24.8,3.7-55.2,14.3-77.7,6.3-13.3,13.3-25.6,27.7-31.3,3.6,4.8-14.6,28.9-17.7,35.2-12.6,25.2-18.3,51.4-16.2,79.7.2,2.3,2.5,8.5,2,9Z"/>
    <path class="st14" d="M1430.8,1077.7c34-5.9,34.3,41.7,32.3,64.2-3.1,33.3-24.7,63.8-13.3,97.7,2.3,6.7,21.5,31.5,6.6,31.5-6.7,0-17-20.9-19.1-27-16.2-47.8,26-94.9,10.5-142.4-6.1-18.6-21.5-11.5-28.9,2.1-3.7,6.8-7.6,24.6-7.7,32.4-.2,7.6,6.6,35.3,4.4,38.1-10.1,12.6-15.3-14.1-16-20.3-2.4-23.1,2.1-71.2,31.2-76.2Z"/>
    <path class="st14" d="M2049.2,411.9l18.8-4.2c451.5-32.1,901.9-83.8,1353.3-115.9,9.3-.7,44.9-4.4,50,0,2.7,2.3,5.2,11,5.1,14.9.7,716.2,2.8,1432.4,2,2148.8.2,8.7-11.9,10.2-19,11-446.3-56.7-894.9-97.3-1341.2-154.2-5.1-.6-26.4-2.8-28.4-5.6l-40.6-1894.6ZM3460.3,305.8l-1391.3,117.9,37.9,1869.9,1355.4,156.8v-22s-1330.2-150.1-1330.2-150.1c-2.5-.5-5.8-.8-7.3-3.1-4.2-6.6-1.5-82.8-1.8-97.7-10-559.6-22.3-1119.3-32.2-1678.7-.3-14.7-2.3-45.4.2-58,.4-2.1,1-3.9,2.7-5.2,16.6-3,34.9-2.3,52.2-3.8,434.3-37.5,869.5-71.8,1303.3-113.9,10.1-1,12.6-1.1,11-12ZM3424.3,335.8c-97.9,9-196.1,15.9-293.9,26-7,.7-15.9-2.8-19.7,5.3-24.1,56.5-59,111.3-80.3,168.6-1.9,5.2-5.6,6.3-3,13.9,2.2,6.3,23.1,25.8,28.9,33.2,9.8,12.4,20.9,27.5,28.9,41.1s14.5,22.5,13.2,35.8c-1.9,2.3-8.6-5.5-9.9-7-12.8-14.3-23.4-36.5-35.3-52.7-7.9-10.8-37.4-42-38.7-51.4s.6-6.7,1.9-10.8c3.6-10.8,12.8-28.8,18-40,11.3-24.4,25-51.5,37.6-75.3,10.6-20,22.4-39.4,34.3-58.6l-637.7,55.9c-28.1-2.1-70.5,5.5-100,8-85.6,7.4-171.2,15.6-256.9,22l-4.1,1.9c-1.7,2.5-1.1,22.3-1,27.2,3.4,102.7,4.3,205.7,6.1,308.7.3,14.7,2,31,2,45v97.9c0,6.6,4.1,18.6,2,27l4,279.8,48.9-4.1,60.7,1.7,34.1-48.2c-22.3-65.3-40.2-132.5-56.1-199.8l-3.6-4.4-71.9-41c-1.5-3.1-4.8-4.4-4-8,.7-.7,6.5,1.4,8,2,33.5,12.8,113.4,57,142.6,78.3,3.1,2.3,21.7,14.2,12.4,15.6l-73-37.9,53.5,183.4c2,12.6-.2,17.4-3.5,28.5-.4,1.3-1.5,2.6-2,4s-1.7.6-2,2c-.1.6,0,1.3,0,2-16.6,18.7-17.1,31.5-45,33.9-24,2.1-49.9,1.3-74,1.9-8.5.2-15.5,3.8-24.9,0,3.8,38.8,1.3,78,1.9,117,1.7,112.1,6.6,224.6,6.6,337.2l2.4,5.5,206.6-148.2c-.5-20-5.6-39.6-7.7-59.6-.9-8.6-4-19.8-1.7-28.7,3.2-12.2,7.3,11,7.7,12.7,22.4,91.6,29.7,186.9,55,277.8,6.9-2.7,13.8-6.2,20.3-9.7,41.1-22.1,151.7-98.9,189.6-100.3,6.3-.2,10.9,1.2,16.9,2,5-30.4,41.2-53.3,66.1-68.8,61.7-38.4,194.4-92.4,266.5-82.9,10.3,1.3,22.6,7.3,26.6,17.4,4.4,11.4,16.8,71.7,22.9,76.2,8.9-.3,21.1,2.3,30.1,4.7,62.6,17.2,116.8,66.1,179.5,85.4,8.9-29.8,13.1-65,23-94,2-5.9,7.1-21.3,14.1-22,6.1-.6,18.9,8.4,23.1,5.2,6.2-19.9,17.4-37.3,29.3-54.1-14.1-27-25.5-57.1-35.4-85.9-3.9-11.4-24.2-67.4-19.7-74.7,21.9-4.7,46.3-2.1,68.7-.3,49.2,4,98.6,12.7,146.9,22v-533.6c-23.5,10.6-47,21.2-70,32.9-23.7,12.1-53.8,33.3-77.4,42.5-15.9,6.2-18.4.9-24.8-12.1-29.1-59.5-51-122.5-75.6-183.2,4.8-1.1,4.1,2.5,5.6,5.3,30.6,57.6,55.6,118.2,82.3,177.7.9,1.1,1.9,2.4,3.3,2.6,2.7.5,38.5-20.5,44.7-23.7,36.9-18.9,74.6-36.6,111.7-55.2.3-136.1.5-272.3.3-408.5,0-31.3,0-62.6,0-93.9-11.9,1.6-24.1,2.9-36,4ZM3308.3,1509c.7,2.8,2.1,6.2,2.1,9,0,15-24.9,45.8-31.1,60.9l182.9,75.9v-267.8c-17.8-3-36-4.1-54-6-51.3-5.4-102.8-9.4-153.9-16,11.7,29.8,21.5,60.4,32.5,90.4,6,16.4,17.4,37.9,21.5,53.5ZM2916.1,1517.6c-69.7,5.5-221.8,64.6-269.5,116.3-9.8,10.6-21.3,25.7,1.2,28.8,71.9,10,236.7-57.8,291.6-105.8,6.2-5.4,31.2-27.9,19.9-35.8-8.5-5.9-32.7-4.4-43.2-3.6ZM2636.7,1676.9v41c0,6.1-16,6.2-16-2v-35c-5.1.5-10.7,7.1-14,10.9-18.5,21-21.7,39.2-3.9,62,92.5,118.5,330.4,26.4,400.2-79.4,11.5-17.4,25.8-44.6,6.5-61.4-4.5-1.5-2.3,9.1-13.6,5.6-11.1-3.4-23.8-65.5-28.4-67.6-27.2,32.1-70.2,55.6-108.2,73.7-42.7,20.2-97.9,40.8-144.2,49.7-25.9,4.9-52.5,8.4-78.4,2.6ZM2130.9,1790.8c1.1,84.2,4.6,168.7,6.1,252.7,1.2,66.4.2,132.6,2.9,199,22.8-113.3,42.9-229.1,90.6-335.1,27-60,49.4-84.2,106.3-116.6,10.9-6.2,31.7-13.3,40.8-20.2,1.8-1.3,3.4-2.1,3.3-4.8l-40.1-202.9c-62.2,49.7-127.1,96.7-192.4,142.4-5.3,3.7-11.2,6-16.5,9.5-1.5,25.2-1.3,50.7-1,76ZM3462.3,1664.9c-8.3-.3-16.8-3.6-24.5-6.5-63-23.7-127.6-50.7-187.4-81.4l-27.9,111.1,3.1,4.6c46.2,19.3,92.8,39,136.8,63.1,29.1,16,58.9,33.8,80.9,59,6.7,7.7,10.9,17.6,19,24v-173.9ZM3192.4,1752.8l11.8-51.8c-21.5-1.3-163.3-89-169.7-82.1,7.6,55.5-50.1,106.2-91.3,135.5-92.4,65.7-266.1,115.8-350.4,13.3-31.1-37.8-19.1-66.6,11.9-98.9-14.9-1.7-26.8,5.3-39.3,11.6-30.5,15.5-61.5,37.2-91.3,54.7s-52.9,26.2-72,39.9c-2.5,1.8-5.1,3-5.3,6.7l43,164.9c2.5,3.2,2,1.3,4,0,9.5-6.3,8.6-13.4,24.6-8.7s40.1,21.1,40.4,31.5c-23.3,109.5-54,217.2-84,324.9,243.9,26.9,487.6,56.4,731.6,82,.6,0,3,2.7,4.9,2l13.1-1.1c-7.2-12.6-13.4-25.6-19-39-34.4-83-71.3-174.6-100.5-259.3-7.4-21.4-15.2-43.8-20.1-65.9-.9-4.2-1.2-5.2,3.6-4.6l145.9,370.3c2.6,4,13.7,2.9,18,3.4,75.8,9.5,152,17.1,227.9,26,4.4.5,10,2.2,14,1-36.4-29.6-67.8-65.8-99-100.9-47.7-53.7-91.8-110.7-139.9-163.9-4.5,0-4.6,29.1-5,33.9-3.6,45.5,0,82.2,2.1,126.8.5,11.5,1.3,31.2,0,42.1-.4,2.8-1.5,6.3-4,3-10.9-62.9-15.2-126.2-10-189.9.7-8.9,5.2-26.7,2.2-33.1-20.8-25.7-43.3-50.1-64.1-75.9-23.6-29.2-45.9-63.1-70-90.9l3-4c47.2,44.9,85.7,107.7,131.3,152.5,1.8,1.7,1.7,4.4,5.6,3.4,19.2-87.8,60.4-180.9,125.9-243.8,5.7-5.5,16.2-12.3,22.7-17.9,2.1-1.8,2.4-2.1.3-4.2-42.3-26.3-89.9-47.5-131.6-74.3-12.4-8-12.8-11.1-21.4-19.6ZM3462.3,1904.7v-33c0-2.5-24.3-37.4-28-41.9-19-23.1-42.9-38.5-68.6-53.3-47.5-27.5-98.7-48.5-149.2-69.6l-14.2,46.7c52.1,25.1,101.3,56.2,151.6,84.8,8.2,2,17.2-11.6,26.4-11.6,1.1,9-15.5,14.2-10.1,21.1l92.1,56.9ZM2342.8,1808.8c-58.9,34.5-72.7,48.5-100.3,112.6-44.9,104.1-67.1,217.8-85.6,329.1,48.4-48.3,96.7-97.5,141.3-149.2l-29.4-172.6c5.4-.7,6.6,5.1,8.1,8.9,6,15.2,10.7,40.7,14.5,57.4,7.1,30.9,13,62.1,17.4,93.6,3.5.7,4.9-1.8,7-4,36-37.3,69.3-78.1,104.9-116,3.9-4.2,14.8-10,13.8-16.5-.4-2.7-7.4-13.7-9.2-19-16.5-47.2-25.8-99.9-38.5-148.4-2.2-2.1-31.2,14.6-35.8,17.2-3.5,2-6.4,5.8-8.2,6.8ZM3334.3,1878.7c-58.8,59.1-118.1,161.4-125.9,245.8,0,.3-1.9,1.3-1.6,2.6.6,6.5,7.5,7.9,10.4,11.5,36.3,44.6,73.5,89.2,111.1,131.8,31.9,36.2,63.4,73.2,96.9,108,8.6,9,21.7,23.8,31,31,2,1.5,2.5,3.9,6,3-.8-150.5,1.1-301.2,0-451.7,0-8.5,1.7-47.5-1.9-51l-101.4-54.6c-1.5-.1-15.4,11.5-17.7,13.7-3.8,3.6-5.9,9-7,10ZM2314.8,2122.6c4.1,36.7,10.8,74,12,110.9.5,16-2.7,50.6-11.4,13.4-7.1-29.9-8.3-75.7-12.5-108.4-.8-6.4.9-14-3-20l-144.9,144.9c9.2,1.7,18.4,3.6,28,3l202.9,24c4.3.5,8.7-.4,12.9,0,4.3.5,16.2,6.3,17.7.7l84.2-320.5c-8.1,1.4-38.4-25.3-42-23.1l-144,155.9c-4.9,6.3-.5,13.5.1,19.1Z"/>
    <path class="st14" d="M2544.7,2402.4c-46.9-2.8-94.1-7.8-140.6-14.3-26.4-3.6-53.2-7.6-79.3-12.7-9.3-1.8-23.3-2.6-29.9-9,37-2.4,72.9,7,109.2,11.7,40.2,5.2,87.7,7.5,126.3,17.6,4.7,1.2,12.2,1.7,14.3,6.6Z"/>
    <path class="st14" d="M2336.8,341.8c-63.3,10.5-127.6,16.8-191.9,18-.5-5.2-.3-3.3,3-3.9,27.1-5,57.9-5,85.7-8.3,25.7-3.1,55.2-10.5,80.2-11.7,6.7-.3,23.2-2.9,23,6Z"/>
    <path class="st14" d="M3538.2,790.5c.4-5.6,3.9-13.8,2-21h6c1.4,51.3,6.5,104.9-4,154.9l-4-2c2.2-43.1-3-89.1,0-131.9Z"/>
    <path class="st14" d="M3544.2,2130.6c2.8,31,1.3,61.9,1.9,93,.1,5.2,2.1,10.1,2.2,15.8.1,6.4,1.4,59.1-3.1,59.1-7.5-30.1-6.1-63.7-6.9-95-.5-20.8-4.1-47.6,1.6-68.2.9-3.4-1.5-5.6,4.3-4.6Z"/>
    <path class="st14" d="M2049,1974.7c10,1.1,5.5,20.7,6,29,1.8,27.6,3,53.9-.3,81.7-1.1,9.6-6.4,27.9-7.8,8.3-2.9-39.9-1.7-79.3,2.1-119Z"/>
    <path class="st14" d="M3214.4,2484.4c5.8,5.7-14.8,6-17,6-22.2-.8-53.3-6.3-75.6-10.4-3.8-.7-15.1,0-13.4-5.6,19.6-.1,39.5,0,58.9,2s45.1,6.2,47,8Z"/>
    <path class="st14" d="M3550.2,1866.8c-2.8,36,6.5,77.5,2,112.9-.4,2.8-1.2,5.9-4,3-3.2-3.3-6.3-67.5-6.1-77,.2-7.8,1.3-26.6,2.6-33.4.7-3.7.9-6.6,5.4-5.5Z"/>
    <path class="st14" d="M2025,943.4l-6-5c-1.2-33.1-5.7-65.8-4-98.9,5.5-6.3,7.7,20.7,8,23,3.2,26.8,1.6,54,2,80.9Z"/>
    <path class="st14" d="M3538.2,221.9c1.8,1.8-12.2,21.6-14.4,24.6-4.4,6.1-36.4,47.7-43.6,41.3l32.9-44c3.3-2.1,22.2-24.8,25-21.9Z"/>
    <path class="st14" d="M2023,1347.1c-.9.9-5.4.5-4-3-2.2-29.8-3.5-59.4,2-89,3.6.7,3.7,3.9,4.1,6.9.8,7.4,1.9,20.6,2,28,.1,7.1-2.1,55-4.1,57.1Z"/>
    <path class="st14" d="M3318.3,245.8c.6,3-.6,4.5-3.4,5.6-4.4,1.7-25.7,4-31.6,4.4-12.7.8-31.4,1.1-44,.1-11.7-.9-11.7-4.3,0-6.1,25.8-3.9,53-4.1,79-4Z"/>
    <path class="st14" d="M3212.4,251.8c1.7,5.6-7.8,4.7-11.6,5.4-25,4.5-53.1,5.6-78.3,3.6,2-2.6,5-3.3,7.9-4.1,4.8-1.4,24.8-4.9,29.1-4.9h53Z"/>
    <path class="st14" d="M3542.2,629.6c2.4,24.5,7.1,54.7,4.1,79.1-.4,3.4-.6,6.9-5.1,6.9-1.7-25.5-6.2-57.9-3-83,.4-2.7,1.4-6.2,4-3Z"/>
    <path class="st14" d="M3534.2,2028.6c-5.1.9-3.6-.7-4.6-4.3-6.1-22.9-2.3-50.1-3.4-73.6,5.5-6.3,7.7,20.7,8,23,2.1,18.5.9,36.4,0,54.9Z"/>
    <path class="st14" d="M2039,1365.1h4c-2.2,5.9,2,15.2,2,19v80.9h-4c-.4-5.6.6-11.5,0-17.1-.2-2.5-2.1-5.3-2.1-5.9v-76.9Z"/>
    <path class="st14" d="M2021,768.5c-.2.7-2.7,3.1-4,3l-4.1-50.9,2.1-35.1c4.9-.4,3.5-.5,3.9,3,.4,2.8,2,11.2,2,12,0,15,2.9,56.6,0,68Z"/>
    <path class="st14" d="M2080.9,2322.5c1.6,1.4-10.3,15.2-11.9,17-6.9,7.9-19.1,20.4-27,26.9-2.3,1.9-3.2,4.9-7,4-5.2-5.9,23.8-33.5,29-37.9,2.5-2.1,14.2-12.4,16.9-10Z"/>
    <path class="st14" d="M3532.2,2536.3c-12.5-12.8-30-26.2-41-40-3.2-4-7.5-8.4-7-14,2.3-2.9,51.6,45.1,47.9,54Z"/>
    <path class="st14" d="M2041,403.7c-7.1-2.2-44.1-31.1-38-38,4.8.9,10.3,5.8,14,9,4,3.4,27.1,25,23.9,29Z"/>
    <path class="st1" d="M3550.2,209.8c-2.4-2.5,13.2-16.4,16-18,1.7,4.7-13.5,20.5-16,18Z"/>
    <path class="st4" d="M3424.3,335.8l-240.2,269.5-7.1-1.3-122.5-61.5c-3.2-1.5-8.2-1.6-10,2.1-2.2,4.6,5.1,2.4,6,3,.5.4,2.5,6.3,7.1,9.9,33.2,26.7,77.1,45.7,112.9,69l-114.9,134.8c-6.8-16.9-11.3-34.5-18.6-51.3-30.2-68.6-86.9-126.2-157.8-152-135.1-49.3-337.9,38.2-406.6,162-15.2,27.4-26.1,42,2.5,64.1,8.6,6.6,57.9,38.1,65.7,40.2,19.6,5.3,29.9-19.3,41-31.1,55.3-58.6,138.1-113.1,221.9-114,127.5-1.4,130.6,143.3,72.7,226.6-83.4,119.8-257.2,88.1-235.3,277.9,1.5,12.9,13,75.6,21.2,81.3,11,7.6,47.2,3.3,61.2,1.6s75.5-12.1,82.2-19.7c7-7.9,2.4-22.6,3.1-32.9,5.4-79.3,87.8-123.3,139.9-171.9,63.4-59.1,111.3-130.8,111.9-220.9l133-125.9c4-.8,2.4.9,3.4,2.5,4.1,6.9,12.8,22.6,15.6,29.4,24.6,60.8,46.6,123.8,75.6,183.2,6.4,13,8.9,18.3,24.8,12.1,23.7-9.2,53.7-30.3,77.4-42.5,23-11.8,46.5-22.4,70-32.9v533.6c-48.4-9.3-97.7-18-146.9-22-22.4-1.8-46.8-4.4-68.7.3-4.5,7.3,15.7,63.3,19.7,74.7,9.9,28.8,21.3,58.9,35.4,85.9-11.9,16.8-23.1,34.2-29.3,54.1-4.1,3.2-16.9-5.8-23.1-5.2-6.9.7-12.1,16.1-14.1,22-9.8,28.9-14.1,64.2-23,94-62.7-19.3-116.9-68.2-179.5-85.4-9-2.5-21.2-5.1-30.1-4.7-6.1-4.5-18.5-64.8-22.9-76.2-3.9-10.1-16.3-16.1-26.6-17.4-72.1-9.5-204.9,44.5-266.5,82.9-25,15.6-61.1,38.4-66.1,68.8-5.9-.8-10.6-2.3-16.9-2-38,1.4-148.5,78.2-189.6,100.3-6.5,3.5-13.4,7-20.3,9.7-25.3-91-32.6-186.2-55-277.8,3.5-9.4-.8-24.2-2.6-34.3-12-67.2-26.4-138.9-42.7-205.1-2-8.1-6.7-31.7-10.8-37.2s-7.3-3.3-11.8-3.2c3.3-11.1,5.5-15.9,3.5-28.5l-53.5-183.4,73,37.9c9.3-1.4-9.3-13.3-12.4-15.6-29.2-21.3-109-65.5-142.6-78.3l177.9-273.8c25.2,22.9,52.3,51.6,79,71.9,3.3,2.5,22.4,16.4,24.9,14-1.2-5-6.4-11.4-9.9-15-24.4-25.6-57.7-56.4-84-80.9l72-109.9c13.6,28.1,40,87,57.5,109.4,1.9,2.4,2.3,5.4,6.4,4.5-15.7-43.3-37.5-84.6-58-125.9,4.4,1,4.2-2.4,6-4.9,23.3-33.7,47.5-67.4,66-104,0-1.9-4.1-.9-6-1l637.7-55.9c-12,19.2-23.8,38.6-34.3,58.6-12.6,23.8-26.3,50.9-37.6,75.3-30.6-3.7-59.3-16.4-89.5-21.4-8.9-1.5-33.8-6.4-17.4,9.4,9.9,9.5,33,21.8,45.6,30.4,7,4.8,24.3,20.5,29.5,22.7,4.6,1.9,9.1-1.8,13.9-1-1.4,4.1-2.6,5.8-1.9,10.8,1.3,9.4,30.9,40.6,38.7,51.4,11.8,16.2,22.4,38.3,35.3,52.7,1.3,1.5,8,9.3,9.9,7,1.3-13.3-6.7-24.9-13.2-35.8s-19.1-28.7-28.9-41.1c-5.8-7.4-26.7-26.8-28.9-33.2-2.6-7.6,1.1-8.7,3-13.9,9.3-2.1,30.6-5.3,35.7-13.2,14.1-34.4,29.1-68.4,43.2-102.7,7.6-18.7,16.6-38.4,21.1-57.9,97.8-10.1,196-17,293.9-26ZM2748.2,1293.7c-107.7,12.4-79.3,180.9,28.5,154.4,94.1-23.2,69.1-165.6-28.5-154.4ZM3179.4,1473.1c-4.9,0-10.5,22.7-12.6,27.3-6.4,13.5-17,32.1-26.4,43.6-4.6,5.7-18.6,16.3-21,21-1.8,3.5-.3,3.8,2.1,6,16.7,3.2,57.7-61.4,60.4-77.4.6-3.5,1.9-20.5-2.5-20.5Z"/>
    <path class="st8" d="M3156.4,2376.4c-244.1-25.6-487.7-55-731.6-82,30.1-107.7,60.8-215.4,84-324.9-.3-10.5-31.2-28.8-40.4-31.5-16.1-4.8-15.1,2.3-24.6,8.7-2,1.4-1.5,3.2-4,0l-43-164.9c.2-3.7,2.8-4.9,5.3-6.7,19.1-13.7,50.5-27.3,72-39.9s60.8-39.2,91.3-54.7c12.6-6.4,24.4-13.4,39.3-11.6-31,32.3-43.1,61-11.9,98.9,84.3,102.5,258,52.4,350.4-13.3,41.2-29.3,98.9-80,91.3-135.5,6.5-6.9,148.3,80.9,169.7,82.1l-11.8,51.8c-.7-.7-6.6-1.7-8-4,1.4-6.2,3.9-31-4.1-15.1-16.3,32.3-25.8,86.3-37.3,122.6-11,34.8-27.1,70.8-37.1,104.8-3.1,10.5-6.2,21.4-5.4,32.5.7,2.9,5.1-1.1,6-1,10.5,1.2,12,6.4,19-6,6.7-12.1,14-35.1,19.1-48.9,18.7-51.4,34.6-106,47.9-158.9l129.9,89.9c-65.5,62.9-106.7,156-125.9,243.8-3.9,1-3.9-1.6-5.6-3.4-45.6-44.9-84.1-107.6-131.3-152.5l-3,4c-7.1-8.2-20-21.4-28-29-9.1-8.6-36.9-34.2-31.5-4.4,5.5,30.5,22.9,78,33,108.9,37.6,114.9,85.6,226.5,126.5,340.2ZM3092.4,1666.9c-2.6-1.9-4.4,1.7-5.5,3.5-4.4,7-6.4,19.8-10.1,27.9-40,88-190.6,163.3-282.2,179.6-60.6,10.8-101.8,3.1-158.5-17.5-8-2.9-18.8-9.7-26.7-11.3-3.9-.8-3.7,2.5-2.7,4.7,3.3,7.5,38.3,23.2,47.4,26.6,73.3,27.6,143.1,18.3,214.9-8,70.4-25.8,202.4-100.2,222.4-177.3,1.4-5.4,5.2-24.9.9-28ZM2542.7,1704.9c-4.3-4.5-10,7.3-11,10-6.4,18.5-2.4,47.1,8.6,63.3,3.1,4.6,5.8,9.6,12.4,8.6-1.6-17.6-10.8-32.5-11.9-51-.4-6,3-29.8,1.9-30.9ZM2586.7,1834.8c3.1-2.9-14.2-23.1-17-26-2.1-2.2-3.5-4.7-7-4-3.9,8.2,16.9,36.5,24,30Z"/>
    <path class="st8" d="M3462.3,1960.7c1.1,150.5-.8,301.2,0,451.7-3.5.9-4-1.4-6-3-9.3-7.1-22.3-22-31-31-33.5-34.8-65-71.8-96.9-108l-119.9-145.9c7.9-84.5,67.1-186.8,125.9-245.8l127.9,81.9Z"/>
    <path class="st0" d="M3460.3,305.8c1.6,10.9-1,11-11,12-433.8,42.1-869.1,76.4-1303.3,113.9-17.2,1.5-35.5.8-52.2,3.8-1.7,1.4-2.4,3.2-2.7,5.2-2.4,12.6-.4,43.3-.2,58,9.9,559.4,22.2,1119.1,32.2,1678.7.3,14.9-2.4,91.1,1.8,97.7,1.5,2.4,4.8,2.7,7.3,3.1l1330.2,150.1v22s-1355.4-156.8-1355.4-156.8l-37.9-1869.9,1391.3-117.9Z"/>
    <path class="st15" d="M2330.8,1499c2.1,20.1,7.2,39.6,7.7,59.6l-206.6,148.2-2.4-5.5c0-112.5-4.9-225.1-6.6-337.2-.6-39,1.9-78.2-1.9-117,9.4,3.7,16.4.1,24.9,0,24.1-.7,50.1.1,74-1.9,27.9-2.4,28.4-15.3,45-33.9-3.1,33,15.3,114.5,23,149.9,8.7,40.3,20.8,94.5,35.5,132.4,1.4,3.7,3.6,5.3,7.5,5.5ZM2310.8,1551c-8.1-22.5-18.9-43.7-26.5-66.4s-11.9-53.4-19.9-70-2.1-4.1-5.5-3.5c2.5,39.6,14.7,90.8,36.3,124.6,1.4,2.3,12.8,18.4,15.6,15.3Z"/>
    <path class="st4" d="M3348.3,889.4l-99.6-186.6,211.6-277.1c.3,136.1,0,272.3-.3,408.5-37.1,18.6-74.7,36.4-111.7,55.2Z"/>
    <path class="st12" d="M2636.7,1676.9c25.9,5.8,52.5,2.3,78.4-2.6,46.4-8.8,101.6-29.4,144.2-49.7,38-18,81-41.6,108.2-73.7,4.6,2.1,17.3,64.2,28.4,67.6,11.3,3.4,9.1-7.1,13.6-5.6,19.2,16.8,5,44-6.5,61.4-69.8,105.9-307.7,198-400.2,79.4-17.8-22.7-14.6-41,3.9-62,3.4-3.8,8.9-10.4,14-10.9v35c0,8.2,16,8.1,16,2v-41Z"/>
    <path class="st11" d="M3424.3,335.8c11.9-1.1,24.1-2.4,36-4,0,31.3,0,62.6,0,93.9l-211.6,277.1,99.6,186.6c-6.2,3.2-42,24.2-44.7,23.7s-2.5-1.5-3.3-2.6c-26.6-59.5-51.7-120.1-82.3-177.7-1.5-2.8-.8-6.3-5.6-5.3-2.8-6.8-11.5-22.6-15.6-29.4-1-1.6.6-3.3-3.4-2.5l-133,125.9c.1-15.5-3.1-30.6-1-45.9,32.4-36.4,62.4-74.8,93.9-112,8.3-9.8,38.8-32.7,25.5-46-40.9-20.2-78.6-51.2-120.6-68.9-2.4-1-5.6-3.1-7.9-1-.8-.6-8.2,1.7-6-3,1.8-3.7,6.8-3.7,10-2.1l122.5,61.5,7.1,1.3,240.2-269.5ZM3418.3,381.8c-2.1-2.3-17.8,14.6-20,16.9-57.8,60.5-113.9,135.4-169.8,200-3.7,4.3-23,27-20,30.9,28.7-22.9,53.8-51.2,77.9-79,38-43.8,79.1-93.7,113.9-139.9,2.9-3.8,20.6-26.2,18.1-28.9ZM3202.4,641.6c-5.4-1-4.5,1.6-3.1,6.1,15.1,46.5,65.2,129.7,91.5,174.4,8,13.6,42.5,66.6,19.9,16-30-67.3-74.9-130.7-108.3-196.5Z"/>
    <path class="st8" d="M2342.8,1808.8c23.6,43.3,40.8,90.2,62.3,134.6,4.1,8.4,8.2,19.9,15.7,25.3-35.6,37.8-68.9,78.7-104.9,116-2.1,2.2-3.5,4.7-7,4-4.4-31.4-10.2-62.7-17.4-93.6-3.8-16.7-8.6-42.3-14.5-57.4-1.5-3.8-2.7-9.6-8.1-8.9l29.4,172.6c-44.6,51.7-92.9,100.8-141.3,149.2,18.5-111.4,40.7-225,85.6-329.1,27.6-64.1,41.4-78.1,100.3-112.6Z"/>
    <path class="st15" d="M2336.8,1790.8c-56.9,32.4-79.3,56.6-106.3,116.6-47.7,106-67.9,221.8-90.6,335.1-2.7-66.3-1.7-132.6-2.9-199-1.5-84.1-4.9-168.5-6.1-252.7,11.9-3.8,24.3-14.9,34-23,29.1-24.3,59.8-52.3,88-77.9,10.1-9.2,18.9-19.7,29-29l55,129.9Z"/>
    <path class="st15" d="M2368.8,427.7c-5.5,4-10.5-1-12,8-8.7-5-6.1-.3-4,6l-100,145.9c-37.1-33.9-74.2-70.2-111.9-103-2.5-2.1-20.2-16.8-22-15,.7,4.4,5.2,9.5,8,12.9,34.8,42.2,77.8,78,117.9,115l-131.9,189.9c-1.8-103-2.7-206-6.1-308.7-.2-4.9-.8-24.7,1-27.2l4.1-1.9c85.7-6.3,171.3-14.6,256.9-22Z"/>
    <path class="st8" d="M2314.8,2122.6l132-145c7.4-3.3,20.6,15.2,29.7,15.3l-77.7,297.6c-4.2-.4-8.7.5-12.9,0l-202.9-24c2.3-.1,5.5.8,7.5-.4,36.4-43.4,72.9-86.9,112.4-127.5,4.3,32.7,5.5,78.4,12.5,108.4,8.8,37.2,11.9,2.6,11.4-13.4-1.1-36.9-7.9-74.3-12-110.9Z"/>
    <path class="st15" d="M3408.3,1381.1c18,1.9,36.2,3,54,6v267.8l-182.9-75.9c6.2-15.1,31.2-45.9,31.1-60.9,0-2.8-1.3-6.2-2.1-9,19.8-39.4,41.5-76.3,74.9-106,7.9-7,20.2-12.9,25-21.9Z"/>
    <path class="st15" d="M2132.9,941.4l71.9,41,3.6,4.4c15.9,67.3,33.8,134.4,56.1,199.8l-34.1,48.2-60.7-1.7-48.9,4.1-4-279.8c7.2-1.6,13-9.5,16-16Z"/>
    <path class="st8" d="M3188.4,2160.6c-5.2,63.7-.9,126.9,10,189.9,2.5,3.3,3.6-.2,4-3,1.4-10.9.6-30.6,0-42.1-2-44.7-5.7-81.4-2.1-126.8l229.9,229.8c-75.9-8.9-152.1-16.5-227.9-26-7.5-27.5-24.3-51.4-35.7-77.2-19.9-45.1-40.8-107.8-34.1-157.4,5.6-41.3,42.6-.3,55.8,12.8Z"/>
    <path class="st15" d="M3462.3,1664.9v173.9c-8.1-6.4-12.3-16.4-19-24-22-25.2-51.8-43-80.9-59-43.9-24.1-90.6-43.8-136.8-63.1l-3.1-4.6,27.9-111.1c59.7,30.7,124.3,57.7,187.4,81.4,7.7,2.9,16.2,6.2,24.5,6.5Z"/>
    <path class="st11" d="M2314.8,661.6l-177.9,273.8c-1.5-.6-7.3-2.7-8-2-.8,3.6,2.5,4.9,4,8-3,6.5-8.7,14.4-16,16,2.1-8.4-2-20.4-2-27v-97.9c0-14-1.7-30.2-2-45l131.9-189.9c23.2,21.3,46.6,42.8,70,64Z"/>
    <path class="st11" d="M3056.5,1960.7c24.1,27.8,46.4,61.6,70,90.9,20.8,25.7,43.3,50.2,64.1,75.9,3,6.4-1.5,24.2-2.2,33.1-13.2-13.1-50.2-54.1-55.8-12.8-6.7,49.6,14.2,112.4,34.1,157.4,11.4,25.9,28.2,49.8,35.7,77.2-4.3-.5-15.4.6-18-3.4l-145.9-370.3c-4.8-.7-4.5.3-3.6,4.6,4.9,22.1,12.7,44.5,20.1,65.9,29.2,84.7,66.1,176.3,100.5,259.3,5.5,13.4,11.7,26.5,19,39l-13.1,1.1c-1.9.7-4.3-2-4.9-2-40.8-113.7-88.8-225.4-126.5-340.2-10.1-30.9-27.5-78.4-33-108.9-5.3-29.8,22.5-4.2,31.5,4.4,8,7.6,20.9,20.8,28,29Z"/>
    <path class="st11" d="M2336.8,1790.8l-55-129.9c-10,9.2-18.9,19.8-29,29-28.1,25.7-58.8,53.7-88,77.9-9.7,8.1-22.1,19.2-34,23-.3-25.3-.6-50.7,1-76,5.3-3.6,11.2-5.8,16.5-9.5,65.3-45.7,130.2-92.6,192.4-142.4l40.1,202.9c0,2.6-1.5,3.4-3.3,4.8-9.1,6.9-29.9,14-40.8,20.2Z"/>
    <path class="st7" d="M2916.1,1517.6c10.5-.8,34.7-2.3,43.2,3.6,11.3,7.8-13.7,30.4-19.9,35.8-54.9,48-219.7,115.8-291.6,105.8-22.5-3.1-11-18.3-1.2-28.8,47.7-51.7,199.8-110.8,269.5-116.3Z"/>
    <path class="st8" d="M3462.3,1904.7l-92.1-56.9c-5.4-6.9,11.3-12.1,10.1-21.1-9.2,0-18.2,13.7-26.4,11.6-50.3-28.6-99.5-59.7-151.6-84.8l14.2-46.7c50.5,21.1,101.7,42.1,149.2,69.6,25.7,14.9,49.6,30.2,68.6,53.3,3.7,4.6,28,39.4,28,41.9v33Z"/>
    <path class="st11" d="M3408.3,1381.1c-4.8,9-17.1,14.9-25,21.9-33.4,29.7-55.1,66.5-74.9,106-4.1-15.6-15.5-37.1-21.5-53.5-11-30.1-20.7-60.6-32.5-90.4,51.1,6.5,102.6,10.6,153.9,16Z"/>
    <path class="st11" d="M2314.8,2122.6c-.6-5.6-5.1-12.8-.1-19.1l144-155.9c3.6-2.1,34,24.5,42,23.1l-84.2,320.5c-1.5,5.6-13.4-.3-17.7-.7l77.7-297.6c-9.1-.1-22.3-18.7-29.7-15.3l-132,145Z"/>
    <path class="st11" d="M3192.4,1752.8c8.5,8.5,8.9,11.6,21.4,19.6,41.7,26.7,89.3,48,131.6,74.3,2,2.1,1.7,2.4-.3,4.2-6.5,5.6-17,12.4-22.7,17.9l-129.9-89.9c-13.4,52.9-29.3,107.6-47.9,158.9-5,13.8-12.3,36.8-19.1,48.9-6.9,12.4-8.4,7.2-19,6,13.2-36.2,28.6-71.7,40.5-108.4,14.2-43.6,27.8-91,37.4-135.4,1.4,2.3,7.3,3.3,8,4Z"/>
    <path class="st11" d="M2336.8,1483c-.4-1.8-4.5-25-7.7-12.7-2.3,8.9.9,20.2,1.7,28.7-3.9-.2-6.1-1.8-7.5-5.5-14.7-37.9-26.8-92.1-35.5-132.4-7.7-35.5-26.1-116.9-23-149.9,0-.7-.1-1.4,0-2l2-2c.5-1.4,1.6-2.7,2-4,4.6-.1,8.6-1.2,11.8,3.2s8.8,29,10.8,37.2c16.4,66.2,30.7,137.9,42.7,205.1,1.8,10.2,6.2,24.9,2.6,34.3Z"/>
    <path class="st11" d="M2468.8,419.7c1.9.1,6-.9,6,1-18.5,36.5-42.8,70.3-66,104-1.7,2.5-1.5,5.9-6,4.9-15.5-31.2-32-62-46-93.9,1.4-9,6.5-4,12-8,29.5-2.5,71.9-10.1,100-8Z"/>
    <path class="st11" d="M2342.8,1808.8c1.7-1,4.6-4.8,8.2-6.8,4.6-2.6,33.6-19.3,35.8-17.2,12.8,48.5,22,101.2,38.5,148.4,1.8,5.2,8.8,16.3,9.2,19,1.1,6.6-9.8,12.4-13.8,16.5-7.5-5.4-11.6-16.8-15.7-25.3-21.5-44.5-38.6-91.3-62.3-134.6Z"/>
    <path class="st11" d="M3200.4,2178.5c.4-4.8.5-34,5-33.9,48.1,53.2,92.2,110.2,139.9,163.9,31.2,35.1,62.6,71.3,99,100.9-3.9,1.2-9.5-.5-14-1l-229.9-229.8Z"/>
    <path class="st11" d="M3462.3,1960.7l-127.9-81.9c1.1-1.1,3.2-6.4,7-10,2.2-2.2,16.2-13.8,17.7-13.7l101.4,54.6c3.6,3.5,1.9,42.5,1.9,51Z"/>
    <path class="st11" d="M3130.4,361.8c-4.4,19.5-13.4,39.2-21.1,57.9-14,34.4-29.1,68.4-43.2,102.7-5.2,7.9-26.5,11.2-35.7,13.2,21.3-57.3,56.2-112.1,80.3-168.6,3.8-8.1,12.7-4.6,19.7-5.3Z"/>
    <path class="st11" d="M2302.8,2138.6c-39.5,40.6-76,84.1-112.4,127.5-2,1.2-5.2.3-7.5.4-9.5.6-18.7-1.3-28-3l144.9-144.9c3.9,6,2.1,13.6,3,20Z"/>
    <path class="st11" d="M3034.5,497.7c-5.2,11.2-14.4,29.2-18,40-4.8-.8-9.3,3-13.9,1-5.2-2.2-22.5-17.9-29.5-22.7-12.5-8.6-35.7-20.9-45.6-30.4-16.4-15.7,8.5-10.8,17.4-9.4,30.2,5,59,17.7,89.5,21.4Z"/>
    <path class="st10" d="M3208.4,2124.6l119.9,145.9c-37.5-42.6-74.8-87.2-111.1-131.8-2.9-3.5-9.8-4.9-10.4-11.5-.4-1.3,1.5-2.3,1.6-2.6Z"/>
    <path class="st15" d="M2264.9,1209.2c.3-1.4,2-1.9,2-2l-2,2Z"/>
    <path class="st2" d="M3050.5,547.6c2.3-2.1,5.5,0,7.9,1,42,17.6,79.6,48.7,120.6,68.9,13.2,13.4-17.2,36.2-25.5,46-31.4,37.2-61.5,75.6-93.9,112-2.1,15.3,1.1,30.4,1,45.9-.6,90.1-48.5,161.8-111.9,220.9-52.2,48.6-134.5,92.5-139.9,171.9-.7,10.3,3.9,25-3.1,32.9-6.8,7.6-69,18.1-82.2,19.7s-50.2,6-61.2-1.6c-8.2-5.7-19.7-68.4-21.2-81.3-22-189.9,151.8-158.1,235.3-277.9,58-83.3,54.8-228-72.7-226.6-83.7.9-166.6,55.4-221.9,114-11.1,11.7-21.4,36.3-41,31.1s-57.2-33.6-65.7-40.2c-28.7-22.1-17.7-36.7-2.5-64.1,68.8-123.8,271.5-211.4,406.6-162,70.9,25.9,127.6,83.5,157.8,152,7.4,16.7,11.8,34.4,18.6,51.3l114.9-134.8c-35.8-23.4-79.7-42.4-112.9-69-4.5-3.6-6.5-9.6-7.1-9.9ZM2906.6,955.4c-2.6-2.6,16.3-29.8,19.2-33.8,33-45.3,73.8-85.8,106.7-131.2,1.7-2.3,6.4-7.4,7-9,2.6-6.4-4.1-27.6-6.4-35.4-24.3-80.6-93.4-156.2-176-177.8-128.7-33.6-328.4,52.9-379.9,178.6-4.6,11.3-6,12.6,3.7,21.7,5.4,5.1,62.9,41.3,66.7,40.6,25.3-30.5,50.4-57.8,82.6-81.2,76.2-55.4,226.4-109.5,283.5-2.4,47.9,89.8-10.1,195.8-84.4,249.5-76.3,55.1-179.3,64.9-174.6,183.3.4,11.1,12.8,90.3,18,94,40.6,4.1,80.5-7.3,119.9-15.3-8.8-113.3,104.9-161.2,171.1-231.6,50-53.2,86.4-126.1,80.9-200.9-.2-3,1.6-5.8-3-4.9-42.6,50.7-82.1,104.2-126.9,153-1.2,2.2-7,4-8.1,2.9Z"/>
    <path class="st11" d="M2396.8,541.6l-72,109.9c-.4-.3-1.6.3-2,0-.7-.6-1.3-1.4-2-2-22.4-20.9-45.4-41.3-68-62l100-145.9c10.6,32.4,29,68.9,44,99.9Z"/>
    <path class="st2" d="M2748.2,1293.7c97.6-11.2,122.6,131.2,28.5,154.4-107.8,26.5-136.2-142-28.5-154.4ZM2750.1,1309.6c-90.1,10.9-58.9,152.9,30.4,120.4,67.1-24.4,42.1-129.1-30.4-120.4Z"/>
    <path class="st14" d="M2252.9,587.6c22.6,20.7,45.5,41.1,68,62l2,2c.4.3,1.6-.3,2,0,26.3,24.5,59.6,55.3,84,80.9,3.5,3.7,8.7,10,9.9,15-2.6,2.3-21.6-11.5-24.9-14-26.7-20.3-53.8-49-79-71.9-23.3-21.2-46.8-42.6-70-64-40.1-36.9-83.1-72.8-117.9-115-2.8-3.4-7.4-8.5-8-12.9,1.8-1.8,19.5,12.8,22,15,37.7,32.8,74.9,69.1,111.9,103Z"/>
    <path class="st14" d="M2356.8,435.7c14,31.9,30.5,62.7,46,93.9,20.4,41.3,42.3,82.6,58,125.9-4.1.9-4.5-2.1-6.4-4.5-17.6-22.4-44-81.3-57.5-109.4-15-31-33.4-67.5-44-99.9-2.1-6.3-4.7-11,4-6Z"/>
    <path class="st14" d="M3179.4,1473.1c4.4,0,3.1,17,2.5,20.5-2.8,16-43.8,80.7-60.4,77.4-2.4-2.2-3.9-2.5-2.1-6,2.4-4.7,16.3-15.3,21-21,9.4-11.5,20-30,26.4-43.6,2.2-4.6,7.7-27.2,12.6-27.3Z"/>
    <path class="st2" d="M3092.4,1666.9c4.3,3.1.5,22.6-.9,28-20,77.2-152,151.6-222.4,177.3-71.8,26.3-141.7,35.6-214.9,8-9-3.4-44-19.1-47.4-26.6-1-2.2-1.2-5.5,2.7-4.7,7.9,1.7,18.7,8.4,26.7,11.3,56.7,20.6,97.9,28.3,158.5,17.5,91.5-16.2,242.2-91.5,282.2-179.6s5.7-20.9,10.1-27.9c1.1-1.7,2.9-5.3,5.5-3.5Z"/>
    <path class="st14" d="M3106.4,1992.7c-.9,0-5.3,3.9-6,1-.8-11.1,2.3-22,5.4-32.5,10-34.1,26.1-70,37.1-104.8,11.5-36.2,21-90.2,37.3-122.6,8-15.9,5.5,8.9,4.1,15.1-9.7,44.5-23.3,91.8-37.4,135.4-11.9,36.7-27.3,72.2-40.5,108.4Z"/>
    <path class="st14" d="M2542.7,1704.9c1.1,1.1-2.3,24.9-1.9,30.9,1.1,18.5,10.4,33.4,11.9,51-6.6,1-9.3-4-12.4-8.6-11-16.2-15-44.8-8.6-63.3.9-2.7,6.6-14.5,11-10Z"/>
    <path class="st14" d="M2586.7,1834.8c-7.1,6.6-27.9-21.7-24-30,3.5-.7,4.9,1.8,7,4,2.8,2.9,20.1,23.1,17,26Z"/>
    <path class="st14" d="M2310.8,1551c-2.9,3.1-14.2-13.1-15.6-15.3-21.6-33.8-33.9-85-36.3-124.6,3.4-.6,4.2.7,5.5,3.5,8,16.6,13.3,50.3,19.9,70s18.4,44,26.5,66.4Z"/>
    <path class="st14" d="M3418.3,381.8c2.5,2.7-15.2,25-18.1,28.9-34.8,46.2-75.9,96.2-113.9,139.9-24.1,27.8-49.2,56.1-77.9,79-3-3.9,16.3-26.7,20-30.9,55.9-64.6,112-139.4,169.8-200,2.2-2.3,17.9-19.3,20-16.9Z"/>
    <path class="st14" d="M3202.4,641.6c33.4,65.8,78.3,129.2,108.3,196.5,22.6,50.6-11.9-2.4-19.9-16-26.3-44.7-76.3-127.8-91.5-174.4-1.4-4.5-2.4-7.1,3.1-6.1Z"/>
    <path class="st1" d="M2906.6,955.4c1.1,1.1,6.9-.7,8.1-2.9,44.8-48.8,84.3-102.3,126.9-153,4.5-.8,2.8,2,3,4.9,5.4,74.9-30.9,147.7-80.9,200.9-66.2,70.5-179.9,118.3-171.1,231.6-39.3,8-79.3,19.4-119.9,15.3-5.2-3.6-17.5-82.9-18-94-4.6-118.4,98.4-128.2,174.6-183.3,74.3-53.7,132.3-159.7,84.4-249.5-57.2-107.1-207.3-53-283.5,2.4-32.2,23.4-57.3,50.7-82.6,81.2-3.8.7-61.3-35.5-66.7-40.6-9.7-9.1-8.3-10.4-3.7-21.7,51.6-125.7,251.3-212.2,379.9-178.6,82.6,21.6,151.7,97.2,176,177.8,2.4,7.8,9,29,6.4,35.4-.6,1.6-5.4,6.7-7,9-32.9,45.4-73.7,85.9-106.7,131.2-2.9,4-21.7,31.2-19.2,33.8Z"/>
    <path class="st4" d="M2322.8,651.6l-2-2c.7.6,1.3,1.4,2,2Z"/>
    <path class="st1" d="M2750.1,1309.6c72.6-8.8,97.6,95.9,30.4,120.4-89.3,32.5-120.5-109.5-30.4-120.4Z"/>
  </g>
</svg>