<?xml version="1.0" encoding="UTF-8"?>
<svg xmlns="http://www.w3.org/2000/svg" viewBox="0 0 1600 1200">
  <defs>
    <style>
      .cls-1 {
        fill: #e0b1b1;
      }

      .cls-2 {
        fill: #ffb6a0;
      }

      .cls-3 {
        fill: #4d9681;
      }

      .cls-4 {
        isolation: isolate;
      }

      .cls-5 {
        fill: #a3b6d8;
      }

      .cls-6 {
        fill: #ffe1d8;
      }

      .cls-7, .cls-8 {
        fill: #b42c42;
      }

      .cls-8 {
        mix-blend-mode: multiply;
      }
    </style>
  </defs>
  <g class="cls-4">
    <g id="Layer_1" data-name="Layer 1">
      <rect id="backgrounds" class="cls-6" width="1600" height="1200"/>
      <g id="flowers">
        <g>
          <g>
            <g>
              <path class="cls-3" d="M1090.8486,848.5772c9.3467-19.0478,15.5851-40.1348,14.1813-61.3058-1.4038-21.171-11.2598-42.3967-28.8206-54.3047-6.1709-4.1845-13.429-7.2086-20.8781-6.8909-10.6895.4559-20.0254,7.6961-26.4792,16.2297-14.4974,19.1697-17.3319,46.4941-7.0778,68.2313,4.8984,10.3839,12.3856,19.2899,19.7883,28.066,10.0589,11.9252,20.1179,23.8503,30.1768,35.7755"/>
              <path d="M1078.8043,865.8608c-.12,0-.2409-.009-.3636-.0287-1.2503-.1988-2.103-1.3748-1.9033-2.6252,4.661-29.2372-3.0381-59.757-9.8308-86.6842-.3099-1.228.4344-2.4738,1.6624-2.7837,1.2271-.3108,2.4738.4344,2.7837,1.6624,6.9011,27.3554,14.722,58.3597,9.9132,88.5275-.18,1.1285-1.1545,1.9319-2.2616,1.9319Z"/>
            </g>
            <g>
              <path class="cls-3" d="M1070.7927,873.0039c16.9744-12.7299,36.531-22.7856,57.5932-25.3483,21.0621-2.5627,43.7518,3.1687,58.7213,18.2051,5.2604,5.2839,9.583,11.8519,10.6579,19.2299,1.5424,10.5875-3.8328,21.1082-11.0155,29.0381-16.1351,17.8133-42.4539,25.6859-65.7202,19.6586-11.1144-2.8793-21.2587-8.5773-31.2597-14.2164-13.5896-7.6626-27.1791-15.3252-40.7687-22.9878"/>
              <path d="M1058.3071,889.9246c-.9396,0-1.8209-.5822-2.1577-1.5173-.4281-1.1921.1899-2.5052,1.3811-2.9342,28.7419-10.3413,60.6625-8.43,88.8258-6.7435,1.2638.0752,2.2275,1.1617,2.1514,2.4255-.0752,1.2638-1.1545,2.2481-2.4255,2.1514-27.7208-1.6588-59.1434-3.5406-86.9986,6.4819-.2571.0923-.5186.1361-.7765.1361Z"/>
            </g>
            <path d="M934.5719,987.5736c-.8589,0-1.6821-.4846-2.0744-1.3121-.5419-1.1447-.0537-2.5114,1.0909-3.0542,63.7409-30.1929,128.9112-101.5953,172.3591-156.178,47.1684-59.2581,79.6165-112.0333,79.939-112.5591.6619-1.0793,2.0744-1.4196,3.1527-.7577,1.0802.661,1.4196,2.0726.7577,3.1527-.3233.5284-32.8924,53.5052-80.2274,112.9774-43.7595,54.9786-109.4699,126.9345-174.0178,157.5098-.3171.1496-.6511.2212-.9799.2212Z"/>
            <g>
              <path class="cls-8" d="M1167.8792,571.1315c4.5097-5.0047,10.234-9.0284,17.4458-11.6316,26.9818-9.7395,42.8756,35.5714,54.2847,56.1557,27.0913-3.0175,76.174-14.1063,77.8397,20.9824,1.6056,33.8244-33.715,55.769-59.8857,69.1302-5.7629,2.9422-79.3282,34.0364-80.5967,30.4662-10.8236-30.4631-19.987-62.1486-23.3885-94.3852-2.4089-22.8296-1.7062-52.9534,14.3009-70.7176Z"/>
              <path d="M1181.435,699.5968c-.0367,0-.0734-.0009-.1111-.0027-1.2647-.06-2.241-1.1348-2.1809-2.3995.8858-18.6003,3.4904-37.2919,6.0099-55.3682,1.1697-8.4004,2.661-18.0978,5.5495-26.8861.395-1.2038,1.6919-1.8576,2.8939-1.4626,1.2038.3959,1.8585,1.691,1.4626,2.8939-2.7703,8.4273-4.2213,17.8846-5.3641,26.0871-2.5052,17.9751-5.0954,36.5619-5.9714,54.9544-.0582,1.228-1.0721,2.1836-2.2884,2.1836Z"/>
              <path d="M1197.9708,701.904c-.4147,0-.8339-.112-1.2118-.3475-1.0739-.67-1.4017-2.0842-.7318-3.159,10.1685-16.302,23.8981-47.4837,30.3424-66.3786.4084-1.1993,1.7107-1.837,2.91-1.4304,1.1993.4084,1.8388,1.7116,1.4304,2.91-6.4989,19.0571-20.1202,50.2163-30.7921,67.3262-.4344.6968-1.1823,1.0793-1.9472,1.0793Z"/>
              <path d="M1202.1858,710.549c-.8428,0-1.6543-.4666-2.0547-1.2736-.5643-1.1339-.1021-2.5097,1.0318-3.073,23.1547-11.5102,43.9825-26.7965,61.9057-45.4353,1.1733-1.2217,2.1747-2.3126,3.0623-3.3355.8294-.9584,2.2786-1.0596,3.2342-.2302.9566.8294,1.0596,2.2777.2302,3.2342-.9387,1.0829-1.992,2.2302-3.2208,3.5092-18.2895,19.0203-39.5427,34.6192-63.1703,46.3632-.3278.163-.6753.2409-1.0184.2409Z"/>
            </g>
          </g>
          <path class="cls-3" d="M1170.1751,738.4635c-16.3685-10.5679-26.544-77.8097-13.111-83.0819,13.433-5.2718,21.4342,27.1066,21.4342,27.1066,0,0,20.269-23.9111,33.1871-14.7964,12.9176,9.1146,2.7249,37.9282,2.7249,37.9282,0,0,23.4444-7.9028,27.9923,4.3299,4.5483,12.2328-54.8661,39.7225-72.2275,28.5136Z"/>
        </g>
        <g>
          <g>
            <path class="cls-3" d="M523.9226,859.3616c-10.6026-18.3784-18.2407-38.9997-18.2593-60.2172-.0186-21.2175,8.3922-43.0562,25.1152-56.1146,5.8765-4.5888,12.9155-8.0927,20.3692-8.2751,10.6961-.2617,20.4963,6.3363,27.5077,14.4181,15.75,18.1547,20.4098,45.2276,11.6361,67.6033-4.1912,10.689-11.0645,20.0768-17.8622,29.3294-9.2369,12.5727-18.4737,25.1454-27.7106,37.718"/>
            <path d="M536.945,875.8045c-1.0452,0-1.9893-.7201-2.2329-1.7815-6.82-29.7737-1.095-61.2357,3.9562-88.9933.2266-1.2459,1.4196-2.0717,2.6664-1.846,1.2459.2266,2.0717,1.4205,1.8451,2.6664-4.9718,27.324-10.6074,58.2935-3.9974,87.1482.2826,1.2351-.489,2.4649-1.7233,2.747-.172.0394-.3444.0591-.5141.0591Z"/>
            <path class="cls-3" d="M545.5709,882.3888c-17.7896-11.5633-37.9764-20.2853-59.1629-21.4303-21.1866-1.1449-43.441,6.0947-57.3688,22.1009-4.8943,5.6246-8.7669,12.4677-9.3447,19.9012-.8291,10.6671,5.2393,20.8038,12.9375,28.2343,17.293,16.6915,44.0803,22.782,66.8903,15.2085,10.8964-3.6179,20.6359-9.9831,30.2363-16.2801,13.0453-8.5564,26.0906-17.1128,39.1359-25.6692"/>
            <path d="M559.0102,898.4397c-.2087,0-.4205-.0287-.631-.0887-28.4624-8.1326-59.688-4.1496-87.2378-.635-1.2598.1639-2.4044-.7291-2.5647-1.9839-.1603-1.2566.7282-2.4049,1.9843-2.5643,27.9882-3.5701,59.7095-7.6158,89.0775.773,1.2177.3484,1.923,1.6176,1.575,2.8348-.2875,1.0076-1.2056,1.6641-2.2033,1.6641Z"/>
            <path d="M689.0132,987.5736c-.2799,0-.5643-.0519-.8401-.1603-66.4521-26.1794-136.8392-93.5674-184.185-145.4891-51.2155-56.1645-87.2633-106.8394-87.6211-107.3445-.7322-1.0327-.4886-2.464.5446-3.1966,1.0336-.7309,2.4644-.4881,3.1966.5455.3569.5034,36.2695,50.9839,87.3049,106.946,47.009,51.5473,116.8198,118.4203,182.4411,144.2719,1.1782.464,1.7568,1.7958,1.2929,2.9736-.3556.9028-1.2199,1.4537-2.1339,1.4537Z"/>
          </g>
          <g>
            <g>
              <path class="cls-8" d="M427.348,586.838c-4.835-4.6911-10.8163-8.3219-18.1863-10.4358-27.574-7.9088-46.8467,36.4089-56.8501,57.7117-27.2327-1.1945-70.4961-7.011-69.8057,28.1104.6656,33.8559,37.3779,53.3833,64.3855,64.9599,5.9472,2.5492,81.4316,28.6416,82.4579,24.9944,8.757-31.1202,15.7756-63.3487,17.0083-95.7409.873-22.9398-1.8476-52.9487-19.0096-69.5998Z"/>
              <path d="M423.3976,716.7944c-1.1491,0-2.1406-.8616-2.275-2.0305-2.1075-18.2975-5.9374-36.6658-9.6414-54.4296-1.7685-8.4811-3.7734-17.4493-7.1017-25.6698-.4752-1.1742.0914-2.5105,1.2651-2.9861,1.1751-.4747,2.5101.0914,2.9857,1.2647,3.4707,8.5724,5.6087,18.1506,7.34,26.4544,3.7251,17.8649,7.5769,36.3371,9.7077,54.8416.1451,1.2584-.7573,2.395-2.0152,2.5401-.0891.0107-.1778.0152-.2651.0152Z"/>
              <path d="M413.3303,719.3095c-.8263,0-1.6247-.4487-2.0341-1.2324-3.0354-5.8093-7.9669-10.6548-12.7364-15.3409-.5598-.5499-1.1191-1.0999-1.6749-1.6498-14.9554-14.8116-27.9416-31.05-38.5982-48.2665-.6668-1.0766-.3341-2.4899.7425-3.1563,1.0766-.6646,2.4899-.3341,3.1563.7434,10.4672,16.9093,23.2273,32.8637,37.9265,47.421l1.6619,1.6373c5.0229,4.9351,10.2168,10.0386,13.5868,16.4892.5862,1.1223.1518,2.507-.9705,3.0936-.339.1773-.7022.2615-1.06.2615Z"/>
              <path d="M403.4301,729.1134c-.2938,0-.592-.0573-.88-.1764-24.3639-10.1362-46.6153-24.2752-66.1354-42.0255-1.3063-1.1877-2.4349-2.2616-3.4497-3.2835-.8921-.8992-.8867-2.3511.0121-3.2432.8984-.8912,2.3507-.8867,3.2428.0116.9588.9664,2.0318,1.9875,3.2799,3.1223,19.1296,17.3947,40.9355,31.2506,64.8121,41.1836,1.1688.4863,1.7224,1.8289,1.236,2.9978-.3663.8813-1.2194,1.4134-2.1178,1.4134Z"/>
            </g>
            <path class="cls-3" d="M434.6473,754.9982c15.6232-11.6414,21.2679-79.4141,7.5117-83.7739-13.7562-4.3594-19.5687,28.4826-19.5687,28.4826,0,0-21.8264-22.4985-34.1044-12.5383-12.2775,9.9601-.176,38.0255-.176,38.0255,0,0-23.9215-6.3133-27.6391,6.1968-3.718,12.5102,57.4056,35.9549,73.9765,23.6073Z"/>
          </g>
        </g>
      </g>
      <g id="leaves">
        <g>
          <path class="cls-3" d="M482.3044,410.1509c6.343,18.0806,4.4262,49.6082-9.8277,54.6088-14.254,5.0006-35.4475-18.4195-41.7905-36.5001-6.343-18.0806.0701-36.7916,14.324-41.7922,14.254-5.0006,30.9512,5.6029,37.2942,23.6835Z"/>
          <path class="cls-3" d="M455.1805,489.8031c16.6368,9.5058,35.8416,34.5824,28.3477,47.6981-7.4939,13.1157-38.8489,9.3039-55.4857-.2019-16.6368-9.5058-24.0485-27.8441-16.5546-40.9599,7.4939-13.1157,27.0558-16.0422,43.6926-6.5364Z"/>
          <path class="cls-3" d="M498.9037,468.8745c-2.1948,19.0348,6.6351,49.3613,21.6414,51.0916,15.0063,1.7303,30.5063-25.7908,32.7011-44.8257,2.1948-19.0348-8.1909-35.8683-23.1972-37.5986-15.0063-1.7303-28.9505,12.2978-31.1453,31.3326Z"/>
          <path class="cls-3" d="M506.3791,589.9244c18.7504,3.9451,44.7208,21.9229,41.6107,36.705-3.1101,14.782-34.123,20.7706-52.8735,16.8255-18.7504-3.9451-31.4294-19.1264-28.3193-33.9085,3.1101-14.782,20.8316-23.5671,39.5821-19.622Z"/>
          <path class="cls-3" d="M554.8605,551.9641c2.1814,19.0364,17.6621,46.5684,32.6695,44.8487,15.0075-1.7197,23.8587-32.04,21.6773-51.0764-2.1814-19.0364-16.1157-33.0743-31.1232-31.3546-15.0075,1.7197-25.4051,18.5459-23.2236,37.5823Z"/>
          <path d="M644.4866,676.2593c-.3556,0-.7156-.0914-1.0443-.2848-35.2265-20.6531-66.8703-46.6597-94.0533-77.2968-21.7414-24.504-40.6923-52.0068-56.3266-81.7451-26.6286-50.6507-34.51-90.845-34.5865-91.245-.2145-1.1223.5208-2.2056,1.6431-2.4205,1.1218-.215,2.206.5204,2.4205,1.6431.0757.395,7.8765,40.0994,34.256,90.232,24.3195,46.2176,69.8654,111.0181,148.739,157.264.9857.5777,1.3162,1.8451.7385,2.8303-.3851.6574-1.0766,1.0228-1.7864,1.0228Z"/>
          <path d="M590.0656,637.666c-.137,0-.275-.0134-.4116-.0412l-68.9725-14.0019c-1.1196-.2275-1.8433-1.3193-1.6158-2.4398.2279-1.1196,1.3224-1.837,2.4389-1.6158l66.2474,13.4493-5.9257-64.7754c-.1043-1.1379.734-2.1447,1.8715-2.2486,1.1429-.1075,2.1447.7344,2.2486,1.8715l6.1792,67.5448c.0596.6511-.1921,1.2915-.6789,1.7286-.3833.343-.8764.5284-1.3811.5284Z"/>
          <path d="M514.488,551.4708c-.2839,0-.5687-.0582-.8352-.176l-56.9741-25.1382c-1.0452-.4613-1.5186-1.6825-1.0573-2.7277.4608-1.0452,1.6821-1.5186,2.7277-1.0573l54.5576,24.0719,9.7444-55.5554c.197-1.1254,1.2674-1.8769,2.395-1.6803,1.1254.1975,1.8778,1.2696,1.6803,2.395l-10.2007,58.1569c-.1097.6265-.5016,1.1675-1.0627,1.4671-.3036.1626-.6391.2441-.9749.2441Z"/>
        </g>
        <g>
          <path class="cls-3" d="M1108.563,355.9809c-4.5776,18.6061.3575,49.804,15.0258,53.4128,14.6683,3.6088,33.5151-21.738,38.0927-40.3441s-3.6024-36.6149-18.2707-40.2237c-14.6683-3.6088-30.2702,8.5489-34.8478,27.155Z"/>
          <path class="cls-3" d="M1143.2097,432.6607c-15.6472,11.0593-32.3555,37.8641-23.6368,50.1996,8.7187,12.3356,39.5628,5.5307,55.2099-5.5286,15.6472-11.0593,21.2638-30.0246,12.5451-42.3602-8.7187-12.3356-28.4711-13.3702-44.1183-2.3109Z"/>
          <path class="cls-3" d="M1097.679,416.0271c4.0124,18.7361-1.8648,49.7703-16.6356,52.9335-14.7708,3.1632-32.8418-22.7425-36.8541-41.4786-4.0124-18.7361,4.709-36.4891,19.4798-39.6523s29.9975,9.4612,34.0099,28.1973Z"/>
          <path class="cls-3" d="M1101.8613,537.2354c-18.285,5.7273-42.4091,26.1157-37.894,40.5308,4.5151,14.4151,35.9597,17.3982,54.2447,11.6709,18.285-5.7273,29.4477-22.0559,24.9325-36.471-4.5151-14.4151-22.9983-21.458-41.2833-15.7307Z"/>
          <path class="cls-3" d="M1049.959,504.1056c-.3435,19.1579-13.109,48.0491-28.2122,47.7784-15.1033-.2708-26.825-29.601-26.4815-48.7589.3435-19.1579,12.8655-34.4689,27.9688-34.1981,15.1033.2708,27.0684,16.0208,26.725,35.1787Z"/>
          <path d="M972.4827,636.4425c-.6413,0-1.2727-.2974-1.6776-.8563-.67-.9252-.4631-2.2186.4631-2.8885,74.1216-53.6432,113.2425-122.5776,133.0089-170.96,21.4127-52.4112,25.3393-92.5643,25.376-92.9637.1057-1.1384,1.1088-1.9691,2.2517-1.8684,1.1375.1061,1.974,1.1142,1.8684,2.2517-.0376.4057-4.0233,41.171-25.6653,94.1451-12.7068,31.102-28.9291,60.2975-48.2172,86.7756-24.1158,33.1056-53.1165,62.0311-86.197,85.9713-.3663.2651-.7909.3932-1.2109.3932Z"/>
          <path d="M1022.9471,592.8013c-.4362,0-.867-.1379-1.2271-.4026-.5258-.3878-.8383-1.0018-.8419-1.6556l-.335-67.826c-.0054-1.1424.9163-2.0735,2.0591-2.0788h.0099c1.1384,0,2.0627.9194,2.069,2.0582l.3206,65.0454,64.65-19.7476c1.09-.3318,2.249.2803,2.5831,1.3744.3341,1.0923-.2812,2.249-1.3739,2.5826l-67.3092,20.56c-.1988.0605-.4022.09-.6046.09Z"/>
          <path d="M1089.8989,499.748c-.2696,0-.5401-.0524-.7954-.159-.5867-.2445-1.0291-.7452-1.1984-1.3583l-15.7377-56.9088c-.3045-1.1012.3412-2.2405,1.442-2.545,1.1061-.3041,2.241.3421,2.5455,1.4425l15.0337,54.3628,51.9942-29.2c.9969-.5584,2.2571-.2051,2.8169.7909.5589.996.2051,2.2571-.7909,2.8169l-54.297,30.4934c-.3135.176-.6628.2647-1.013.2647Z"/>
        </g>
      </g>
      <g id="hearts">
        <path class="cls-8" d="M961.6222,321.3167c13.5327,4.9886,43.3433-29.2378,36.2881-40.7094-7.0554-11.4717-28.1947,4.6168-28.1947,4.6168,0,0-8.9488-23.1907-21.1182-18.2865-12.1691,4.9044,3.7859,50.9736,13.0248,54.3791Z"/>
        <path class="cls-8" d="M918.7559,227.6171c21.4796,7.9181,68.7963-46.4075,57.598-64.6157-11.1987-18.2084-44.7519,7.3279-44.7519,7.3279,0,0-14.2039-36.8093-33.5196-29.025-19.3153,7.7845,6.0091,80.9074,20.6735,86.3128Z"/>
      </g>
      <g id="girl">
        <path d="M671.0292,637.0982c-.3968,0-.79-.1702-1.0623-.5007-2.8128-3.4089-6.6002-5.7161-10.61-8.1577-2.8496-1.7358-5.7963-3.5298-8.3816-5.7663-6.1761-5.3426-10.044-13.0785-10.6123-21.2246-.9216-13.2303,7.3762-23.47,15.401-33.372,2.2562-2.7837,4.387-5.4134,6.2961-8.0865,8.0843-11.3212,11.1291-21.5963,9.0498-30.5395-.172-.7403.2884-1.4796,1.0282-1.6516.7371-.172,1.4792.288,1.6516,1.0282,2.266,9.7471-.927,20.7696-9.4905,32.7616-1.9579,2.7416-4.1142,5.4027-6.3977,8.22-7.6888,9.4882-15.6401,19.2998-14.7933,31.4481.5173,7.4215,4.0408,14.4686,9.6674,19.3347,2.412,2.0869,5.2589,3.8209,8.0122,5.4976,4.0283,2.4532,8.1935,4.9897,11.3019,8.7578.4832.5858.4004,1.4528-.1859,1.9364-.2562.2114-.5665.3144-.8746.3144Z"/>
        <path d="M941.5491,598.5232c-.172,0-.3457-.0322-.5141-.0999-.7049-.2839-1.0461-1.0855-.7622-1.7904,12.4981-31.0334,14.5098-68.9039,6.1505-115.7754-1.4125-7.919-3.2387-17.0512-7.0516-25.2098-8.4461-18.0718-27.4978-31.0446-47.4066-32.282-.7586-.047-1.3354-.7-1.288-1.4586.0475-.7577.7058-1.3363,1.4581-1.2875,20.8842,1.2978,40.8692,14.9061,49.73,33.8628,3.9526,8.4605,5.8236,17.8009,7.2665,25.8923,8.4533,47.3946,6.3906,85.7595-6.3064,117.2864-.2159.5361-.7318.8621-1.2763.8621Z"/>
        <path d="M942.4415,573.797c4.1591-5.0213,3.596-21.9128,4.2828-27.9786,2.253-19.8989,3.2884-40.2738.9751-60.2161-2.096-18.0688-6.6854-39.1819-21.262-51.554-7.3759-6.2604-18.531-4.9762-24.9159-9.7327-10.4367-7.7919-7.9843-29.8789-9.0099-41.1127-5.7866-63.3764-61.4464-125.3768-123.6081-138.0681-39.7514-8.1159-75.7461,9.87-92.0934,46.7878-2.6398,5.9616-5.302,17.583-12.2792,20.1091-25.4037,9.1977-48.7895,36.8278-52.4636,66.904-5.2107,42.6556,5.9338,86.1432,28.9212,122.2127,17.7179,27.8012,20.2034,37.5447,9.1496,70.7251-9.5967,28.8075,2.7986,44.0578,24.8379,60.2753,1.1469.8439,2.3527,1.764,2.8443,3.1004,1.1571,3.1454-2.1163,6.0008-4.8536,7.9347-18.7654,13.2574-30.9405,35.4123-32.0718,58.3604-1.1312,22.9482,8.8059,46.1931,26.1765,61.2318,2.914,2.5228,6.1371,4.8801,9.8861,5.7754,9.1619,2.1879,17.7301-4.7123,24.9095-10.8101,24.5262-20.8316,52.7461-39.1331,83.4703-49.2164,73.4877-24.1178,70.965-41.5314,92.5665-62.5275,21.3014-20.7043,63.3505-70.7852,64.5379-72.2005Z"/>
        <g>
          <path class="cls-7" d="M959.6947,944.0743c-.0184-.0762-.0367-.1521-.0549-.2277-1.8212-7.5435-.9544-15.4592,2.4415-22.4369,14.73-30.267,54.1689-120.211,46.0108-200.6361-4.4205-43.5789-10.1356-92.1437-34.6695-129.6724-24.9897-38.223-70.2584-44.2172-111.6148-32.2369-22.8301,6.6135-45.7656,14.6154-68.5916,23.173-29.2706,10.9738-58.3612,22.8614-86.8187,33.9071-28.6128,11.106-78.1814,28.0316-89.3427,60.5853-17.0198,49.641-19.9441,97.8724,30.4498,225.9417.6115,1.554.7755,3.2519.4523,4.8903-2.3217,11.7662-12.2306,63.0374-17.3145,106.2338-.4502,3.8248,1.6289,7.4865,5.1543,9.0366,31.0117,13.6359,180.0256,71.5783,330.6084.2183,3.5501-1.6824,5.5763-5.4975,4.9279-9.3722l-11.5119-68.7866c-.0343-.2048-.0775-.4155-.1262-.6174Z"/>
          <path d="M807.9213,1059.7767c-17.023,0-34.3241-1.0632-51.8984-3.1939-59.7426-7.245-104.538-24.8869-121.024-32.1356-4.339-1.9087-6.8809-6.3628-6.3247-11.0839,5.1416-43.6878,15.345-96.2858,17.3383-106.3853.2481-1.2566.1263-2.5643-.3524-3.7815-48.9745-124.4625-48.6892-174.1996-30.4804-227.3099,10.7054-31.2238,55.0659-48.211,84.42-59.4515,2.1106-.8079,4.1438-1.5871,6.0802-2.3386,10.6669-4.1398,21.6388-8.4842,32.2498-12.6853,17.8367-7.0623,36.2811-14.3651,54.5908-21.2299,26.4929-9.9325,48.3346-17.311,68.736-23.2206,48.5486-14.0646,91.0972-1.7062,113.8247,33.0559,25.7325,39.3618,31.0787,92.0708,34.9829,130.5575,8.0896,79.7455-29.6143,167.6228-46.2002,201.7028-3.1868,6.5464-4.0027,14.0413-2.2974,21.1046l.0537.2239c.0609.2499.1137.5087.1558.7622l11.5111,68.7835c.7882,4.7085-1.6928,9.434-6.0341,11.4905-49.3287,23.3769-102.7453,35.1333-159.3316,35.1351ZM899.1537,555.2474c-11.6454,0-23.9958,1.8133-36.7939,5.5209-20.302,5.8805-42.0515,13.229-68.4476,23.1247-18.276,6.8518-36.703,14.1479-54.5236,21.2035-10.6168,4.2038-21.5949,8.5505-32.2744,12.6956-1.9418.7541-3.9803,1.5343-6.0968,2.3449-28.6649,10.9773-71.9837,27.565-82.0877,57.0359-17.8954,52.194-18.1041,101.2576,30.419,224.5727.7568,1.9239.9476,3.9982.5526,6.0001-1.9884,10.0744-12.1663,62.5389-17.2908,106.0816-.3507,2.979,1.2503,5.7887,3.9839,6.9907,28.5381,12.5483,178.5244,71.5332,328.9611.2409,2.7479-1.3014,4.3189-4.284,3.8227-7.254l-11.512-68.7862c-.0269-.1594-.06-.3215-.0976-.4765-.0009-.0045-.0027-.0099-.0036-.0143l-.0546-.2275c-1.9176-7.9454-.9996-16.3862,2.5885-23.7584,16.4381-33.7755,53.808-120.8341,45.8204-199.5685-3.8621-38.081-9.1519-90.2338-34.3559-128.7876-15.7798-24.1364-41.686-36.9386-72.6098-36.9386Z"/>
        </g>
        <g>
          <path class="cls-2" d="M719.8089,731.7126c.004-.0442-7.8912-2.5822-8.3419-2.7582-6.9195-2.701-13.5551-6.1903-19.6541-10.4334-13.8924-9.6649-22.2584-23.8829-38.8814-29.6485-8.0657-2.7975-16.7788-3.0018-25.2176-3.4913-11.0945-.6436-22.2789-.9314-33.3307-2.1164-3.301-.354-5.6345.4728-7.5996,3.1771-1.7673,2.4321-1.6131,5.1861.3054,7.5595,1.34,1.6577,3.2417,2.7644,5.1849,3.6404,4.6592,2.1002,9.2759,3.5977,14.3246,4.4948,3.3691.5987,7.2889,1.3141,10.6938.5574-10.4874,1.0521-29.9,2.2415-36.7809,11.272-3.0361,3.9846-.3293,15.2345,6.0974,11.5623,0,0-7.6114,10.9414,4.2814,17.1257,0,0-3.33,10.4657,5.2329,14.7471,0,0-4.2814,10.9414,7.1357,14.2714,11.4171,3.33,17.6014-9.5143,36.1543-9.5143s52.8043,8.714,64.6971,10.0656,15.6976-40.5006,15.6986-40.5113Z"/>
          <path d="M704.6838,774.2388c-.2638,0-.5293-.0152-.7971-.0457-4.1657-.4738-10.9397-1.8164-18.7834-3.3713-15.0158-2.9772-33.7034-6.6817-45.6901-6.6817-8.8913,0-14.7977,3.1196-20.0087,5.8729-5.2898,2.7945-10.2858,5.4331-16.7001,3.563-3.9476-1.1518-6.6978-3.2575-8.1738-6.2607-1.648-3.3516-1.219-6.9423-.7438-8.979-5.6879-3.7761-6.0336-10.4864-5.1881-14.7059-3.2392-2.0117-5.2674-4.6028-6.0354-7.7197-.7129-2.8903-.1742-5.6731.5741-7.7797-1.236-.2365-2.3762-.9037-3.3247-1.9866-2.9888-3.4116-3.4232-10.0386-.8778-13.3794,4.3583-5.7197,12.8815-8.4873,21.4615-10.0261-2.9772-.8473-5.9356-1.9373-8.9365-3.2907-1.6991-.7658-4.1613-2.0341-5.9118-4.2007-2.5105-3.1062-2.648-6.833-.3672-9.9705,2.296-3.1608,5.2885-4.4255,9.4143-3.9821,7.8411.8401,15.9048,1.2333,23.7024,1.614,3.181.155,6.3601.3099,9.5312.4944.8612.0493,1.7255.0967,2.5912.1433,7.6978.4183,15.6576.8509,23.1614,3.4537,10.7878,3.7421,18.2953,10.9692,25.5551,17.959,4.2858,4.1263,8.7175,8.3933,13.8089,11.9347,5.8733,4.086,12.3476,7.5227,19.2429,10.2142.2239.0824,2.065.6834,3.5446,1.1653,1.1254.3672,2.301.7506,3.1948,1.0452,1.9306.6359,2.9964.987,2.8563,2.5652-.0528.6162-2.8728,32.7607-12.3136,40.5091-1.4953,1.2271-3.1021,1.846-4.7864,1.846ZM639.4131,760.176c12.3758,0,31.2753,3.7466,46.4608,6.7569,7.7578,1.5379,14.4574,2.8661,18.4605,3.3211.8755.1012,1.7273-.1979,2.6024-.9109,6.2513-5.0919,9.7184-26.5887,10.7448-36.261-.9301-.3063-2.1608-.7076-3.1778-1.0399-2.7152-.8849-3.5379-1.1554-3.7564-1.2405-7.1864-2.8052-13.937-6.3897-20.0665-10.653-5.3498-3.7224-9.8966-8.0995-14.2939-12.3333-7.2719-7.0014-14.1399-13.6132-24.105-17.0696-6.9768-2.4201-14.6535-2.8375-22.0772-3.2405-.8706-.0475-1.7394-.0949-2.6055-.1451-3.1595-.1827-6.3261-.3377-9.4949-.4917-7.8545-.3833-15.9764-.7792-23.9326-1.6328-2.7443-.2947-4.3135.3484-5.7847,2.3717-1.5329,2.1093-.7134,3.9642.2436,5.1483.9279,1.1482,2.3444,2.1263,4.4582,3.0784,4.7161,2.1263,9.1192,3.5092,13.8568,4.3511l.1406.0251c2.1608.3842,4.5173.8025,6.7358.8276.2844-.0278.5652-.0537.8424-.0806.8522-.0815,1.665-.1585,2.4299-.2356,1.0506-.112,1.9884.6225,2.155,1.6579s-.5029,2.0215-1.5271,2.249c-1.2136.2705-2.4577.3771-3.7054.3771h-.0439c-10.2204.9825-26.2345,2.7461-31.8848,10.1613-1.382,1.8137-.9928,6.4264.7058,8.3655.5737.6538,1.3135,1.1402,2.8312.275.8034-.4622,1.82-.3009,2.4456.3824s.6941,1.7098.1648,2.4702c-.0246.0367-2.846,4.2132-1.8182,8.3243.5929,2.3717,2.4058,4.3601,5.3874,5.9114.8554.4442,1.2669,1.4402.9745,2.3592-.1115.3574-2.687,8.9146,4.2302,12.3736.9172.4577,1.3332,1.5405.9597,2.4944-.013.034-1.5374,4.1075.1299,7.4663.9682,1.9499,2.8912,3.357,5.7148,4.1801,4.8747,1.4232,8.5912-.5428,13.7386-3.262,5.3404-2.8204,11.9862-6.3315,21.8605-6.3315Z"/>
        </g>
        <g>
          <path class="cls-2" d="M731.2792,498.3187c3.0848,15.5167,6.5341,30.9871,10.2223,46.389,7.8584,32.8182,10.6399,77.0225,48.9354,81.2151,16.6407,1.8219,35.7802-4.8919,41.1317-23.3586,6.1797-21.3246-7.5521-49.8524-12.9607-70.8073-.786-3.0452-13.6715-51.471-14.2568-51.3277-.0002,0-73.072,17.8893-73.0719,17.8894Z"/>
          <path d="M795.7935,628.197c-1.8746,0-3.7381-.103-5.5724-.3036-34.1732-3.7412-41.2198-37.8477-47.4371-67.9389-1.0681-5.1707-2.0775-10.0543-3.2101-14.7852-3.9687-16.572-7.318-31.7706-10.2388-46.4644-.2069-1.0408.442-2.0596,1.4729-2.3117l73.0719-17.8891c1.9122-.4729,2.4425,1.2275,3.1115,3.3753.395,1.266.9431,3.1295,1.6292,5.5374,1.1679,4.0941,2.7479,9.8004,4.696,16.9603,3.3641,12.3651,6.799,25.2913,7.2101,26.8843,1.3345,5.1711,3.1796,10.8017,5.134,16.7628,5.915,18.0481,12.619,38.5042,7.812,55.0914-5.1232,17.6777-21.7682,25.0813-37.6793,25.0813ZM733.595,499.7923c2.8227,14.066,6.0448,28.6308,9.834,44.4536,1.1473,4.7914,2.1626,9.705,3.2374,14.9065,6.2343,30.1727,12.6804,61.3723,43.9865,64.8,15.7503,1.7242,33.926-4.3905,39.0116-21.9402,4.4667-15.4117-2.035-35.2502-7.7708-52.7538-1.974-6.0229-3.8388-11.7122-5.2056-17.0064-1.2315-4.7726-11.0758-41.5906-13.5648-49.4815l-69.5282,17.0217Z"/>
        </g>
        <g>
          <polyline class="cls-5" points="822.5632 766.4398 714.1004 717.9169 689.839 779.2841 769.7589 836.3698"/>
          <polygon points="768.6065 837.9833 687.4261 779.9961 713.0189 715.261 823.3733 764.6301 821.7539 768.2486 715.1819 720.5723 692.252 778.572 770.911 834.7571 768.6065 837.9833"/>
        </g>
        <g>
          <path class="cls-2" d="M887.5187,730.5237c-.2797.4849-.4283.7417-.4283.7417,0,0,23.663,36.6259,27.4895,29.9228,3.8266-6.7031,26.3896-26.8663,59.7336-35.9753,33.3441-9.109,37.1953-15.4562,43.6369-20.5526s-.321-15.1124-.321-15.1124c3.6582-9.3086-4.5169-18.528-4.5169-18.528,1.8-10.1389-8.5067-13.2976-8.5067-13.2976,4.714-10.9037-5.185-18.0014-15.057-15.8818-4.7854,1.0275-9.3183,3.2273-13.6271,5.4842-2.1159,1.1083-9.5307,3.8562-10.5372,5.9059l-4.4296,3.1687s9.7248-19.6299,12.8991-30.5795-9.8368-12.9079-16.1055-5.32c-6.2687,7.5879-15.7364,25.7694-23.083,38.4391-7.3466,12.6697-9.9326,21.7902-21.9557,34.0691-12.0231,12.2789-31.1503,30.4154-31.1503,30.4154"/>
          <path d="M913.2497,763.9897c-6.6557.0009-21.6625-22.1113-27.8247-31.6483-.4039-.6252-.4236-1.4241-.0511-2.0681l.429-.7416c.549-.9476,1.76-1.2692,2.7085-.7237.8357.4837,1.1868,1.4841.8813,2.3637,8.9566,13.7216,20.1874,28.0648,23.5891,28.8225,4.3879-7.2755,27.5157-27.5981,60.8094-36.6936,28.4696-7.7771,35.0581-13.4645,40.3524-18.0351.867-.7479,1.6856-1.4546,2.5768-2.1603,4.9172-3.8899-.678-12.3647-.7353-12.4506-.3618-.5401-.438-1.2262-.2006-1.8307,3.1769-8.0843-4.0815-16.4059-4.155-16.4892-.4013-.4532-.5741-1.0649-.4684-1.6615,1.4653-8.2509-6.7909-10.9468-7.1429-11.057-.5356-.1684-.9781-.5571-1.2118-1.0676-.2329-.5105-.2427-1.0972-.0197-1.6122,1.6274-3.7654,1.3686-7.1187-.7479-9.6983-2.5249-3.0775-7.3767-4.4676-12.0736-3.4591-4.6924,1.0067-9.2343,3.2647-13.1233,5.3014-.5822.3045-1.4626.6941-2.4828,1.1447-1.7886.79-6.5419,2.8894-7.2128,3.9123-.1451.2938-.3421.515-.6082.7058l-4.4291,3.1689c-.7407.5284-1.7448.4872-2.438-.1021-.6923-.5893-.8957-1.5746-.4917-2.3896.0967-.1953,9.6821-19.5989,12.7704-30.252.9234-3.1841.2714-5.5513-1.8352-6.6646-2.756-1.4572-7.6803-.6628-10.8375,3.1581-4.5195,5.4716-10.7596,16.6155-16.7946,27.393-2.1487,3.837-4.1783,7.4609-6.1013,10.7784-1.9803,3.4134-3.6122,6.5715-5.1904,9.6248-4.172,8.0708-8.112,15.6938-17.0651,24.8368-11.9106,12.1649-31.0106,30.2851-31.2023,30.4669-.7945.7524-2.0493.7201-2.8025-.0743s-.7201-2.0493.0743-2.8025c.1917-.1809,19.2398-18.2519,31.0984-30.363,8.5366-8.7184,12.1694-15.7467,16.3754-23.8838,1.5997-3.0954,3.2548-6.2965,5.2826-9.7932,1.9078-3.2916,3.9302-6.9038,6.0717-10.7274,6.121-10.9307,12.4497-22.2331,17.1977-27.9797,4.0188-4.8653,10.937-6.6843,15.7467-4.1389,3.8325,2.026,5.2495,6.2401,3.7905,11.2728-1.9669,6.7838-6.3144,16.6576-9.4502,23.4145,1.6274-1.0202,3.8397-2.035,6.4497-3.1877.9548-.4219,1.7806-.7864,2.2454-1.03,4.1201-2.1577,8.9504-4.5536,14.13-5.666,6.2016-1.3327,12.4739.5589,15.9706,4.8205,2.6915,3.2808,3.3865,7.4403,2.0278,11.8747,3.9723,1.9131,8.9549,6.3619,8.0699,13.8443,1.8934,2.4246,7.331,10.3897,4.6145,18.8734,1.6453,2.8187,5.9911,11.6562-.6359,16.8994-.8249.652-1.6122,1.3319-2.4461,2.052-5.597,4.8312-12.5617,10.8438-41.8983,18.8582-32.5099,8.8814-54.7412,28.4015-58.5344,35.0456-.6494,1.1375-1.7045,1.7824-2.97,1.8173-.0269.0009-.0546.0009-.0815.0018Z"/>
        </g>
        <g>
          <path class="cls-1" d="M1004.606,657.7223s-15.2956,5.2929-24.1052,12.3418"/>
          <path d="M980.5015,672.0461c-.5813,0-1.1572-.2544-1.5486-.7434-.6843-.8554-.5455-2.1021.309-2.7864,8.9737-7.1796,24.0576-12.4462,24.6953-12.6665,1.0354-.3601,2.163.1899,2.5213,1.2244s-.1899,2.163-1.2244,2.5213c-.1496.0519-15.0803,5.2674-23.5148,12.0162-.3654.292-.8034.4344-1.2378.4344Z"/>
        </g>
        <g>
          <path class="cls-1" d="M1013.1127,671.0199s-14.679,10.0829-25.9248,12.9475"/>
          <path d="M987.1859,685.9504c-.884,0-1.691-.5974-1.9194-1.494-.2696-1.0605.3708-2.1397,1.4322-2.4102,10.7677-2.7425,25.1476-12.5617,25.2918-12.6602.9019-.6198,2.1371-.3896,2.756.5114.6198.9028.3905,2.1362-.5114,2.756-.6108.4201-15.1018,10.3172-26.5583,13.2352-.1639.0412-.3287.0618-.4908.0618Z"/>
        </g>
        <g>
          <path class="cls-1" d="M1017.6295,689.548s-18.0436,8.1609-24.7075,10.0539"/>
          <path d="M992.9208,701.5851c-.8643,0-1.6579-.5696-1.906-1.4411-.2992-1.0533.3126-2.1496,1.365-2.4487,6.4488-1.8316,24.2537-9.872,24.4328-9.9526.9978-.4514,2.1729-.009,2.6225.9888.4514.9978.009,2.172-.9888,2.6225-.7425.3359-18.2545,8.2437-24.9828,10.155-.1809.0511-.3636.0761-.5428.0761Z"/>
        </g>
        <g>
          <path class="cls-1" d="M596.1232,757.4012s14.2714-7.3736,25.2129-9.0386"/>
          <path d="M596.1252,759.3833c-.7179,0-1.4107-.3905-1.7627-1.073-.5025-.9718-.1214-2.1675.8509-2.67.5947-.3072,14.6889-7.5424,25.8243-9.237,1.09-.1612,2.0932.5804,2.258,1.6615.1644,1.082-.579,2.0932-1.6615,2.258-10.486,1.5952-24.4611,8.7677-24.6012,8.8393-.2906.1505-.6014.2212-.9078.2212Z"/>
        </g>
        <g>
          <path class="cls-1" d="M590.8904,742.6541s21.645-5.4707,28.5429-6.8979"/>
          <path d="M590.8891,744.6371c-.8863,0-1.6933-.5992-1.9203-1.4976-.2683-1.0614.3744-2.1388,1.4358-2.4075.8858-.223,21.766-5.4976,28.6268-6.9163,1.0779-.2168,2.1214.4675,2.3426,1.5396.2217,1.0721-.4675,2.1209-1.5392,2.3422-6.7766,1.4017-28.2426,6.8241-28.4584,6.8787-.163.0412-.3265.0609-.4872.0609Z"/>
        </g>
        <g>
          <path class="cls-1" d="M586.609,725.5283s22.5964-5.2329,32.8243-5.7086"/>
          <path d="M586.607,727.5111c-.9019,0-1.717-.6198-1.9293-1.5361-.2468-1.0658.4174-2.1308,1.4841-2.378.9297-.215,22.8901-5.2782,33.179-5.7573,1.0976-.0278,2.0215.7945,2.0721,1.8881.0511,1.0936-.7945,2.0215-1.8876,2.0726-9.9329.4613-32.2453,5.6069-32.4696,5.6588-.15.0349-.3005.0519-.4487.0519Z"/>
        </g>
        <path d="M627.7789,468.1225c-.5598,0-1.086-.3444-1.2911-.9006-2.9131-7.9069-6.7524-15.6155-10.4654-23.0705-2.5549-5.1295-5.1962-10.4332-7.5312-15.7856-7.0937-16.2599-9.6548-30.1266-7.8308-42.3923.7268-4.8832,2.1872-9.9576,4.5966-15.9684,4.5688-11.4009,15.1905-31.2856,34.995-36.3662,1.7989-.4613,3.6534-.7918,5.4465-1.1111,3.9938-.7121,7.7668-1.3843,10.9638-3.3852.6449-.4022,1.4935-.2073,1.8961.4362.403.644.2078,1.4931-.4362,1.8961-3.6494,2.2839-7.8648,3.035-11.941,3.7613-1.7434.3108-3.5459.6319-5.2459,1.0681-18.6285,4.7788-28.7495,23.8072-33.1244,34.7245-2.3274,5.8066-3.7349,10.6839-4.4286,15.3495-1.7465,11.7399.7497,25.114,7.6311,40.8875,2.3068,5.288,4.9324,10.5603,7.4716,15.6589,3.7461,7.5209,7.6194,15.298,10.585,23.346.2624.7129-.1026,1.5038-.8155,1.7667-.1567.0578-.3175.0851-.4756.0851Z"/>
        <circle cx="644.0253" cy="282.5121" r="39.2978"/>
        <g>
          <path class="cls-7" d="M822.5632,766.4398l-108.4629-48.5229-24.2614,61.3671s79.9084,57.0774,79.92,57.0857c5.1568,3.6835,9.5664,9.7095,14.118,14.1107,11.6138,11.2304,23.6037,22.0822,35.9963,32.4479,27.4412,22.9532,59.7768,48.9562,95.6337,56.5441,17.6353,3.7317,32.3526-4.9264,42.9315-18.6143,6.7162-8.6901,11.8715-18.6292,16.6507-28.483l9.3019-24.1019"/>
          <path d="M923.5417,942.3094c-2.7864.0009-5.6051-.2965-8.4452-.8975-35.0751-7.4224-66.9026-32.2099-96.4953-56.9634-12.0315-10.0637-24.178-21.0123-36.1025-32.5431-1.6856-1.6301-3.3664-3.4922-4.9915-5.2934-2.8384-3.1447-5.7735-6.3959-8.9002-8.6288-.3283-.2356-79.1239-56.5182-79.9197-57.0861-.7412-.5293-1.026-1.4949-.6915-2.3422l24.2613-61.3674c.1988-.5025.5947-.9028,1.0954-1.1061.5011-.2042,1.0636-.1944,1.5571.026l108.4637,48.5226c.9987.4469,1.4465,1.6194.9996,2.6189s-1.6176,1.4447-2.6189.9996l-106.572-47.6771-22.9299,58.0006q78.6698,56.1922,78.7151,56.2272c3.4205,2.4416,6.5025,5.8559,9.4829,9.1573,1.6538,1.8325,3.2159,3.563,4.8048,5.099,11.8559,11.4645,23.9313,22.3495,35.8902,32.3532,29.2094,24.4319,60.5881,48.8908,94.7721,56.125,19.2783,4.0771,32.9085-7.477,40.9534-17.8873,6.2016-8.0252,11.0444-17.0248,16.3996-28.0621l9.2728-24.0253c.3941-1.0211,1.5396-1.5316,2.5625-1.1348,1.021.3941,1.5289,1.5414,1.1348,2.5625l-9.3024,24.1023c-.0197.0511-.0412.1012-.0654.1514-5.477,11.2925-10.4417,20.517-16.8654,28.8297-10.2419,13.2523-22.9568,20.2393-36.4652,20.2393Z"/>
        </g>
        <g>
          <path class="cls-7" d="M648.4518,904.8726s4.2814,37.1057,44.2414,45.6686c39.96,8.5629,118.4529-44.2414,229.77-185.5286-25.6886-34.2514-38.5329-55.6586-38.5329-55.6586,0,0-136.0543,102.8336-151.7529,110.8414"/>
          <path d="M701.635,953.43c-3.2741,0-6.3924-.3153-9.357-.9503-40.8777-8.7605-45.7506-46.9946-45.7953-47.3798-.1254-1.0873.6547-2.0708,1.7421-2.1962,1.0802-.1263,2.0685.652,2.1957,1.7394h0c.172,1.4581,4.6458,35.8078,42.6878,43.9601,20.3231,4.3565,50.2338-8.1631,86.4984-36.2001,40.8513-31.5847,88.0707-81.1813,140.357-147.422-20.6352-27.5963-32.9264-46.863-36.579-52.7314-16.5967,12.5312-135.4156,102.1147-150.3064,109.7109-.9767.4962-2.1693.1093-2.6659-.8643-.4975-.9754-.1102-2.1693.8648-2.6664,15.3651-7.838,150.0986-109.6294,151.4583-110.6567.4478-.3395,1.0184-.472,1.5719-.3645.5526.1066,1.0327.4434,1.322.9252.1281.2141,13.1,21.7306,38.4195,55.4891.5392.7192.5275,1.7107-.0287,2.4156-94.5724,120.0352-174.6211,187.1913-222.3851,187.1913Z"/>
        </g>
        <path d="M731.5084,516.2297c-2.1164.1557,11.0674,21.1322,12.9831,22.8322,10.2702,9.1139,28.0453,11.3046,41.3232,8.5144,18.8474-3.9605,29.5952-19.4708,31.8227-38.0067,0,0-85.8579,6.6405-86.1291,6.66Z"/>
        <g>
          <path class="cls-2" d="M652.4459,444.6916c-9.8216-10.851-11.2602-25.5518-3.2134-32.835,5.9502-5.3855,15.4176-5.1937,23.9193-.3482l-.5102-3.488c-7.4769-51.0919,27.8804-98.5715,78.9722-106.0483h0c51.0923-7.4771,98.5717,27.8801,106.0486,78.972l5.0132,34.2591c8.137,55.6022-30.3409,107.2729-85.9433,115.4098h0c-46.5818,6.8169-89.8699-25.4189-96.6868-72.0007l-.6366-4.3491c-8.1564,2.7205-19.0647-.8456-26.9629-9.5715Z"/>
          <path d="M764.3328,533.5006c-42.5553.0027-79.9081-31.2735-86.2485-74.6013l-.3153-2.1545c-8.7448,1.7591-19.2201-2.3565-26.7929-10.7233-5.0332-5.5612-8.1622-12.2706-8.8102-18.8923-.67-6.842,1.3672-12.7879,5.7363-16.7422,5.6284-5.0945,14.2639-5.893,22.7423-2.3256-7.4721-51.9978,28.6734-100.4399,80.6824-108.0503,25.2371-3.6933,50.3964,2.6619,70.8507,17.894,20.4543,15.2317,33.7531,37.5176,37.446,62.7521l5.0139,34.2587c8.2813,56.5948-31.024,109.3759-87.618,117.6581-4.2611.6238-8.5017.9266-12.6866.9266ZM679.409,452.2809c.3627,0,.7232.0994,1.039.2942.4998.3077.8374.8204.9221,1.4008l.6364,4.3493c6.6481,45.4259,49.0139,76.9725,94.4389,70.3267,54.4309-7.966,92.2342-58.7301,84.2691-113.1619l-5.0139-34.2587c-3.5397-24.1865-16.2859-45.5472-35.8911-60.147-19.6048-14.5989-43.7205-20.6881-67.9084-17.1511-49.9288,7.3064-84.6049,53.8711-77.2986,103.7999l.5105,3.4882c.1097.7497-.2176,1.4967-.8433,1.9239-.627.4281-1.4416.4613-2.0994.0851-8.0149-4.5683-16.4959-4.5312-21.6079.0963-3.4147,3.0905-4.9956,7.8554-4.451,13.4166.5656,5.7815,3.3372,11.6831,7.8044,16.6182,7.1998,7.9548,17.1892,11.5805,24.8663,9.0211.2042-.0681.416-.1017.627-.1017Z"/>
        </g>
        <path d="M858.8914,358.6069c7.5711,43.282-134.6808-33.7169-134.6808-33.7169,0,0-11.6371,88.9411-51.0585,86.6184-16.1581-7.8494-34.088-29.6112-11.2657-55.9509,22.8223-26.3396,46.4822-65.8752,61.6938-66.3071,15.2116-.4319,119.8978-18.7584,135.3112,69.3565Z"/>
        <path d="M713.1823,393.9874c-.6977,0-1.3999-.2262-1.9897-.6928-1.3901-1.0999-1.6256-3.1187-.5253-4.5092,11.9791-15.139,29.5296-9.7233,37.1361-4.7452,1.4837.9709,1.8993,2.9606.9284,4.4438-.97,1.4819-2.9544,1.8979-4.4385.9319-.7179-.4649-17.2895-10.9316-28.5914,3.3534-.6337.8007-1.5719,1.2181-2.5195,1.2181Z"/>
        <path d="M801.2056,378.5968c-.6982,0-1.4004-.2262-1.9902-.6928-1.3901-1.0999-1.6256-3.1187-.5253-4.5092,11.9782-15.1399,29.5296-9.7233,37.1365-4.7452,1.4832.9709,1.8988,2.9606.9279,4.4438-.97,1.4823-2.9575,1.8984-4.438.9319-.7174-.4644-17.2917-10.9311-28.5914,3.3534-.6341.8007-1.5728,1.2181-2.5195,1.2181Z"/>
        <path d="M786.14,462.5304c-1.0851,0-2.0497-.7739-2.2526-1.8796-.2284-1.2454.5956-2.4402,1.8415-2.6691,4.292-.7877,6.6136-1.7998,7.3055-3.1845.7756-1.5517.0416-4.5992-2.1805-9.0579-5.3825-10.7977-7.9557-20.3934-8.0628-20.7969-.3247-1.2235.4044-2.4788,1.6283-2.8034,1.2235-.3247,2.4783.4039,2.8043,1.6274.0251.0945,2.5706,9.5679,7.7341,19.9272,3.0636,6.1452,3.7152,10.0789,2.1787,13.1533-1.7904,3.5831-6.1429,4.8308-10.58,5.6454-.1397.0255-.279.0381-.4165.0381Z"/>
        <path d="M783.8328,499.0184c-20.3535,0-28.9636-18.2765-29.3232-19.0611-.5275-1.1514-.0219-2.5123,1.1294-3.0399,1.1505-.5267,2.5101-.0224,3.039,1.1276.3287.7094,7.958,16.6415,25.6174,16.3839,1.2503-.0537,2.309.9906,2.3283,2.2566.0201,1.266-.9906,2.3086-2.2566,2.3283-.1787.0031-.3574.0045-.5343.0045Z"/>
        <path d="M673.0189,434.4912c-.6453,0-1.2871-.2709-1.7407-.7994-3.8939-4.5352-9.5357-7.5021-15.4793-8.1389-1.2589-.1352-2.1702-1.2651-2.0354-2.5244s1.2548-2.1756,2.5244-2.0354c7.0914.76,13.8237,4.3001,18.47,9.7117.8249.9606.7147,2.4084-.2463,3.2334-.4326.3713-.9637.5531-1.4926.5531Z"/>
        <path d="M823.5685,418.1041c-2.4702,0-4.8769-.846-6.9665-2.4796-2.6592-2.0797-4.455-4.902-6.1926-7.6311-.5356-.8419-1.0659-1.6762-1.614-2.4689-.721-1.0412-.4604-2.4698.5804-3.1904,1.0426-.7183,2.4702-.4604,3.1904.5813.5813.8401,1.1447,1.7233,1.7125,2.6158,1.5289,2.4022,3.1106,4.8867,5.1483,6.481,1.7134,1.3399,3.6713,1.7972,5.649,1.326,2.4237-.5777,4.593-2.4577,5.8021-5.0292,1.9284-4.1021,1.6632-9.1618,1.4295-13.6257-.0672-1.2647.9046-2.3435,2.1693-2.4098,1.2477-.0667,2.344.9051,2.4093,2.1697.2499,4.7551.5607,10.6732-1.8576,15.817-1.7976,3.8231-5.1214,6.6409-8.8904,7.5388-.8572.2042-1.717.305-2.5697.305Z"/>
        <path d="M739.7155,436.8606c-3.3592,0-6.7887-1.408-9.4282-3.9257-4.1142-3.9235-5.962-9.5541-7.4466-14.0785-.3945-1.2029.2606-2.4985,1.464-2.8934,1.2042-.3932,2.4989.2606,2.8934,1.464,1.3937,4.2468,2.9732,9.0605,6.254,12.1896,2.0564,1.9615,4.7591,2.9306,7.2271,2.5934,2.0188-.2754,3.6745-1.4089,4.7882-3.2768,1.3251-2.223,1.9024-5.1107,2.4604-7.9033.2073-1.0372.4133-2.0645.652-3.0578.2956-1.2311,1.5329-1.992,2.7649-1.6937,1.2311.2956,1.9897,1.5334,1.6937,2.7649-.2248.9369-.4178,1.9064-.6135,2.8854-.6341,3.1724-1.2898,6.4528-3.0184,9.353-1.8272,3.0641-4.7063,5.0077-8.1071,5.4721-.524.0717-1.0533.107-1.584.107Z"/>
        <circle class="cls-8" cx="725.0941" cy="463.5217" r="10.3468"/>
        <circle class="cls-8" cx="833.1351" cy="444.1559" r="10.3468"/>
        <g>
          <path class="cls-7" d="M870.3567,719.585s35.0328,51.7555,43.336,56.4613"/>
          <path d="M913.6912,778.0283c-.3314,0-.6664-.0833-.9754-.258-8.4631-4.7963-40.3882-51.7372-44.0013-57.0745-.6135-.9064-.3753-2.138.5311-2.7524.9064-.6126,2.1388-.3753,2.7524.5311,13.9777,20.6496,36.8763,52.563,42.6722,55.8474.9521.5392,1.2871,1.7492.747,2.7013-.3645.644-1.0354,1.0049-1.7259,1.0049Z"/>
        </g>
        <g>
          <path class="cls-7" d="M700.8515,787.1502s25.5354-53.8387,27.4295-62.8893"/>
          <path d="M700.8503,789.1319c-.2848,0-.5737-.0609-.8482-.1917-.9888-.4684-1.4102-1.6507-.9413-2.6395,8.7972-18.5483,25.8202-55.4694,27.2802-62.4458.2244-1.0721,1.2732-1.76,2.3462-1.5343,1.0712.2239,1.7582,1.2745,1.5338,2.3457-1.9208,9.1761-26.5318,61.1255-27.5784,63.3325-.339.7147-1.0506,1.133-1.7922,1.133Z"/>
        </g>
        <g>
          <path d="M878.711,730.8178c-.4129,0-.8204-.1845-1.0918-.5374-.4631-.6019-.3502-1.4662.2526-1.9293,2.3744-1.8254,9.9634-6.3915,12.688-7.6346.6906-.3135,1.5083-.0107,1.8227.6816.3153.6915.0099,1.5074-.6816,1.8227-2.5491,1.1617-9.9311,5.6042-12.1524,7.3122-.2499.1917-.5446.2848-.8374.2848Z"/>
          <path d="M887.3408,742.6702c-.3869,0-.7712-.1621-1.0434-.4783-.4962-.5759-.4308-1.4447.1451-1.94,1.5065-1.2969,4.9459-3.597,7.9804-5.6275,1.6122-1.0775,3.1348-2.0968,3.983-2.713.6162-.446,1.4752-.3081,1.9221.3045.446.6153.3099,1.4752-.3045,1.9221-.8921.6476-2.3655,1.6328-4.0708,2.7739-2.8222,1.8881-6.3359,4.2374-7.7153,5.425-.2597.2239-.5795.3332-.8966.3332Z"/>
          <path d="M895.7206,752.261c-.3439,0-.6879-.1281-.9548-.3851-.5473-.5275-.5625-1.399-.0358-1.9454l8.9405-9.2674c.5293-.5481,1.3999-.5616,1.9454-.0358.5473.5275.5625,1.399.0358,1.9454l-8.9405,9.2674c-.2705.2803-.6305.421-.9906.421Z"/>
          <path d="M902.5268,763.6368c-.2382,0-.4801-.0618-.6995-.1917-.6538-.3869-.8706-1.2306-.4837-1.8845,1.6391-2.7721,7.1474-7.5666,9.409-9.3292.5983-.4649,1.4635-.3601,1.9311.24.4666.5992.3592,1.4635-.24,1.9311-2.4425,1.9033-7.4501,6.3915-8.7318,8.559-.2571.4344-.7147.6753-1.185.6753Z"/>
          <path d="M909.7754,769.3968c-.3708,0-.7407-.1496-1.0121-.4442-.515-.5589-.4783-1.4295.0806-1.9436l6.9934-6.4389c.5589-.515,1.4295-.4783,1.9436.0806.515.5589.4792,1.4286-.0806,1.9436l-6.9934,6.4389c-.2642.2436-.5983.3636-.9315.3636Z"/>
        </g>
        <g>
          <path d="M702.6551,777.7202c-.2548,0-.5123-.0708-.743-.2185-2.5262-1.6247-5.4071-3.5209-7.6172-5.2638-.5965-.4702-.6991-1.3354-.2284-1.9319s1.3363-.6977,1.9319-.2284c2.1187,1.6704,4.9306,3.5209,7.4022,5.1098.6391.4111.824,1.262.4129,1.9015-.2629.4084-.7062.6314-1.1585.6314Z"/>
          <path d="M707.6946,768.4241c-.1778,0-.3587-.034-.5325-.1075-1.2459-.524-2.4765-1.3399-3.6664-2.129-1.6686-1.107-3.3937-2.2517-4.9709-2.4496-.7541-.0949-1.2884-.7828-1.1935-1.537.0945-.7533.7842-1.2862,1.5365-1.193,2.2172.2786,4.2159,1.6041,6.1487,2.8867,1.1339.7515,2.2047,1.4626,3.2114,1.8854.7004.2947,1.0296,1.1008.7353,1.8012-.2212.5267-.7318.8428-1.2687.8428Z"/>
          <path d="M711.6651,758.8925c-.1841,0-.3717-.0367-.5513-.1155-3.2472-1.4232-6.361-3.1859-9.2536-5.2396-.6198-.4398-.7653-1.2978-.3256-1.9176.4398-.6189,1.2992-.7649,1.9181-.326,2.7403,1.9454,5.6893,3.6149,8.7654,4.9629.6959.3054,1.013,1.116.708,1.8119-.2262.5168-.7313.824-1.2611.824Z"/>
          <path d="M716.8017,748.5305c-.2624,0-.5275-.0752-.7627-.232-1.1697-.7801-2.7291-1.5119-4.3802-2.2866-2.3431-1.0999-4.7658-2.2365-6.4537-3.7063-.5728-.4989-.6328-1.3677-.1339-1.9409.4998-.5723,1.3681-.6332,1.9414-.1335,1.3972,1.2172,3.6431,2.2705,5.8151,3.2898,1.747.8195,3.3977,1.5943,4.7394,2.4899.6319.4219.8021,1.2754.3802,1.9078-.2651.3968-.7013.6117-1.1456.6117Z"/>
          <path d="M721.589,738.1301c-.2127,0-.429-.0493-.631-.1541-1.5352-.7945-3.9624-1.7698-6.31-2.7139-1.9257-.7739-3.7443-1.5047-5.0681-2.1317-.6865-.3251-.9799-1.1456-.6547-1.8316.3251-.687,1.1465-.9799,1.8325-.6547,1.2486.5911,3.0305,1.3068,4.9163,2.0654,2.4075.9673,4.897,1.9687,6.5487,2.8231.6749.3493.9387,1.1796.5893,1.854-.2445.4729-.725.7434-1.223.7434Z"/>
        </g>
        <path d="M793.3631,640.1963c-25.2519.0009-46.0882-16.4641-49.7045-40.2642-.1567-1.0323.5531-1.9969,1.5858-2.1536,1.0336-.1558,1.9969.5531,2.1536,1.5858,3.3278,21.9021,22.6061,37.0469,45.9879,37.0487,1.9333,0,3.8908-.103,5.8733-.3153,25.5533-2.7282,44.124-25.7369,41.3958-51.2911-.6243-5.8509-2.309-11.4385-5.0059-16.607-.4828-.9261-.1245-2.0685.8016-2.5517.9261-.4828,2.069-.1236,2.5517.8016,2.9172,5.5907,4.739,11.6316,5.4143,17.9558,2.9485,27.6277-17.1287,52.5039-44.7564,55.4542-2.1236.2266-4.2262.3368-6.2974.3368Z"/>
        <g>
          <path d="M838.914,578.7917h-5.1734c-.7595,0-1.3757-.6158-1.3757-1.3757s.6162-1.3757,1.3757-1.3757h5.1734c.7595,0,1.3757.6158,1.3757,1.3757s-.6162,1.3757-1.3757,1.3757Z"/>
          <path d="M841.455,595.4842c-.1075,0-.2159-.0125-.3251-.039-2.7219-.6601-5.3426-1.6861-7.7887-3.0502-.6637-.3699-.9019-1.2078-.532-1.8715.3708-.6646,1.21-.9001,1.8719-.5316,2.2293,1.2427,4.6172,2.1778,7.0972,2.7788.738.1791,1.1921.923,1.013,1.6615-.1532.6292-.7156,1.052-1.3363,1.052Z"/>
          <path d="M837.2704,610.4745c-.2284,0-.4595-.0564-.6717-.1756-1.9015-1.0667-3.7376-2.2911-5.4564-3.6395-.5974-.4689-.7022-1.3336-.2338-1.9315.4684-.5974,1.3345-.7026,1.9319-.2333,1.6086,1.2615,3.3256,2.4071,5.1035,3.404.6628.3717.8992,1.21.5275,1.8728-.2526.4505-.7201.7031-1.2011.7031Z"/>
          <path d="M829.1037,624.5893c-.4022,0-.8007-.1756-1.0721-.5132l-5.1546-6.3977c-.4765-.592-.3833-1.4581.2078-1.9346.5911-.4783,1.459-.3833,1.9346.2078l5.1546,6.3995c.4765.5911.3833,1.4572-.2087,1.9337-.2544.2051-.5589.3045-.8616.3045Z"/>
          <path d="M819.349,632.1613c-.567,0-1.0981-.3529-1.2969-.9181l-3.1859-9.0265c-.2535-.7165.1227-1.502.8392-1.7546.7147-.2544,1.502.1218,1.7546.8392l3.1859,9.0265c.2535.7165-.1227,1.502-.8392,1.7546-.1514.0537-.3054.0788-.4577.0788Z"/>
          <path d="M803.5531,638.8886c-.0322,0-.0636-.0009-.0958-.0036-.7586-.0519-1.331-.7085-1.2781-1.4662.1263-1.8478-.1352-3.7054-.412-5.6722-.2508-1.7824-.5105-3.6257-.4675-5.5048.0179-.7595.6619-1.3381,1.4071-1.3444.7604.0179,1.3614.6476,1.3444,1.4071-.0385,1.6552.1944,3.3086.4407,5.0587.2848,2.0197.5786,4.1093.4317,6.2437-.0493.7264-.6538,1.2817-1.3704,1.2817Z"/>
          <path d="M788.1817,639.194c-.0864,0-.1747-.0081-.2629-.0251-.7461-.1442-1.2338-.8661-1.0891-1.6122.7277-3.7564,1.5786-7.5451,2.528-11.2612.1876-.7371.9369-1.1823,1.6731-.9924.7362.1881,1.1805.9369.9924,1.6731-.936,3.6642-1.7748,7.4-2.4922,11.1036-.1276.6574-.7035,1.1142-1.3493,1.1142Z"/>
          <path d="M774.8381,634.919c-.0703,0-.1411-.0054-.2123-.0161-.751-.1164-1.2656-.8195-1.1491-1.5701.3614-2.3323,1.0905-4.5536,1.7954-6.7023l1.5034-4.5831c.2365-.7219,1.0157-1.1142,1.7358-.8786.7219.2374,1.1156,1.0148.8786,1.7367l-1.5034,4.5831c-.6704,2.043-1.3636,4.1559-1.6906,6.2652-.1052.6798-.691,1.1653-1.3578,1.1653Z"/>
          <path d="M763.4949,628.4281c-.0166,0-.0327,0-.0493-.0009-.7595-.0269-1.3533-.6637-1.3265-1.4232.0605-1.7116.8733-3.1778,1.7009-4.533.9082-1.4859,1.8719-2.9691,2.8639-4.4094.2069-.3009.4416-.6413.4653-.8482.0851-.755.7631-1.3059,1.5217-1.2118.755.0851,1.2974.7667,1.2118,1.5217-.1008.8912-.5817,1.5898-.9328,2.0994-.9642,1.399-1.8997,2.8402-2.7819,4.2831-.6632,1.0864-1.2624,2.1487-1.2992,3.1948-.026.7425-.6368,1.3274-1.3739,1.3274Z"/>
          <path d="M754.3901,619.0756c-.2297,0-.4631-.0573-.6771-.1791-.661-.3744-.893-1.2145-.5181-1.8755,1.7156-3.0256,4.3511-5.4206,6.6767-7.5343.429-.3896.9154-.8321,1.5253-1.1733.6637-.3708,1.502-.1343,1.8724.5284.3713.6628.1348,1.5011-.528,1.8719-.3359.1881-.6677.4899-1.0193.8097-2.279,2.0708-4.6355,4.2123-6.134,6.8554-.253.446-.7188.6968-1.198.6968Z"/>
          <path d="M749.3291,610.0571c-.4322,0-.8576-.2033-1.1259-.5831-.4375-.6207-.2893-1.4796.3318-1.9167l3.339-2.3543c1.7022-1.1997,3.4617-2.4402,4.9006-3.9136.532-.5437,1.4031-.5531,1.9454-.0233.5437.5307.554,1.4017.0233,1.9454-1.6153,1.6543-3.4806,2.9691-5.284,4.2401l-3.339,2.3538c-.2409.1702-.5177.2517-.7913.2517Z"/>
        </g>
      </g>
    </g>
  </g>
</svg>