<?xml version="1.0" encoding="UTF-8"?><svg xmlns="http://www.w3.org/2000/svg" viewBox="0 0 3000 2000"><g id="Layer_3"><rect width="3000" height="2000" style="fill:#fbf4bd; stroke-width:0px;"/></g><g id="Layer_1"><path d="M504.054,1462.578c-82.084,47.744-185.613,56.807-274.744,24.051-89.131-32.756-162.154-106.702-193.787-196.238,79.947-53.683,179.625-77.288,271.323-47.882,91.699,29.406,163.391,129.903,197.208,220.068Z" style="fill:#17840b; stroke-width:0px;"/><path d="M92.589,1302.411c178.218,33.739,351.623,98.747,509.869,191.966l-21.518,33.719c-146.723-102.397-315.286-177.724-488.351-225.685h0Z" style="fill:#14a508; stroke-width:0px;"/><path d="M711.168,1844.578c82.084,47.744,185.613,56.807,274.744,24.051,89.131-32.756,162.154-106.702,193.787-196.238-79.947-53.683-179.625-77.288-271.323-47.882-91.699,29.406-163.391,129.903-197.208,220.068Z" style="fill:#17840b; stroke-width:0px;"/><path d="M1122.793,1685.12c-175.238,46.487-341.225,123.215-488.511,224.976l-21.518-33.719c157.859-92.382,333.218-160.129,510.03-191.258h0Z" style="fill:#14a508; stroke-width:0px;"/><path d="M1673.168,1898.578c82.084,47.744,185.613,56.807,274.744,24.051,89.131-32.756,162.154-106.702,193.787-196.238-79.947-53.683-179.625-77.288-271.323-47.882-91.699,29.406-163.391,129.903-197.208,220.068Z" style="fill:#17840b; stroke-width:0px;"/><path d="M2084.793,1739.12c-175.238,46.487-341.225,123.215-488.511,224.976l-21.518-33.719c157.859-92.382,333.218-160.129,510.03-191.258h0Z" style="fill:#14a508; stroke-width:0px;"/><path d="M2522.168,1499.578c82.084,47.744,185.613,56.807,274.744,24.051,89.131-32.756,162.154-106.702,193.787-196.238-79.947-53.683-179.625-77.288-271.323-47.882-91.699,29.406-163.391,129.903-197.208,220.068Z" style="fill:#17840b; stroke-width:0px;"/><path d="M2933.793,1340.12c-175.238,46.487-341.225,123.215-488.511,224.976l-21.518-33.719c157.859-92.382,333.218-160.129,510.03-191.258h0Z" style="fill:#14a508; stroke-width:0px;"/><path d="M676.8,2000h-100.14c-.5-10.47-.97-20.94-1.44-31.42-.7-15.58-1.37-31.15-2.01-46.73-1.78-42.88-3.38-85.74-4.79-128.57-.51-15.32-.99-30.63-1.44-45.93-1.26-41.99-2.34-83.94-3.23-125.82-.13-5.78-.25-11.56-.37-17.33-.21-10.33-.41-20.66-.59-31-.76-41.23-1.34-82.53-1.75-123.87-.16-16.59-.3-33.18-.41-49.79-.27-40.96-.37-81.97-.31-122.99.02-16.68.08-33.36.16-50.05.2-41.11.56-82.23,1.1-123.34,1.99-153.92,6.33-307.74,12.99-460.48l99.91,4.36c-6.62,151.67-10.91,303.81-12.87,456.18-.53,41.28-.9,82.58-1.09,123.89-.07,16.25-.12,32.49-.15,48.74-.06,41.39.06,82.79.35,124.2.11,16.34.25,32.68.41,49.03.42,41.1,1,82.21,1.75,123.31.31,16.85.65,33.69,1.02,50.54.87,40.38,1.91,80.75,3.1,121.11.54,17.84,1.1,35.69,1.69,53.52,1.3,39.1,2.76,78.18,4.36,117.24.73,17.68,1.49,35.36,2.27,53.03.48,10.72.97,21.45,1.48,32.17Z" style="fill:#14a508; stroke-width:0px;"/><ellipse cx="611.5" cy="1165" rx="113" ry="68.913" style="fill:#0dc503; stroke-width:0px;"/><ellipse cx="611.5" cy="1338" rx="113" ry="68.913" style="fill:#0dc503; stroke-width:0px;"/><ellipse cx="611.5" cy="1511" rx="113" ry="68.913" style="fill:#0dc503; stroke-width:0px;"/><ellipse cx="611.5" cy="1684" rx="113" ry="68.913" style="fill:#0dc503; stroke-width:0px;"/><ellipse cx="611.5" cy="1857" rx="113" ry="68.913" style="fill:#0dc503; stroke-width:0px;"/><path d="M728.26,2000h-203.52c10.75-13.53,28.54-24.6,50.48-31.42,15.39-4.79,32.82-7.49,51.28-7.49,17.48,0,34.04,2.42,48.82,6.74,23.07,6.75,41.79,18.14,52.94,32.17Z" style="fill:#0dc503; stroke-width:0px;"/><path d="M1552.5,1992.16c-17.06,0-33.24,2.31-47.75,6.44-.09-3.85-.17-7.69-.25-11.53-.04-1.93-.08-3.87-.12-5.8-.21-10.33-.41-20.66-.59-31-.76-41.23-1.34-82.53-1.75-123.87-.16-16.59-.3-33.18-.41-49.79-.27-40.96-.37-81.97-.31-122.99.02-16.68.08-33.36.16-50.05.2-41.11.56-82.23,1.1-123.34,1.99-153.92,6.33-307.74,12.99-460.48l99.91,4.36c-6.62,151.67-10.91,303.81-12.87,456.18-.53,41.28-.9,82.58-1.09,123.89-.07,16.25-.12,32.49-.15,48.74-.06,41.39.06,82.79.35,124.2.11,16.34.25,32.68.41,49.03.42,41.1,1,82.21,1.75,123.31.23,12.54.48,25.07.74,37.61.09,4.31.18,8.62.28,12.93-15.66-5.01-33.49-7.84-52.4-7.84Z" style="fill:#14a508; stroke-width:0px;"/><ellipse cx="1552.5" cy="1542.07" rx="113" ry="68.913" style="fill:#0dc503; stroke-width:0px;"/><ellipse cx="1552.5" cy="1715.07" rx="113" ry="68.913" style="fill:#0dc503; stroke-width:0px;"/><ellipse cx="1552.5" cy="1888.07" rx="113" ry="68.913" style="fill:#0dc503; stroke-width:0px;"/><path d="M2480.84,2000h-100.16c-.47-8.61-.94-17.22-1.39-25.83-2.2-41.52-4.22-83.06-6.07-124.59-.7-15.58-1.37-31.15-2.01-46.73-1.78-42.88-3.38-85.74-4.79-128.57-.51-15.32-.99-30.63-1.44-45.93-1.26-41.99-2.34-83.94-3.23-125.82-.13-5.78-.25-11.56-.37-17.33-.21-10.33-.41-20.66-.59-31-.76-41.23-1.34-82.53-1.75-123.87-.16-16.59-.3-33.18-.41-49.79-.27-40.96-.37-81.97-.31-122.99.02-16.68.08-33.36.16-50.05.2-41.11.56-82.23,1.1-123.34,1.99-153.92,6.33-307.74,12.99-460.48l99.91,4.36c-6.62,151.67-10.91,303.81-12.87,456.18-.53,41.28-.9,82.58-1.09,123.89-.07,16.25-.12,32.49-.15,48.74-.06,41.39.06,82.79.35,124.2.11,16.34.25,32.68.41,49.03.42,41.1,1,82.21,1.75,123.31.31,16.85.65,33.69,1.02,50.54.87,40.38,1.91,80.75,3.1,121.11.54,17.84,1.1,35.69,1.69,53.52,1.3,39.1,2.76,78.18,4.36,117.24.73,17.68,1.49,35.36,2.27,53.03,1.83,40.83,3.82,81.65,5.97,122.45.51,9.57,1.02,19.15,1.55,28.72Z" style="fill:#14a508; stroke-width:0px;"/><ellipse cx="2409.5" cy="1046" rx="113" ry="68.913" style="fill:#0dc503; stroke-width:0px;"/><ellipse cx="2409.5" cy="1219" rx="113" ry="68.913" style="fill:#0dc503; stroke-width:0px;"/><ellipse cx="2409.5" cy="1392" rx="113" ry="68.913" style="fill:#0dc503; stroke-width:0px;"/><ellipse cx="2409.5" cy="1565" rx="113" ry="68.913" style="fill:#0dc503; stroke-width:0px;"/><ellipse cx="2409.5" cy="1738" rx="113" ry="68.913" style="fill:#0dc503; stroke-width:0px;"/><ellipse cx="2424.5" cy="1911" rx="113" ry="68.913" style="fill:#0dc503; stroke-width:0px;"/><ellipse cx="2426.904" cy="634.657" rx="194.5" ry="286" transform="translate(323.784 2001.968) rotate(-47.684)" style="fill:#f4be02; stroke-width:0px;"/><polygon points="2766.071 1103.183 2851.752 982.429 2748.437 834.866 2766.071 1103.183" style="fill:#267a6a; stroke-width:0px;"/><path d="M2727.751,814.088l82.803-39.102-49.736-129.239-113.825-30.534-65.037-79.939,18.788-110.474-137.528-87.928-54.861,49.6-104.198-16.646-90.476-120.491-120.213,12.964,19.54,116.118-61.632-91.385-129.923,71.763-50.923,107.625,101.846,92.82,8.364,86.508-98.554,41.153,60.227,132.448,112.728,30.061,60.873,99.201-22.546,82.938,138.28,98.93,72.409-52.058,84.659,21.997,82.667,110.474,125.632-12.152-9.89-95.315,59.768-47.429,119.086,47.429,44.475-112.683-75.084-94.925-7.718-81.728ZM2446.6,913.807c-79.316,45.79-191.097.669-249.67-100.786-58.574-101.448-41.762-220.812,37.554-266.61,79.316-45.79,191.097-.669,249.67,100.786s41.762,220.819-37.553,266.61Z" style="fill:#267a6a; stroke-width:0px;"/><path d="M2813.425,693.093l82.803-39.102-49.736-129.239-113.825-30.534-65.037-79.939,18.788-110.474-137.528-87.928-54.861,49.6-104.198-16.646-90.476-120.491-120.213,12.964,19.54,116.118-69.14,29.85-122.415-49.473-50.923,107.625,101.846,92.82,8.364,86.508-98.554,41.153,60.227,132.448,112.728,30.061,60.873,99.201-22.546,82.938,138.28,98.93,72.409-52.058,84.659,21.997,82.667,110.474,125.632-12.152-9.89-95.315,59.768-47.429,119.086,47.429,44.475-112.683-75.084-94.925-7.718-81.728ZM2532.273,792.812c-79.316,45.79-191.097.669-249.67-100.786-58.574-101.448-41.762-220.812,37.554-266.61,79.316-45.79,191.097-.669,249.67,100.786s41.762,220.819-37.553,266.61Z" style="fill:#49d9c2; stroke-width:0px;"/><polygon points="1956.202 345.424 1870.529 466.419 1921.452 358.794 2007.125 237.799 1956.202 345.424" style="fill:#308978; stroke-width:0px;"/><polygon points="2093.467 262.299 2179.141 141.304 2198.68 257.421 2129.54 287.272 2093.467 262.299" style="fill:#308978; stroke-width:0px;"/><polygon points="1942.412 819.349 2028.085 698.354 1967.858 565.906 1882.185 686.901 1942.412 819.349" style="fill:#308978; stroke-width:0px;"/><polygon points="2093.467 1031.548 2179.141 910.553 2317.421 1009.483 2231.747 1130.478 2093.467 1031.548" style="fill:#308978; stroke-width:0px;"/><polygon points="2557.156 1089.896 2471.483 1210.891 2597.114 1198.739 2682.788 1077.744 2557.156 1089.896" style="fill:#308978; stroke-width:0px;"/><ellipse cx="664.5" cy="616" rx="286" ry="194.5" style="fill:#f4be02; stroke-width:0px;"/><ellipse cx="1587.5" cy="1176" rx="286" ry="194.5" style="fill:#f4be02; stroke-width:0px;"/><path d="M2020.84,920.841s.241,132.997,0,133.019-125.745,42.108-125.745,42.108c0,0,.752-153.09,0-159.964s125.745-15.163,125.745-15.163Z" style="fill:#cc6406; stroke-width:0px;"/><path d="M2103.267,1214.708l-123.016-4.058-22.779-98.9,63.368-57.89-115.802-104.754-110.646,60.437-101.455-16.533-36.073-96.195-151.807,19.54-37.253,87.928-116.959,49.578-99.05-49.578-116.005,88.725,55.139,95.007-173.609-25.912-.406,132.899,3.818,122.806,112.3,12.077,30.083,81.675-63.173,78.203,102.019,94.564,113.044-57.033,105.604,11.085,47.196,91.122h131.193l57.897-102.207,104.77-37.531,102.019,37.531,131.178-124.85-23.65-128.112,132.057-26.604v-133.019ZM1589.865,1467.888c-117.185,14.542-220.985-44.625-231.852-132.147-10.859-87.53,75.332-170.272,192.517-184.814,117.185-14.549,220.985,44.618,231.844,132.147,10.867,87.53-75.325,170.272-192.51,184.814Z" style="fill:#cc6406; stroke-width:0px;"/><polygon points="1135.789 1093.007 1135.789 959.988 1265.321 1127.532 1135.789 1093.007" style="fill:#cc6406; stroke-width:0px;"/><path d="M2103.267,1089.204l-123.016-11.573-22.779-98.9,63.368-57.89-115.802-104.754-110.646,60.437-101.455-16.533-36.073-96.195-151.807,19.54-37.253,87.928-116.959,49.578-99.05-49.578-116.005,88.725,55.139,95.007-52.915,65.969-121.1,41.018,3.818,122.806,112.3,12.077,30.083,81.675-63.173,78.203,102.019,94.564,113.044-57.033,105.604,11.085,47.196,91.122h131.193l57.897-102.207,104.77-37.531,102.019,37.531,131.178-124.85-23.65-128.112,132.057-26.604v-125.504ZM1589.865,1334.869c-117.185,14.542-220.985-44.625-231.852-132.147-10.859-87.53,75.332-170.272,192.517-184.814,117.185-14.549,220.985,44.618,231.844,132.147,10.867,87.53-75.325,170.272-192.51,184.814Z" style="fill:#fe8500; stroke-width:0px;"/><path d="M1099.941,1456.743s-.045,133.064,0,133.019,102.019,94.564,102.019,94.564l-.519-133.688-101.5-93.895Z" style="fill:#f99d41; stroke-width:0px;"/><rect x="1467.803" y="1596.481" width="131.193" height="133.019" style="fill:#f99d41; stroke-width:0px;"/><polygon points="1863.682 1494.274 1863.682 1627.293 1994.86 1502.443 1994.86 1369.424 1863.682 1494.274" style="fill:#f99d41; stroke-width:0px;"/><path d="M222.793,298.566s-15.279,132.116-15.043,132.166,120.176,56.058,120.176,56.058c0,0,16.566-152.193,18.09-158.938,1.524-6.745-123.223-29.286-123.223-29.286Z" style="fill:#c43431; stroke-width:0px;"/><path d="M107.662,581.226l122.686,9.88,33.817-95.69-56.415-64.685,126.906-90.987,103.102,72.562,102.674-4.954,46.72-91.498,148.624,36.582,27.07,91.577,110.602,62.487,104.022-38.058,105.227,101.274-65.53,88.162,175.426-6.113-14.626,132.092-17.681,121.586-112.945-.7-39.127,77.749,53.924,84.846-112.059,82.42-105.869-69.451-106.18-.929-57.198,85.2-130.351-14.836-45.967-108.099-99.853-49.138-105.609,25.753-116.217-138.884,37.987-124.615-128.201-41.367,15.043-132.166ZM589.139,890.842c114.788,27.701,224.614-19.348,245.309-105.08,20.688-85.74-55.593-177.699-170.382-205.4-114.788-27.708-224.613,19.341-245.301,105.081-20.696,85.739,55.586,177.698,170.374,205.399Z" style="fill:#c43431; stroke-width:0px;"/><polygon points="1082.697 569.717 1097.74 437.551 950.091 589.372 1082.697 569.717" style="fill:#c43431; stroke-width:0px;"/><path d="M121.855,456.528l123.536,2.413,33.817-95.69-56.415-64.685,126.906-90.987,103.102,72.562,102.674-4.954,46.72-91.498,148.624,36.582,27.07,91.577,110.602,62.487,104.022-38.058,105.227,101.274-65.53,88.162,45.115,71.529,115.684,54.45-17.681,121.586-112.945-.7-39.127,77.749,53.924,84.846-112.059,82.42-105.869-69.451-106.18-.929-57.198,85.2-130.351-14.836-45.967-108.099-99.853-49.138-105.609,25.753-116.217-138.884,37.987-124.615-128.201-41.367,14.193-124.699ZM604.182,758.676c114.788,27.701,224.614-19.348,245.309-105.08,20.688-85.74-55.593-177.699-170.382-205.4-114.788-27.708-224.613,19.341-245.301,105.081-20.696,85.739,55.586,177.698,170.374,205.399Z" style="fill:#f15145; stroke-width:0px;"/><path d="M1077.18,935.173s-15.003,132.216-15.043,132.166-112.059,82.42-112.059,82.42l15.634-132.772,111.468-81.814Z" style="fill:#ef8784; stroke-width:0px;"/><rect x="556.668" y="1025.482" width="133.019" height="131.193" transform="translate(-531.376 1586.87) rotate(-83.507)" style="fill:#ef8784; stroke-width:0px;"/><polygon points="314.095 886.093 299.052 1018.259 182.834 879.375 197.877 747.209 314.095 886.093" style="fill:#ef8784; stroke-width:0px;"/></g></svg>