<?xml version="1.0" encoding="UTF-8"?>
<svg id="Layer_1" data-name="Layer 1" xmlns="http://www.w3.org/2000/svg" viewBox="0 0 2000 1500">
  <defs>
    <style>
      .cls-1 {
        fill: #fff;
      }

      .cls-2 {
        fill: #ffdad6;
      }

      .cls-3 {
        fill: #231f20;
      }

      .cls-4 {
        fill: #00b580;
      }

      .cls-5 {
        fill: #ffc400;
      }

      .cls-6 {
        fill: #ed6558;
      }

      .cls-7 {
        fill: #ff595d;
      }

      .cls-8 {
        fill: #ff8000;
      }
    </style>
  </defs>
  <rect id="background" class="cls-2" width="2000" height="1500"/>
  <g id="flowers">
    <path class="cls-3" d="M687.4858,1099.5765c-.1159,0-.2333-.0117-.3507-.0383-.8806-.1924-1.4386-1.0629-1.2457-1.944,13.8744-63.3576,9.0172-106.0842,8.9667-106.5082-.1073-.896.532-1.708,1.4269-1.8153.8933-.1031,1.7075.5314,1.8148,1.4263.0515.4294,4.9832,43.6545-9.0188,107.5966-.1674.7631-.8428,1.2829-1.5932,1.2829Z"/>
    <path class="cls-6" d="M677.8723,960.6458l3.5319,26.6319c2.8139,21.2183,34.263,18.7035,33.669-2.6925l-.7425-26.7505-9.0434,9.8711-9.1859-8.4655-7.132,10.2764-11.097-8.871Z"/>
    <path class="cls-3" d="M302.3843,1051.7706c-.6414,0-1.2504-.3805-1.5098-1.0108-24.9116-60.4528,5.149-118.6237,5.4551-119.204.4214-.7982,1.4099-1.1022,2.2054-.6813.7977.4209,1.1027,1.4083.6823,2.2054-.2992.5676-29.6392,57.4311-5.3243,116.4363.3438.8333-.0537,1.7877-.8875,2.131-.203.084-.414.1233-.6212.1233Z"/>
    <path class="cls-8" d="M327.0036,921.742c.0741,9.6417-16.5354,28.3817-25.3317,27.1714-8.7962-1.2101-5.979-38.2878-1.7723-41.3835,8.4254-6.2003,12.9901,11.6196,12.9901,11.6196,0,0,14.0039-11.6635,14.1138,2.5925Z"/>
    <path class="cls-3" d="M292.714,988.0751s-31.415-29.0584-14.6557-33.7615c7.3065-2.0505,14.8897,26.9809,14.6557,33.7615Z"/>
    <path class="cls-3" d="M293.2414,986.4051s41.8634-25.7114,25.1041-30.4145c-7.3065-2.0505-22.0389,25.0134-25.1041,30.4145Z"/>
    <path class="cls-3" d="M1504.4755,1030.9139s-26.2247-33.8165-8.9211-35.7078c7.5438-.8246,10.2639,29.0572,8.9211,35.7078Z"/>
    <path class="cls-3" d="M1503.4471,1030.0095s45.6062-12.0253,29.845-19.413c-6.8713-3.2208-25.9357,14.5876-29.845,19.413Z"/>
    <path class="cls-3" d="M696.2288,1037.3992s-37.5781-24.2476-19.311-30.4382c7.9639-2.699,18.9745,23.9953,19.311,30.4382Z"/>
    <path class="cls-3" d="M696.6696,1035.7638s44.3999-28.6814,25.304-31.3947c-8.3251-1.183-22.3631,25.964-25.304,31.3947Z"/>
    <path class="cls-3" d="M1313.5696,1099.854c-.2073,0-.4177-.0393-.6207-.1233-.8343-.3433-1.2308-1.2977-.8875-2.131,24.3148-59.0041-5.0252-115.8688-5.3238-116.4363-.4209-.7971-.1159-1.7845.6813-2.2054s1.7845-.1169,2.2054.6813c.3072.5803,30.3667,58.7522,5.4556,119.204-.2593.6303-.8683,1.0108-1.5103,1.0108Z"/>
    <path class="cls-8" d="M1288.951,969.8257c-.0741,9.6417,16.5354,28.3817,25.3317,27.1714,8.7962-1.2101,5.979-38.2878,1.7723-41.3835-8.4254-6.2003-12.9901,11.6196-12.9901,11.6196,0,0-14.0039-11.6635-14.1138,2.5925Z"/>
    <path class="cls-3" d="M1323.2406,1036.1588s31.415-29.0584,14.6557-33.7615c-7.3065-2.0505-14.8897,26.9809-14.6557,33.7615Z"/>
    <path class="cls-3" d="M1322.7132,1034.4889s-41.8634-25.7114-25.1041-30.4145c7.3065-2.0505,22.0389,25.0134,25.1041,30.4145Z"/>
    <path class="cls-3" d="M1498.4194,1100.5873c-.8949,0-1.624-.7206-1.6325-1.6166-.2041-20.8351-.4156-42.379,4.6128-63.1301,4.8455-19.9901,14.5409-38.76,28.038-54.2808.592-.6802,1.6219-.7525,2.3032-.1605.6802.592.7525,1.623.1605,2.3032-13.156,15.1286-22.6058,33.4235-27.328,52.9076-4.9327,20.3557-4.7233,41.6935-4.5214,62.3287.0085.9013-.7153,1.64-1.6166,1.6485h-.0159Z"/>
    <path class="cls-5" d="M1555.8447,966.5911l-13.3263,23.3268c-10.6174,18.5851-38.7888,4.3816-30.1599-15.2062l10.7883-24.4899,4.6467,12.5551,11.7024-4.3704,2.7238,12.2087,13.6251-4.0241Z"/>
  </g>
  <g id="greens">
    <path class="cls-4" d="M745.2217,1091.3893c-13.177-14.692-8.9531-39.2997,4.5321-53.7094,13.4852-14.4096,33.4837-20.6541,52.8812-24.2907,18.3774-3.4453,37.8045-4.9917,55.4085,1.3089s32.8676,22.1308,33.5102,40.8173c-6.06-22.2144-3.2207-47.2444,9.8947-66.1702,13.1154-18.9258,36.9738-30.6002,59.7014-26.9045,22.7276,3.6957,42.3561,23.9742,43.0457,46.99,3.7949-11.1626,15.9464-17.9961,27.7333-18.2671,11.7869-.271,23.087,4.917,32.7827,11.625,30.7386,21.2665,48.7523,59.6467,45.4706,96.8806"/>
    <path class="cls-4" d="M1035.2718,1094.3603c-1.5082-7.4285,1.4478-14.9678,4.4981-21.907,10.7378-24.428,23.9443-48.6944,44.6904-65.4762,20.7461-16.7818,50.5686-24.6073,74.76-13.3466,5.0701-19.7925,22.6901-35.7579,42.8852-38.8581,20.195-3.1001,41.7925,6.8451,52.5659,24.2055,4.7537,7.6602,7.4559,16.4146,9.4386,25.2093,1.7806,7.8986,3.0153,16.1618,1.1942,24.0511-1.8211,7.8893-7.2827,15.3738-15.0832,17.5443,12.8361-3.1738,27.181.6497,36.7346,9.7912,9.5536,9.1416,14.0054,23.3041,11.4002,36.2676"/>
    <path class="cls-4" d="M1354.8654,1093.7806c-5.2044-7.9087-1.6054-19.3591,5.8997-25.1304,7.5051-5.7713,17.6664-6.8618,27.0835-5.8858-1.1502-14.8806,4.6768-30.1542,15.4464-40.4873,10.7695-10.3331,26.271-15.5236,41.0913-13.7591,6.5165.7759,13.052,2.931,17.9658,7.281,3.2525,2.8793,5.6597,6.5905,7.7053,10.4226,10.3684,19.4236,12.0856,42.141,13.5953,64.1069"/>
    <path class="cls-4" d="M1560.1478,1092.1705c-11.144-10.7556-16.6834-27.028-14.4164-42.349,2.267-15.3209,12.2816-29.2919,26.0628-36.3593,3.2584-1.671,6.8704-2.998,10.5104-2.5979,4.4343.4875,8.1795,3.4338,11.4268,6.4925,10.2148,9.6215,18.2013,21.5942,23.1611,34.7211-8.3976-32.9601,2.7024-70.1372,27.7964-93.0977,11.4497-10.4762,28.5258-18.1742,42.2362-10.903,10.8245,5.7407,15.4968,18.6925,17.7489,30.7363,4.4256,23.6676,3.0338,48.4013-4.019,71.423.7518-12.9547,17.3155-20.5371,29.417-15.8528,12.1015,4.6843,19.268,17.5398,21.752,30.2763,2.484,12.7365,1.2821,25.871,2.022,38.8264"/>
    <path class="cls-4" d="M646.512,1092.1705c17.6049-16.9913,18.7066-47.2725,3.5845-66.2416-24.0135-30.1223-50.4354-.0361-60.3291,26.1491,8.3976-32.9601-2.7024-70.1372-27.7964-93.0977-11.4497-10.4762-28.5258-18.1742-42.2362-10.903-10.8245,5.7407-15.4968,18.6925-17.7489,30.7363-4.4256,23.6676-3.0338,48.4013,4.019,71.423-.7518-12.9547-17.3155-20.5371-29.417-15.8528-12.1015,4.6843-19.268,17.5398-21.752,30.2763-2.484,12.7365-1.2821,25.871-2.022,38.8264"/>
    <path class="cls-4" d="M264.8876,1116.3296c-5.7903-9.3607-9.4579-19.8776-12.3714-30.4388-2.7268-9.8844-6.829-21.3604-6.3188-31.697.5076-10.284,6.6338-20.3954,16.0334-24.8658,12.2304-5.8168,28.4227-1.3016,35.8784,10.0047-3.5556-16.4996,4.5804-34.848,19.1957-43.2903,14.6153-8.4423,34.5744-6.3225,47.0904,5.0013,5.7426,5.1955,9.9059,12.0197,12.4016,19.3506,6.0432,17.7516,1.8005,38.6134-10.6962,52.5945,9.1105-9.2284,20.4417-18.1319,33.3975-17.5758,8.3139.3568,16.336,4.9491,20.8535,11.9377s5.411,16.1888,2.3227,23.9161"/>
    <rect class="cls-4" x="264.8876" y="1090.3796" width="1488.9585" height="25.95"/>
  </g>
  <g id="clouds">
    <path class="cls-1" d="M562.6436,398.6969h95.3073s-18.0167-53.7018-40.7152-21.729c0,0-15.0194-23.5086-31.3447,1.4366,0,0-21.2736-2.0888-23.2473,20.2923Z"/>
    <path class="cls-1" d="M1345.259,387.4096h177.7127s-6.5508-100.7067-76.4403-43.8406c0,0-40.5701-47.7507-65.0691,2.2235,0,0-32.2758-2.9157-36.2033,41.6171Z"/>
  </g>
  <g id="girl">
    <path class="cls-3" d="M890.721,626.7772s27.1609,39.0184,136.8675,55.5759c0-21.7976-112.5753-60.6695-136.8675-55.5759Z"/>
    <path class="cls-3" d="M917.7661,487.1139s-16.0996,30.1459-6.6619,76.6122c0,0,46.5289-12.5662,36.0807-35.5524-10.4482-22.9861-29.4188-41.0599-29.4188-41.0599Z"/>
    <g>
      <path class="cls-8" d="M1202.7849,584.0994l14.5206-16.7474s-6.978-22.3797-3.8336-32.9983c3.144-10.6188,9.6087-10.9005,12.3414-8.1469,2.7327,2.7539,3.4694,4.2851,3.4694,4.2851,0,0,4.7858-12.7645,6.7353-13.651,1.9505-.8863,7.8617-.7341,7.1528,5.4707,0,0,7.2867-1.2845,7.4646,6.8705,0,0,6.1315-2.666,4.6403,6.3693,0,0,5.8746-1.5346,6.0342,5.7765.1596,7.3111,1.1076,12.0733-9.3571,22.4294-10.4647,10.3564-11.4311,4.751-17.1408,13.8792-5.2043,8.3209-10.4264,16.6306-15.6443,24.9431,0,0-41.4618,75.4349-57.8563,82.3784s-79.079-64.4205-79.079-64.4205l31.6316-25.4596,40.311,40.8896,48.6097-51.8681Z"/>
      <path class="cls-3" d="M1245.1751,561.4974c-.136,0-.2668-.0117-.3933-.0361-1.6495-.3157-2.9887-1.3418-3.873-2.9669-.7121-1.3073-1.0469-2.8506-1.0852-4.1844-.5208.0893-1.0671.101-1.5762.0234-.7706-.1159-3.1269-.7302-3.1896-3.8603-2.6624-1.1197-7.3464-3.4357-7.4006-5.8786-.0489-2.275,1.9854-2.7246,3.332-3.0222.6165-.136,1.251-.2763,1.6559-.5266.1073-1.2579-2.0917-6.1018-4.3088-10.0174-.2965-.5229-.1127-1.1872.4103-1.4832.525-.2971,1.1883-.1121,1.4837.4108,6.1603,10.8772,4.4746,12.2382,3.9209,12.6857-.7854.6351-1.7983.8588-2.6933,1.0565-1.572.3476-1.6315.5022-1.624.8492.068.8046,3.3448,2.8447,6.7417,4.1956.4496.1786.7281.6329.6813,1.1149-.1063,1.1197.1477,1.844.7546,2.1523.7514.3794,1.8207.1435,2.1618-.076.2306-.4815.7748-.7328,1.2977-.5723.5389.1631.8641.7105.7504,1.2616-.0202.0967-.05.1897-.0893.2795-.2381.7621-.2136,2.8931.6877,4.5511.5708,1.0485,1.369,1.6777,2.3723,1.8701,1.9503.372,9.4944-8.0245,15.304-16.1011.3507-.4878,1.031-.5994,1.5188-.2482.4878.3513.5994,1.0315.2476,1.5193-2.9239,4.0659-12.5884,17.0035-17.0874,17.0035Z"/>
      <path class="cls-3" d="M1242.4627,554.4847c-.2317,0-.4645-.0733-.6622-.2253-.4762-.3662-.5665-1.0496-.1998-1.5263l13.7629-17.9058c.3667-.4778,1.0501-.5665,1.5263-.1998s.5665,1.0496.1998,1.5263l-13.7629,17.9058c-.2147.279-.5378.4251-.8641.4251Z"/>
      <path class="cls-3" d="M1235.3927,550.9533c-.2104,0-.423-.0606-.6101-.1881-.4974-.3375-.6271-1.0145-.2891-1.5119,4.8126-7.086,9.8707-14.162,15.034-21.0317.3624-.4809,1.0448-.5777,1.5241-.2163.4804.3608.5771,1.0432.2168,1.5236-5.1431,6.8426-10.181,13.8904-14.9745,20.9477-.2104.3098-.5527.4767-.9013.4767Z"/>
      <path class="cls-3" d="M1233.0034,537.9255c-.2306,0-.4623-.0728-.66-.2237-.4772-.3646-.5686-1.0474-.2041-1.5252l4.4406-5.8143c2.1214-2.7788,4.3152-5.6517,6.0136-8.726.2891-.525.9513-.7169,1.4784-.4267.5261.2907.7174.9528.4262,1.479-1.776,3.2151-4.0186,6.1534-6.1879,8.9949l-4.4406,5.8143c-.2147.2806-.5389.4278-.8662.4278Z"/>
      <path class="cls-3" d="M1230.9138,543.9561c-.3125,0-.6335-.0308-.9566-.1058-.8896-.2057-1.607-.7068-2.1321-1.1208-2.0194-1.589-3.4489-3.6658-4.8307-5.6746-.3401-.4953-.2147-1.1729.2806-1.5135s1.1723-.2152,1.5135.2795c1.2892,1.8749,2.6231,3.8135,4.3821,5.1984.3476.2737.8078.6016,1.2775.7105.6143.1414,1.3891-.0585,2.0715-.2354.5793-.1472,1.1766.1993,1.3264.7812.1509.5819-.1988,1.1755-.7801,1.3264-.6292.1626-1.3679.3539-2.1523.3539Z"/>
    </g>
    <path class="cls-8" d="M867.9459,672.7128s-62.5613,155.7756-62.5613,164.4706l-157.8091-133.1267s-34.796,31.838-34.796,31.838c37.2309,46.4715,73.214,94.1835,111.8479,139.4963,10.9795,12.8776,22.0374,25.6955,33.3788,38.2567,12.1533,13.4604,23.973,30.0167,42.7865,33.6743,34.2785,6.6641,59.1878-25.8523,73.6089-51.9905,34.7802-63.0391,97.8192-158.1411,97.8192-158.1411,0,0-39.5397-110.4783-104.2748-64.4776Z"/>
    <path class="cls-8" d="M903.2039,638.2843s-65.2128,43.4752-47.8227,94.5586c17.3901,51.0834,316.75,423.2202,316.75,423.2202l36.6092-26.0851s-263.6516-536.6635-305.5365-491.6936Z"/>
    <g>
      <path class="cls-8" d="M814.7109,649.065s9.1214,18.8548,6.7762,22.3384c-2.3452,3.4836-7.7026,2.7239-9.0451.518"/>
      <path class="cls-8" d="M779.5523,642.582c-8.2463,17.9624-1.545,31.4725,3.5801,30.3873.0958.9593,3.863,4.5665,9.2964,1.9311,0,0,3.1709,6.7032,9.4389,3.6937,0,0,9.5634,3.5048,12.8047-5.364,3.2412-8.8686,3.6048-17.4498-.9349-26.2386-.4011-.7765-.7665-1.5274-1.0975-2.2574,0,0-1.8812-3.0702.617-14.5204,2.4982-11.4502,34.5588-94.9326,34.5588-94.9326l88.3113,11.9607s-4.9628-53.0044-4.9629-53.0044c-13.521-.2064-32.1112-.8213-45.6306-.5623-10.8712.2083-21.7507.53-32.6059,1.2625-15.1621,1.0212-29.6684-1.5363-33.9108,16.4346-9.2029,38.9838-19.3255,76.9421-31.2527,115.5374-1.6438,5.3193-5.8807,10.5944-8.2119,15.6724Z"/>
      <path class="cls-3" d="M802.9682,678.9046c-.1663,0-.3353-.0383-.4937-.119-.5351-.2732-.7477-.9279-.4751-1.4635.0266-.0521,2.663-5.2951,2.8017-11.1057.0143-.6005.5298-1.0405,1.1139-1.0629.601.0149,1.0761.5134,1.0618,1.1139-.1504,6.3218-2.9207,11.8136-3.0387,12.0442-.1924.3762-.5739.5931-.9699.5931Z"/>
      <path class="cls-3" d="M792.8255,675.9584c-.1663,0-.3353-.0383-.4937-.119-.5351-.2732-.7477-.9279-.4751-1.4635.0266-.0521,2.663-5.2951,2.8017-11.1057.0138-.6005.5442-1.049,1.1139-1.0629.601.0149,1.0761.5134,1.0618,1.1139-.1504,6.3218-2.9207,11.8136-3.0387,12.0442-.1924.3762-.5739.5931-.9699.5931Z"/>
      <path class="cls-3" d="M783.6361,673.939c-.1663,0-.3353-.0383-.4937-.119-.5351-.2732-.7477-.9279-.4751-1.4635.0266-.0521,2.663-5.2962,2.8022-11.1068.0143-.6005.5192-1.0331,1.1139-1.0618.601.0149,1.0767.5134,1.0618,1.1149-.1509,6.3208-2.9212,11.8125-3.0392,12.0432-.1924.3762-.5739.5931-.9699.5931Z"/>
    </g>
    <g>
      <path class="cls-1" d="M1096.2753,1062.0486c44.2281,56.0043,76.4598,96.073,76.4598,96.073l37.7891-26.9259s-21.3366-43.4286-53.0016-104.9332c-18.3596,14.8091-38.8464,26.6748-61.2472,35.7861Z"/>
      <path class="cls-3" d="M1104.0711,1073c-.3848,0-.7578-.2041-.9555-.5654-.2891-.5272-.0957-1.1883.4315-1.4774l60.0022-32.8984c.5272-.2912,1.1893-.0957,1.4774.4315.2891.5272.0957,1.1883-.4315,1.4774l-60.0022,32.8984c-.1658.0914-.3454.1339-.5219.1339Z"/>
    </g>
    <g>
      <path class="cls-1" d="M736.8268,777.8344l-90.23-76.1172-36.101,33.032c25.597,31.9503,50.6807,64.4179,76.3179,96.4002,13.9929-20.4454,30.9334-37.5344,50.0131-53.315Z"/>
      <path class="cls-3" d="M678.8794,822.3033c-.2742,0-.5484-.1031-.7599-.3093-.4305-.4198-.439-1.1086-.0191-1.539l49.3614-50.6236c.4198-.4305,1.1086-.4379,1.539-.0191.4305.4198.439,1.1086.0191,1.539l-49.3614,50.6236c-.2131.2189-.4958.3284-.7791.3284Z"/>
    </g>
    <g>
      <path class="cls-7" d="M894.5857,860.286c34.5797-58.1341,77.6353-123.0955,77.6353-123.0955,0,0-39.5396-110.4781-104.2749-64.4777,0,0-31.5232,79.2342-50.0321,127.7266l76.6717,59.8466Z"/>
      <path class="cls-7" d="M1031.1268,795.8299c-57.526-98.4278-110.9446-175.7745-127.9227-157.5459,0,0-65.2129,43.4757-47.823,94.5592,5.9097,17.3597,44.3939,71.8074,92.6162,136.1175l83.1295-73.1307Z"/>
      <path class="cls-7" d="M972.2209,711.6202s17.6418-30.7359,35.407-40.7288l19.9606-15.2355-85.8088-54.7148s-13.8205,19.212-46.7123,43.4708"/>
      <path class="cls-3" d="M936.1275,854.1495c-.3141,0-.626-.135-.8412-.3964-.3816-.4645-.3151-1.15.1493-1.5326l86.6994-71.3311c.4645-.3826,1.1489-.3157,1.5326.1488.3816.4645.3146,1.15-.1488,1.5326l-86.7004,71.3311c-.2025.1669-.4475.2476-.6909.2476Z"/>
      <path class="cls-3" d="M905.0274,844.0227c-.2221,0-.4464-.068-.6398-.2083l-80.8207-58.8787c-.4857-.3539-.5925-1.0352-.2386-1.5209s1.0342-.5909,1.5204-.2391l80.8207,58.8787c.4857.3539.5925,1.0352.2386,1.5209-.2131.2923-.5442.4475-.8806.4475Z"/>
    </g>
    <path class="cls-3" d="M1032.1565,677.9576c4.4454-7.971,6.6939-24.2036,7.7439-26.5137,8.3285-18.3227,24.8271-32.6316,24.8271-32.6316,0,0,7.2451,13.7433,26.1206,28.7327,33.4344-14.3663,42.5766-52.2412,42.5766-52.2412,0,0-24.031-26.643-49.6656-47.1221-25.945-20.7271-31.6442-24.9823-31.6442-24.9823-51.63-39.9716-134.349-36.0855-134.349-36.0855,20.541,36.0855-6.6619,76.6122-6.6619,76.6122,0,0,44.58-.5552,44.58-.5551-6.7139,11.4618-17.6621,19.4524-28.0664,27.3169-8.5961,6.4977-17.0849,13.1923-24.774,20.7606-.2765.2721-13.387,14.8052-12.0451,15.6362,11.9993,3.489,23.9219,7.3244,35.7834,11.2526,22.4505,7.4349,44.8663,15.3396,66.4296,25.0918,7.7813,3.5192,15.5367,7.2683,22.7546,11.8546,2.6956,1.7128,5.3572,3.5409,7.74,5.6784,3.5434,3.1778,6.3826,1.2615,8.6501-2.8045Z"/>
    <g>
      <path class="cls-3" d="M1051.3221,521.5989c6.4684-7.4775,71.8493-81.0805,71.9446-81.1906,2.0596-2.3829.6318-6.5308-.2838-9.0914-3.5468-9.9186-8.4448-20.2506-17.0947-26.6945-6.5039-4.8453-14.2145-7.5558-22.3095-7.9343-5.1981-.243-10.4078.3947-15.4772,1.521-32.9417,7.319-56.6113,44.9228-79.6316,67.3438-2.5578,2.4912-5.1171,4.9809-7.6814,7.4655l1.1803.8246,6.5955,4.767,12.0481-12.5379-10.293,13.6272,8.7771,5.0347,9.8418-11.2175-6.8567,11.7543,49.2404,36.3283"/>
      <path class="cls-8" d="M1072.4478,500.4377l-21.6462,21.7629s7.4896,6.134,5.4078,12.796c-1.9867,6.357-10.75,2.704-14.5692.4962-11.9904-6.9314-17.5034-17.8078-22.1883-30.3052l34.7404-35.7309"/>
      <circle class="cls-3" cx="1074.0649" cy="388.2444" r="19.1863"/>
      <path class="cls-3" d="M1078.3841,404.2316c-.2402,0-.4815-.0053-.7217-.0165l.0489-1.0873c6.748.3034,13.4939-4.2158,15.7993-10.5153,2.3053-6.3.0351-14.1375-5.2802-18.23l.6632-.862c5.7702,4.4417,8.1414,12.6283,5.6395,19.4661-2.4201,6.6115-9.1331,11.245-16.1489,11.245Z"/>
      <path class="cls-3" d="M1074.0649,498.0044l-12.0458,12.9183-5.496,5.5257s-16.0729-27.1744-10.5732-38.2856,28.115,19.8417,28.115,19.8417Z"/>
      <path class="cls-8" d="M1124.6804,467.4176c-.603-.3257-1.0347-.5628-1.0307-.5854.3082-1.7387.5603-3.5081.7499-5.3057.8185-7.7642.0338-15.2763-1.9295-22.1752-6.6873-3.6143-19.04-12.2725-19.0405-12.2727-.2645-.0976-3.8224,3.1809-4.3157,3.5276-1.6597,1.1663-3.4084,2.2035-5.2145,3.1262-3.5928,1.8356-7.3007,3.1809-11.2248,4.1304-11.0215,2.6666-22.2787,2.2003-33.1283-.8299-2.4401-.6815-5.1032-.4099-7.299.8867-2.9492,1.7415-4.4714,5.1989-4.8885,8.5125-.6399,5.0846,3.5495,10.6216,8.6238,11.549.6838.125,1.3706.1932,2.0527.1893-.019.0863-.0338.1746-.0522.2611.1105.0164.2108.0437.3234.0578,0,0-.2274.5378-.6258,1.4801-5.211,12.3256-1.409,27.3643,8.1351,36.4858,19.4138,18.5542,55.0997,8.24,63.7458-16.4742.6078-1.7375,3.0005-2.442,4.4983-3.1403,2.533-1.181,7.4729-3.431,4.7638-6.7471-1.0325-1.2638-2.7369-1.9162-4.1435-2.6759Z"/>
      <path class="cls-3" d="M1098.6176,491.9747c-.0053,0-.0106,0-.0159-.0005-3.8496-.034-7.3571-1.8993-9.6209-5.1176-2.1916-3.1152-3.2077-7.3842-2.8601-12.0214.0744-1.0071.9725-1.7633,1.9599-1.6878,1.0076.0755,1.7633.9534,1.6878,1.961-.2795,3.7391.525,7.254,2.2054,9.6427,1.5996,2.2745,3.9655,3.5404,6.6598,3.5648,1.0108.009,1.8228.8354,1.8132,1.8456-.0085,1.0044-.8258,1.8132-1.8292,1.8132Z"/>
      <path class="cls-3" d="M1050.7043,448.1539c-.3104,0-.6196-.1302-.8386-.3837-1.5156-1.7585-3.805-2.8729-6.1241-2.9813-.6101-.0287-1.082-.5463-1.0533-1.1569.0287-.6111.541-1.0884,1.1574-1.0538,2.9143.136,5.7915,1.5369,7.6972,3.7465.3986.4629.3465,1.1617-.1159,1.5608-.2094.1802-.4666.2684-.7227.2684Z"/>
      <path d="M1098.6187,450.7563c-.8248,0-1.6134-.4714-1.9801-1.2706-.5006-1.0931-.0202-2.385,1.0724-2.8856,5.3461-2.4493,11.1355-4.4448,17.2533-2.4663,1.1436.3693,1.7718,1.5964,1.4019,2.7406-.3699,1.1431-1.5943,1.7734-2.7411,1.4014-4.6978-1.5172-9.554.1988-14.1008,2.2825-.2933.1345-.6016.1982-.9055.1982Z"/>
      <circle class="cls-3" cx="1107.3114" cy="457.6865" r="2.5828"/>
      <path class="cls-3" d="M979.6868,470.9223l-.7578-.7812c11.0494-10.7173,22.7833-20.9748,34.8764-30.4873l.8237-.6467c1.6166-1.268,3.2874-2.5795,4.8689-3.9352,2.5285-2.1682,4.9274-4.5331,7.1285-7.0286l.8163.7195c-2.2341,2.5338-4.6691,4.9343-7.2369,7.1349-1.5985,1.3716-3.2789,2.6901-4.9051,3.9655l-.8216.6462c-12.0644,9.4891-23.7701,19.7217-34.7924,30.4129Z"/>
    </g>
    <path class="cls-3" d="M917.3984,828.7367c-.3359,0-.6669-.1552-.88-.4464-37.0499-50.7607-57.9663-82.7557-62.1677-95.0964-7.2375-21.2613-1.159-44.5951,17.5785-67.4761,13.478-16.4593,29.1285-27.2897,30.5655-28.2686,1.1287-1.184,2.4313-2.0194,3.873-2.4839.5739-.1812,1.1856.1307,1.3695.7025.1844.5718-.1297,1.1851-.702,1.37-1.1213.3614-2.1422,1.0299-3.035,1.9875-.0574.0616-.1222.1169-.1924.1637-.6452.4305-64.3141,43.6066-47.3962,93.3034,4.1302,12.1324,24.9446,43.9319,61.8648,94.514.3545.4857.2482,1.167-.2375,1.5209-.1934.1414-.4182.2094-.6404.2094Z"/>
    <g>
      <path class="cls-3" d="M1149.6055,1135.6847s15.9601,40.3697,31.9202,41.3085,84.9641-38.492,92.9441-45.5332-7.0412-25.3484-17.8378-22.5319c-10.7965,2.8165-23.0013,9.3883-35.6755,5.633-12.6742-3.7553-16.4295-14.0824-19.7154-13.1436-3.2859.9388-5.633,6.5718-3.7553,14.5519,1.8777,7.9801-17.3996,25.6252-25.8491,20.7182s-19.6842-8.9828-22.0312-1.0027Z"/>
      <g>
        <path class="cls-1" d="M1219.2182,1126.9409c-.7376,0-1.4062-.5017-1.5858-1.2499-1.1022-4.5734-.1031-9.571,2.672-13.3707.5304-.7291,1.555-.8875,2.2809-.355.7281.5314.8875,1.5528.355,2.2809-2.216,3.0344-3.0142,7.0276-2.1342,10.6795.2115.8769-.3274,1.758-1.2042,1.9695-.1286.0308-.2572.0457-.3837.0457Z"/>
        <path class="cls-1" d="M1228.0537,1128.7425c-.6972,0-1.3413-.4485-1.5592-1.1479-1.4168-4.5607-1.0363-9.6432,1.0437-13.9425.3943-.8131,1.37-1.15,2.181-.7589.812.3933,1.1511,1.369.7589,2.181-1.7239,3.5627-2.0396,7.7726-.8652,11.5511.2678.8609-.2136,1.776-1.0745,2.0439-.1616.05-.3252.0733-.4847.0733Z"/>
        <path class="cls-1" d="M1210.0033,1119.5924c-.1467,0-.2923-.0043-.4379-.0117-.5144-.0287-1.1171-.1031-1.6974-.4443-.5835-.3412-.9364-.8216-1.2297-1.2903l-.0903-.1414c-.7823-1.234-1.9641-3.0982-1.3796-4.8997.2073-.6409.7259-1.5114,2.0194-2.0258,1.1553-.4602,2.3287-.3348,3.2672-.2349l.1828.0191c1.0342.1084,1.9854.1307,2.8569.068-.7642-3.0759-.7472-5.6661.0096-8.5613.5495-2.1119,1.5688-3.433,3.0312-3.9272,2.2894-.7738,4.4225.8397,5.4375,2.6646,1.9567,3.518,1.0522,8.2754-2.0577,10.8326-.7238.5941-1.5454,1.0745-2.4616,1.438.0829,1.3222-.2944,2.5806-1.1128,3.6477-1.3381,1.7463-3.8433,2.8665-6.3378,2.8665ZM1209.5314,1116.3039c.0446.0053.1105.0106.2104.0159,1.5518.0999,3.2428-.5814,4.0091-1.5805.2115-.2774.3486-.5729.4113-.8907-1.1861.1201-2.4733.1063-3.8635-.0372l-.1903-.0202c-.6707-.0712-1.3062-.1403-1.7133.0213-.0521.0213-.0914.0404-.119.0553.0244.5027.7738,1.6857,1.0299,2.0885l.0957.1509c.0595.0957.101.1562.1297.1966ZM1217.7047,1101.2168c-.0446,0-.0861.0064-.1233.0191-.3337.1127-.677.7323-.9172,1.658-.0011,0-.0011.0011-.0011.0011-.6165,2.3595-.6292,4.4225.0043,6.9659.4326-.2083.8248-.456,1.1755-.744,1.8972-1.5603,2.4711-4.5756,1.2775-6.7225-.3646-.6547-1.0086-1.1776-1.4157-1.1776ZM1215.0837,1102.4826h.0106-.0106Z"/>
        <path class="cls-1" d="M1196.029,1161.1637c-.1297,0-.2615-.0117-.3943-.0351-1.1819-.2168-1.9652-1.3509-1.7495-2.5338l3.9187-21.4196c.2168-1.1819,1.3477-1.9578,2.5338-1.7495,1.1819.2168,1.9652,1.3509,1.7495,2.5338l-3.9187,21.4196c-.1924,1.0501-1.1086,1.7845-2.1395,1.7845Z"/>
        <path class="cls-1" d="M1204.824,1161.1637c-.1297,0-.2615-.0117-.3943-.0351-1.1819-.2168-1.9652-1.3509-1.7495-2.5338l3.9187-21.4196c.2168-1.1819,1.3477-1.9578,2.5338-1.7495,1.1819.2168,1.9652,1.3509,1.7495,2.5338l-3.9187,21.4196c-.1924,1.0501-1.1086,1.7845-2.1395,1.7845Z"/>
      </g>
    </g>
    <g>
      <path class="cls-3" d="M672.1517,716.2138s-22.6778-37.0156-38.561-35.1901c-15.8831,1.8254-77.0602,52.5572-83.7076,60.8682-6.6473,8.311,11.3039,23.7559,21.4536,19.1211,10.1497-4.6348,21.0395-13.2114,34.1712-11.6963,13.1317,1.5151,18.6104,11.0407,21.6854,9.5497,3.075-1.491,4.4163-7.4442,1.1916-14.9813-3.2247-7.5371,12.7236-28.2402,21.8923-24.8625,9.1687,3.3777,20.9376,5.4565,21.8745-2.8087Z"/>
      <path class="cls-1" d="M604.6531,752.301c-.2423,0-.4884-.0542-.7201-.1679-.8088-.3986-1.142-1.3775-.7435-2.1863,1.6607-3.3714,1.7585-7.441.262-10.8878-.3592-.8269.0202-1.7888.8471-2.148.828-.3571,1.7882.0202,2.148.8471,1.8738,4.3152,1.751,9.4115-.3279,13.6321-.2843.5761-.8636.9109-1.4657.9109Z"/>
      <path class="cls-1" d="M597.6117,752.5317c-.1483,0-.2987-.0202-.4485-.0627-.8668-.2466-1.3695-1.15-1.1224-2.0173,1.0836-3.8061.6691-8.0075-1.1388-11.5266-.4119-.8025-.0957-1.7867.7068-2.198.8025-.4156,1.7861-.0957,2.198.7057,2.1815,4.2482,2.6826,9.3201,1.3743,13.9138-.2046.7174-.8588,1.1851-1.5693,1.1851Z"/>
      <path class="cls-1" d="M613.4371,764.9107c-1.5698,0-3.0844-.9661-4.0378-2.1448-2.5333-3.1269-2.4626-7.9703.161-11.0239.6159-.7174,1.3504-1.336,2.1996-1.8547-.186-.9778.025-1.7409.2902-2.2649.9762-1.9312,3.5802-2.5211,5.454-2.7974l1.8866-.2774c.7121-.1073,2.8713-.4198,4.0367,1.2021.4671.6515.6335,1.4657.4671,2.2936-.1918.9555-.8083,1.8355-1.649,2.3532-1.0586.6526-2.2325.7312-3.1763.7939l-.1849.0128c-1.0373.0723-1.9801.2147-2.8256.4262,1.2823,2.8984,1.7123,5.4524,1.4667,8.4348h0c-.1796,2.1746-.9566,3.652-2.3101,4.3906-.5824.3167-1.1845.456-1.7781.456ZM613.0666,752.9356c-.3911.2785-.7344.5909-1.0299.9342-1.6012,1.8642-1.6458,4.9327-.0999,6.8416.5224.6462,1.3551,1.0671,1.7149.8769.3093-.169.5405-.8386.6191-1.792h0c.2003-2.4307-.1424-4.465-1.2042-6.8607ZM615.8981,759.9302h.0106-.0106ZM620.2946,747.7276c-.1196.0096-.2609.0255-.4283.05l-1.0905.1605.0755-.0053c.5458-.0361,1.0676-.0712,1.4434-.2051Z"/>
      <path class="cls-1" d="M622.2412,725.21h-.0175c-1.2021-.0096-2.1687-.9916-2.1597-2.1937l.1685-21.7736c.0096-1.1962.9821-2.1597,2.1762-2.1597h.0175c1.2021.0096,2.1687.9916,2.1597,2.1937l-.1685,21.7736c-.0096,1.1957-.9821,2.1597-2.1762,2.1597Z"/>
      <path class="cls-1" d="M613.5773,726.7257h-.0175c-1.2021-.0096-2.1687-.9916-2.1597-2.1937l.1685-21.7736c.0096-1.1962.9821-2.1597,2.1762-2.1597h.0175c1.2021.0096,2.1687.9916,2.1597,2.1937l-.1685,21.7736c-.0096,1.1957-.9821,2.1597-2.1762,2.1597Z"/>
    </g>
  </g>
</svg>